<svg width="541" height="541" viewBox="0 0 541 541" fill="none" xmlns="http://www.w3.org/2000/svg">
<circle cx="270.009" cy="270.009" r="269.509" stroke="#404342"/>
<path d="M497.167 264.043C497.201 265.364 497.224 266.689 497.236 268.016L496.736 268.02C496.741 268.682 496.744 269.345 496.744 270.009C496.744 270.672 496.741 271.335 496.736 271.997L497.236 272.002C497.224 273.329 497.201 274.653 497.167 275.975L496.667 275.962C496.633 277.28 496.588 278.596 496.532 279.909L497.031 279.931C496.975 281.254 496.906 282.575 496.827 283.893L496.328 283.862C496.248 285.184 496.157 286.502 496.055 287.816L496.554 287.855C496.451 289.173 496.338 290.487 496.213 291.799L495.715 291.751C495.59 293.068 495.453 294.381 495.306 295.691L495.803 295.747C495.654 297.064 495.494 298.378 495.323 299.688L494.828 299.623C494.657 300.931 494.475 302.234 494.283 303.535L494.777 303.608C494.583 304.919 494.377 306.227 494.161 307.531L493.667 307.449C493.451 308.753 493.223 310.053 492.984 311.349L493.476 311.44C493.237 312.739 492.986 314.034 492.725 315.326L492.235 315.227C491.972 316.523 491.699 317.816 491.414 319.105L491.903 319.213C491.617 320.506 491.321 321.794 491.013 323.079L490.527 322.962C490.221 324.244 489.903 325.522 489.575 326.795L490.059 326.92C489.728 328.204 489.385 329.484 489.033 330.759L488.551 330.626C488.198 331.898 487.835 333.166 487.462 334.43L487.941 334.572C487.566 335.839 487.181 337.102 486.784 338.361L486.307 338.21C485.91 339.471 485.502 340.728 485.083 341.979L485.558 342.138C485.138 343.392 484.708 344.642 484.267 345.886L483.796 345.719C483.355 346.964 482.904 348.203 482.442 349.437L482.911 349.612C482.447 350.852 481.972 352.087 481.487 353.317L481.022 353.134C480.538 354.361 480.044 355.583 479.539 356.8L480.001 356.992C479.494 358.214 478.977 359.431 478.45 360.643L477.991 360.443C477.464 361.654 476.926 362.859 476.379 364.059L476.834 364.267C476.285 365.469 475.726 366.666 475.157 367.857L474.705 367.641C474.136 368.833 473.556 370.019 472.967 371.199L473.414 371.423C472.823 372.606 472.222 373.784 471.61 374.956L471.167 374.725C470.557 375.894 469.937 377.057 469.308 378.214L469.747 378.453C469.114 379.616 468.472 380.773 467.819 381.923L467.384 381.677C466.733 382.825 466.073 383.967 465.403 385.102L465.833 385.356C465.161 386.495 464.479 387.627 463.788 388.753L463.362 388.491C462.671 389.616 461.97 390.735 461.261 391.847L461.682 392.116C460.97 393.23 460.25 394.338 459.519 395.44L459.103 395.163C458.373 396.263 457.635 397.356 456.887 398.442L457.298 398.726C456.548 399.815 455.789 400.898 455.02 401.974L454.613 401.683C453.846 402.756 453.07 403.822 452.285 404.882L452.687 405.179C451.899 406.242 451.103 407.298 450.297 408.346L449.901 408.041C449.097 409.088 448.284 410.127 447.462 411.158L447.853 411.47C447.029 412.504 446.197 413.531 445.356 414.55L444.97 414.232C444.13 415.25 443.281 416.26 442.424 417.263L442.804 417.588C441.945 418.593 441.077 419.59 440.201 420.58L439.826 420.249C438.952 421.236 438.069 422.216 437.177 423.189L437.546 423.527C436.652 424.501 435.75 425.468 434.84 426.427L434.478 426.083C433.569 427.04 432.653 427.989 431.728 428.929L432.085 429.28C431.158 430.223 430.223 431.158 429.28 432.084L428.93 431.728C427.989 432.652 427.04 433.569 426.083 434.477L426.427 434.84C425.468 435.75 424.501 436.652 423.527 437.546L423.189 437.177C422.217 438.069 421.237 438.952 420.249 439.826L420.58 440.201C419.591 441.077 418.593 441.945 417.588 442.804L417.263 442.424C416.26 443.281 415.25 444.13 414.232 444.97L414.55 445.356C413.531 446.197 412.504 447.029 411.47 447.853L411.159 447.462C410.127 448.283 409.088 449.096 408.041 449.9L408.346 450.297C407.298 451.103 406.242 451.899 405.18 452.687L404.882 452.285C403.823 453.07 402.756 453.846 401.683 454.613L401.974 455.02C400.898 455.789 399.815 456.548 398.726 457.298L398.442 456.886C397.356 457.634 396.263 458.373 395.163 459.102L395.44 459.519C394.339 460.249 393.231 460.97 392.116 461.682L391.847 461.26C390.735 461.97 389.616 462.671 388.491 463.362L388.753 463.788C387.627 464.479 386.495 465.161 385.356 465.833L385.102 465.402C383.967 466.073 382.825 466.733 381.677 467.384L381.924 467.819C380.773 468.471 379.616 469.114 378.453 469.747L378.214 469.308C377.057 469.937 375.894 470.557 374.725 471.167L374.956 471.61C373.784 472.221 372.607 472.823 371.423 473.414L371.2 472.967C370.019 473.556 368.833 474.136 367.642 474.705L367.857 475.156C366.666 475.725 365.469 476.285 364.267 476.833L364.059 476.379C362.859 476.926 361.654 477.464 360.443 477.991L360.643 478.449C359.431 478.977 358.214 479.494 356.992 480.001L356.8 479.539C355.584 480.044 354.361 480.538 353.134 481.022L353.318 481.487C352.088 481.972 350.852 482.447 349.612 482.911L349.437 482.442C348.203 482.904 346.964 483.355 345.719 483.796L345.886 484.267C344.642 484.708 343.392 485.138 342.138 485.557L341.98 485.083C340.728 485.502 339.472 485.91 338.21 486.307L338.361 486.784C337.102 487.18 335.839 487.566 334.572 487.941L334.43 487.462C333.166 487.835 331.898 488.198 330.626 488.55L330.759 489.032C329.484 489.385 328.204 489.727 326.92 490.059L326.795 489.574C325.522 489.903 324.244 490.22 322.962 490.527L323.079 491.013C321.794 491.321 320.506 491.617 319.213 491.902L319.105 491.414C317.816 491.699 316.523 491.972 315.227 492.235L315.326 492.725C314.034 492.986 312.739 493.236 311.44 493.476L311.349 492.984C310.053 493.223 308.753 493.451 307.449 493.667L307.531 494.161C306.227 494.377 304.919 494.583 303.608 494.777L303.535 494.283C302.234 494.475 300.931 494.657 299.623 494.827L299.688 495.323C298.378 495.494 297.064 495.654 295.747 495.802L295.691 495.306C294.381 495.453 293.068 495.59 291.751 495.715L291.799 496.213C290.487 496.337 289.173 496.451 287.855 496.553L287.816 496.055C286.502 496.157 285.184 496.248 283.862 496.328L283.893 496.827C282.575 496.906 281.254 496.974 279.931 497.031L279.909 496.532C278.596 496.588 277.28 496.633 275.962 496.667L275.974 497.167C274.653 497.201 273.329 497.224 272.001 497.235L271.997 496.735C271.335 496.741 270.672 496.744 270.009 496.744C269.345 496.744 268.682 496.741 268.02 496.735L268.016 497.235C266.689 497.224 265.364 497.201 264.043 497.167L264.056 496.667C262.737 496.633 261.421 496.588 260.108 496.532L260.087 497.031C258.763 496.974 257.442 496.906 256.125 496.827L256.155 496.328C254.834 496.248 253.516 496.157 252.201 496.055L252.162 496.553C250.844 496.451 249.53 496.337 248.219 496.213L248.266 495.715C246.95 495.59 245.636 495.453 244.327 495.306L244.271 495.802C242.954 495.654 241.64 495.494 240.329 495.323L240.394 494.827C239.087 494.657 237.783 494.475 236.483 494.282L236.409 494.777C235.098 494.583 233.79 494.377 232.486 494.16L232.568 493.667C231.264 493.451 229.964 493.223 228.668 492.984L228.577 493.476C227.278 493.236 225.983 492.986 224.692 492.725L224.791 492.235C223.494 491.972 222.201 491.699 220.912 491.414L220.804 491.902C219.512 491.617 218.223 491.321 216.939 491.013L217.055 490.527C215.773 490.22 214.495 489.903 213.222 489.574L213.097 490.059C211.813 489.727 210.533 489.385 209.258 489.032L209.391 488.55C208.119 488.198 206.851 487.835 205.588 487.462L205.446 487.941C204.178 487.566 202.915 487.18 201.657 486.784L201.807 486.307C200.546 485.91 199.289 485.502 198.038 485.083L197.879 485.557C196.625 485.138 195.376 484.708 194.131 484.267L194.298 483.796C193.054 483.355 191.815 482.904 190.581 482.442L190.406 482.91C189.165 482.447 187.93 481.972 186.7 481.487L186.883 481.022C185.656 480.538 184.434 480.044 183.217 479.539L183.026 480.001C181.803 479.494 180.586 478.977 179.375 478.449L179.574 477.991C178.363 477.464 177.158 476.926 175.958 476.379L175.751 476.833C174.548 476.284 173.351 475.725 172.16 475.156L172.376 474.705C171.184 474.136 169.998 473.556 168.818 472.967L168.594 473.414C167.411 472.823 166.233 472.221 165.062 471.61L165.293 471.167C164.124 470.557 162.96 469.937 161.803 469.307L161.564 469.747C160.401 469.114 159.245 468.471 158.094 467.819L158.341 467.384C157.193 466.733 156.051 466.073 154.915 465.402L154.661 465.833C153.523 465.161 152.39 464.479 151.265 463.788L151.526 463.362C150.401 462.671 149.283 461.97 148.17 461.26L147.901 461.682C146.787 460.97 145.679 460.249 144.578 459.519L144.854 459.102C143.754 458.373 142.661 457.634 141.575 456.886L141.292 457.298C140.202 456.548 139.12 455.788 138.044 455.02L138.335 454.613C137.261 453.846 136.195 453.07 135.136 452.285L134.838 452.687C133.775 451.899 132.72 451.102 131.672 450.297L131.976 449.9C130.93 449.096 129.891 448.283 128.859 447.462L128.547 447.853C127.513 447.029 126.487 446.197 125.467 445.355L125.786 444.97C124.768 444.13 123.757 443.281 122.754 442.424L122.43 442.804C121.425 441.945 120.427 441.077 119.437 440.2L119.769 439.826C118.781 438.952 117.801 438.069 116.829 437.177L116.491 437.546C115.516 436.652 114.549 435.75 113.59 434.84L113.935 434.477C112.978 433.569 112.029 432.652 111.088 431.728L110.738 432.084C109.795 431.158 108.86 430.223 107.933 429.28L108.29 428.929C107.365 427.988 106.448 427.04 105.54 426.083L105.177 426.427C104.267 425.468 103.365 424.501 102.472 423.527L102.84 423.189C101.949 422.216 101.066 421.236 100.191 420.249L99.8169 420.58C98.9406 419.59 98.0727 418.593 97.2135 417.588L97.5936 417.263C96.7363 416.26 95.8875 415.25 95.0475 414.232L94.6618 414.55C93.8207 413.531 92.9883 412.504 92.1647 411.47L92.5558 411.158C91.734 410.127 90.921 409.087 90.1169 408.041L89.7205 408.346C88.9149 407.298 88.1183 406.242 87.3307 405.179L87.7324 404.882C86.9473 403.822 86.1712 402.756 85.4043 401.683L84.9975 401.973C84.2289 400.898 83.4694 399.815 82.7192 398.726L83.131 398.442C82.3831 397.356 81.6444 396.263 80.915 395.163L80.4983 395.439C79.7681 394.338 79.0471 393.23 78.3356 392.116L78.7571 391.847C78.0471 390.735 77.3466 389.616 76.6557 388.491L76.2296 388.753C75.5383 387.627 74.8565 386.495 74.1844 385.356L74.615 385.102C73.9447 383.966 73.2841 382.825 72.6332 381.677L72.1983 381.923C71.546 380.773 70.9034 379.616 70.2707 378.453L70.7099 378.214C70.0803 377.057 69.4605 375.894 68.8506 374.724L68.4072 374.956C67.796 373.784 67.1948 372.606 66.6035 371.423L67.0508 371.199C66.4612 370.019 65.8817 368.833 65.3122 367.641L64.8611 367.857C64.2919 366.666 63.7329 365.469 63.184 364.267L63.6389 364.059C63.0912 362.859 62.5537 361.654 62.0264 360.443L61.568 360.643C61.0405 359.431 60.5232 358.214 60.0163 356.991L60.4781 356.8C59.9736 355.583 59.4793 354.361 58.9955 353.134L58.5303 353.317C58.0454 352.087 57.5709 350.852 57.1069 349.612L57.5752 349.436C57.1136 348.202 56.6624 346.963 56.2218 345.719L55.7505 345.886C55.3098 344.642 54.8796 343.392 54.46 342.138L54.9342 341.979C54.5156 340.728 54.1076 339.471 53.7103 338.21L53.2334 338.36C52.837 337.102 52.4513 335.839 52.0763 334.571L52.5558 334.43C52.1821 333.166 51.8191 331.898 51.4669 330.626L50.9851 330.759C50.6321 329.484 50.29 328.204 49.9588 326.92L50.443 326.795C50.1146 325.522 49.797 324.244 49.4904 322.962L49.0041 323.079C48.6968 321.794 48.4004 320.505 48.115 319.213L48.6032 319.105C48.3187 317.816 48.0452 316.523 47.7827 315.226L47.2927 315.325C47.0313 314.034 46.781 312.739 46.5416 311.44L47.0334 311.349C46.7946 310.053 46.5668 308.753 46.3501 307.449L45.8569 307.531C45.6402 306.227 45.4347 304.919 45.2403 303.608L45.7349 303.534C45.5422 302.234 45.3605 300.93 45.19 299.623L44.6942 299.688C44.5233 298.377 44.3635 297.064 44.215 295.746L44.7119 295.69C44.5642 294.381 44.4277 293.068 44.3025 291.751L43.8048 291.799C43.68 290.487 43.5664 289.173 43.464 287.855L43.9625 287.816C43.8604 286.501 43.7694 285.183 43.6898 283.862L43.1907 283.892C43.1113 282.575 43.0431 281.254 42.9862 279.93L43.4858 279.909C43.4294 278.596 43.3841 277.28 43.3502 275.961L42.8503 275.974C42.8163 274.653 42.7935 273.328 42.7821 272.001L43.2821 271.997C43.2764 271.335 43.2735 270.672 43.2735 270.009C43.2735 269.345 43.2764 268.682 43.2821 268.02L42.7821 268.016C42.7935 266.689 42.8163 265.364 42.8503 264.043L43.3502 264.055C43.3841 262.737 43.4294 261.421 43.4858 260.108L42.9863 260.086C43.0431 258.763 43.1113 257.442 43.1907 256.125L43.6898 256.155C43.7695 254.834 43.8604 253.516 43.9625 252.201L43.464 252.162C43.5664 250.844 43.68 249.53 43.8048 248.218L44.3025 248.266C44.4278 246.949 44.5643 245.636 44.7119 244.326L44.2151 244.27C44.3636 242.953 44.5233 241.639 44.6942 240.329L45.19 240.394C45.3606 239.087 45.5422 237.783 45.735 236.482L45.2404 236.409C45.4347 235.098 45.6403 233.79 45.8569 232.486L46.3502 232.568C46.5668 231.264 46.7946 229.964 47.0334 228.668L46.5417 228.577C46.781 227.278 47.0314 225.983 47.2927 224.691L47.7828 224.791C48.0453 223.494 48.3188 222.201 48.6033 220.912L48.115 220.804C48.4004 219.511 48.6968 218.223 49.0041 216.938L49.4904 217.055C49.7971 215.773 50.1147 214.495 50.443 213.222L49.9589 213.097C50.29 211.813 50.6322 210.533 50.9851 209.258L51.467 209.391C51.8192 208.119 52.1822 206.851 52.5559 205.587L52.0764 205.446C52.4514 204.178 52.8371 202.915 53.2335 201.657L53.7104 201.807C54.1076 200.546 54.5157 199.289 54.9343 198.038L54.4601 197.879C54.8797 196.625 55.3098 195.375 55.7506 194.131L56.2219 194.298C56.6625 193.054 57.1136 191.814 57.5752 190.58L57.1069 190.405C57.5709 189.165 58.0454 187.93 58.5304 186.7L58.9955 186.883C59.4794 185.656 59.9736 184.434 60.4782 183.217L60.0163 183.025C60.5232 181.803 61.0405 180.586 61.5681 179.374L62.0265 179.574C62.5537 178.363 63.0912 177.158 63.6389 175.958L63.1841 175.75C63.7329 174.548 64.292 173.351 64.8611 172.16L65.3123 172.376C65.8817 171.184 66.4613 169.998 67.0509 168.818L66.6036 168.594C67.1948 167.411 67.7961 166.233 68.4073 165.061L68.8506 165.292C69.4605 164.123 70.0803 162.96 70.7099 161.803L70.2707 161.564C70.9034 160.401 71.546 159.244 72.1983 158.094L72.6333 158.34C73.2842 157.192 73.9448 156.051 74.615 154.915L74.1844 154.661C74.8566 153.522 75.5384 152.39 76.2297 151.264L76.6557 151.526C77.3467 150.401 78.0472 149.282 78.7571 148.17L78.3357 147.901C79.0472 146.787 79.7681 145.679 80.4984 144.578L80.9151 144.854C81.6444 143.754 82.3831 142.661 83.131 141.575L82.7192 141.291C83.4694 140.202 84.2289 139.119 84.9975 138.044L85.4043 138.334C86.1713 137.261 86.9473 136.195 87.7324 135.135L87.3307 134.838C88.1183 133.775 88.9149 132.72 89.7205 131.671L90.117 131.976C90.921 130.93 91.734 129.89 92.5558 128.859L92.1647 128.547C92.9883 127.513 93.8207 126.486 94.6619 125.467L95.0475 125.785C95.8876 124.767 96.7363 123.757 97.5936 122.754L97.2136 122.429C98.0728 121.424 98.9406 120.427 99.817 119.437L100.191 119.768C101.066 118.781 101.949 117.801 102.84 116.828L102.472 116.491C103.365 115.516 104.267 114.549 105.177 113.59L105.54 113.934C106.448 112.977 107.365 112.029 108.29 111.088L107.933 110.737C108.86 109.794 109.795 108.859 110.738 107.933L111.088 108.289C112.029 107.365 112.978 106.448 113.935 105.54L113.59 105.177C114.549 104.267 115.516 103.365 116.491 102.471L116.829 102.84C117.801 101.948 118.781 101.065 119.769 100.191L119.437 99.8166C120.427 98.9403 121.425 98.0724 122.43 97.2132L122.755 97.5933C123.757 96.7359 124.768 95.8872 125.786 95.0472L125.467 94.6615C126.487 93.8204 127.513 92.988 128.548 92.1644L128.859 92.5555C129.891 91.7337 130.93 90.9207 131.976 90.1166L131.672 89.7201C132.72 88.9146 133.775 88.1179 134.838 87.3304L135.136 87.7321C136.195 86.947 137.261 86.1709 138.335 85.404L138.044 84.9972C139.12 84.2285 140.202 83.4691 141.292 82.7189L141.575 83.1307C142.661 82.3828 143.755 81.6441 144.854 80.9147L144.578 80.498C145.679 79.7678 146.787 79.0468 147.901 78.3353L148.171 78.7568C149.283 78.0468 150.401 77.3463 151.526 76.6554L151.265 76.2293C152.391 75.538 153.523 74.8562 154.661 74.1841L154.916 74.6147C156.051 73.9444 157.193 73.2838 158.341 72.6329L158.094 72.198C159.245 71.5456 160.401 70.9031 161.564 70.2703L161.803 70.7095C162.96 70.0799 164.124 69.4601 165.293 68.8502L165.062 68.4069C166.233 67.7957 167.411 67.1944 168.595 66.6032L168.818 67.0505C169.998 66.4609 171.184 65.8814 172.376 65.3119L172.16 64.8607C173.352 64.2916 174.548 63.7326 175.751 63.1837L175.958 63.6385C177.158 63.0909 178.364 62.5534 179.574 62.0261L179.375 61.5677C180.586 61.0401 181.803 60.5229 183.026 60.0159L183.217 60.4778C184.434 59.9733 185.656 59.479 186.883 58.9951L186.7 58.53C187.93 58.045 189.165 57.5705 190.406 57.1065L190.581 57.5749C191.815 57.1133 193.054 56.6621 194.298 56.2215L194.131 55.7502C195.376 55.3095 196.625 54.8793 197.88 54.4597L198.038 54.9339C199.29 54.5153 200.546 54.1073 201.807 53.71L201.657 53.2331C202.915 52.8367 204.178 52.451 205.446 52.076L205.588 52.5555C206.851 52.1818 208.119 51.8188 209.392 51.4666L209.258 50.9847C210.534 50.6318 211.813 50.2897 213.098 49.9585L213.222 50.4426C214.496 50.1143 215.773 49.7967 217.055 49.49L216.939 49.0037C218.223 48.6964 219.512 48.4 220.805 48.1147L220.913 48.6029C222.201 48.3184 223.494 48.0449 224.791 47.7824L224.692 47.2923C225.983 47.031 227.278 46.7806 228.578 46.5413L228.668 47.033C229.964 46.7942 231.265 46.5664 232.569 46.3498L232.487 45.8566C233.791 45.6399 235.098 45.4343 236.41 45.24L236.483 45.7346C237.783 45.5419 239.087 45.3602 240.394 45.1897L240.33 44.6939C241.64 44.5229 242.954 44.3632 244.271 44.2147L244.327 44.7116C245.637 44.5639 246.95 44.4274 248.266 44.3022L248.219 43.8044C249.53 43.6797 250.845 43.5661 252.163 43.4637L252.201 43.9622C253.516 43.86 254.834 43.7691 256.155 43.6895L256.125 43.1904C257.443 43.111 258.763 43.0428 260.087 42.9859L260.108 43.4855C261.421 43.429 262.737 43.3838 264.056 43.3498L264.043 42.85C265.365 42.8159 266.689 42.7931 268.016 42.7817L268.02 43.2817C268.683 43.276 269.345 43.2732 270.009 43.2732C270.672 43.2732 271.335 43.276 271.998 43.2817L272.002 42.7818C273.329 42.7932 274.653 42.8159 275.975 42.85L275.962 43.3498C277.281 43.3838 278.597 43.4291 279.909 43.4855L279.931 42.9859C281.255 43.0428 282.575 43.111 283.893 43.1904L283.863 43.6895C285.184 43.7691 286.502 43.8601 287.817 43.9622L287.855 43.4637C289.173 43.5661 290.488 43.6797 291.799 43.8045L291.752 44.3022C293.068 44.4274 294.381 44.5639 295.691 44.7116L295.747 44.2147C297.064 44.3632 298.378 44.523 299.688 44.6939L299.624 45.1897C300.931 45.3602 302.235 45.5419 303.535 45.7346L303.608 45.24C304.92 45.4344 306.227 45.6399 307.531 45.8566L307.449 46.3498C308.753 46.5665 310.053 46.7943 311.35 47.0331L311.44 46.5413C312.739 46.7807 314.035 47.0311 315.326 47.2924L315.227 47.7825C316.524 48.0449 317.817 48.3185 319.105 48.603L319.213 48.1147C320.506 48.4001 321.795 48.6965 323.079 49.0038L322.963 49.4901C324.245 49.7968 325.522 50.1143 326.795 50.4427L326.92 49.9585C328.204 50.2897 329.484 50.6318 330.76 50.9848L330.626 51.4667C331.899 51.8189 333.167 52.1818 334.43 52.5555L334.572 52.0761C335.84 52.451 337.103 52.8368 338.361 53.2331L338.211 53.71C339.472 54.1073 340.728 54.5153 341.98 54.9339L342.138 54.4598C343.393 54.8793 344.642 55.3095 345.887 55.7503L345.72 56.2216C346.964 56.6622 348.203 57.1133 349.437 57.5749L349.612 57.1066C350.852 57.5706 352.088 58.0451 353.318 58.53L353.134 58.9952C354.362 59.4791 355.584 59.9733 356.8 60.4779L356.992 60.016C358.214 60.5229 359.431 61.0402 360.643 61.5677L360.443 62.0262C361.654 62.5534 362.86 63.0909 364.059 63.6386L364.267 63.1837C365.469 63.7326 366.666 64.2917 367.857 64.8608L367.642 65.3119C368.833 65.8814 370.02 66.461 371.2 67.0505L371.423 66.6032C372.607 67.1945 373.784 67.7958 374.956 68.407L374.725 68.8503C375.894 69.4602 377.057 70.08 378.214 70.7096L378.453 70.2704C379.616 70.9031 380.773 71.5457 381.924 72.198L381.677 72.633C382.825 73.2839 383.967 73.9445 385.102 74.6147L385.356 74.1841C386.495 74.8562 387.627 75.538 388.753 76.2293L388.491 76.6554C389.616 77.3464 390.735 78.0469 391.847 78.7568L392.116 78.3353C393.231 79.0468 394.339 79.7678 395.44 80.4981L395.163 80.9148C396.263 81.6441 397.356 82.3828 398.442 83.1307L398.726 82.7189C399.815 83.4691 400.898 84.2286 401.974 84.9972L401.683 85.404C402.756 86.171 403.823 86.947 404.882 87.7321L405.18 87.3304C406.242 88.118 407.298 88.9146 408.346 89.7202L408.041 90.1167C409.088 90.9207 410.127 91.7337 411.159 92.5555L411.47 92.1644C412.504 92.988 413.531 93.8204 414.55 94.6616L414.232 95.0472C415.25 95.8872 416.26 96.736 417.263 97.5933L417.588 97.2133C418.593 98.0725 419.591 98.9403 420.58 99.8166L420.249 100.191C421.237 101.066 422.217 101.948 423.189 102.84L423.527 102.471C424.501 103.365 425.468 104.267 426.427 105.177L426.083 105.54C427.04 106.448 427.989 107.365 428.93 108.289L429.28 107.933C430.223 108.859 431.158 109.794 432.085 110.737L431.728 111.088C432.653 112.029 433.569 112.978 434.478 113.934L434.84 113.59C435.75 114.549 436.652 115.516 437.546 116.491L437.178 116.828C438.069 117.801 438.952 118.781 439.826 119.768L440.201 119.437C441.077 120.427 441.945 121.424 442.804 122.429L442.424 122.754C443.281 123.757 444.13 124.768 444.97 125.785L445.356 125.467C446.197 126.486 447.029 127.513 447.853 128.547L447.462 128.859C448.284 129.89 449.097 130.93 449.901 131.976L450.297 131.671C451.103 132.72 451.899 133.775 452.687 134.838L452.285 135.135C453.07 136.195 453.846 137.261 454.613 138.334L455.02 138.044C455.789 139.119 456.548 140.202 457.298 141.291L456.887 141.575C457.635 142.661 458.373 143.754 459.103 144.854L459.519 144.578C460.25 145.679 460.971 146.787 461.682 147.901L461.261 148.17C461.97 149.282 462.671 150.401 463.362 151.526L463.788 151.264C464.479 152.39 465.161 153.522 465.833 154.661L465.403 154.915C466.073 156.051 466.734 157.192 467.384 158.34L467.819 158.094C468.472 159.244 469.114 160.401 469.747 161.564L469.308 161.803C469.937 162.96 470.557 164.123 471.167 165.293L471.61 165.061C472.222 166.233 472.823 167.411 473.414 168.594L472.967 168.818C473.556 169.998 474.136 171.184 474.705 172.376L475.157 172.16C475.726 173.351 476.285 174.548 476.834 175.751L476.379 175.958C476.926 177.158 477.464 178.363 477.991 179.574L478.45 179.375C478.977 180.586 479.494 181.803 480.001 183.026L479.54 183.217C480.044 184.434 480.538 185.656 481.022 186.883L481.487 186.7C481.972 187.93 482.447 189.165 482.911 190.405L482.442 190.581C482.904 191.815 483.355 193.054 483.796 194.298L484.267 194.131C484.708 195.375 485.138 196.625 485.558 197.879L485.083 198.038C485.502 199.289 485.91 200.546 486.307 201.807L486.784 201.657C487.181 202.915 487.566 204.178 487.941 205.446L487.462 205.588C487.836 206.851 488.199 208.119 488.551 209.391L489.033 209.258C489.386 210.533 489.728 211.813 490.059 213.097L489.575 213.222C489.903 214.495 490.221 215.773 490.527 217.055L491.014 216.939C491.321 218.223 491.617 219.512 491.903 220.804L491.414 220.912C491.699 222.201 491.972 223.494 492.235 224.791L492.725 224.692C492.986 225.983 493.237 227.278 493.476 228.577L492.984 228.668C493.223 229.964 493.451 231.264 493.668 232.568L494.161 232.486C494.377 233.79 494.583 235.098 494.777 236.409L494.283 236.483C494.475 237.783 494.657 239.087 494.828 240.394L495.323 240.33C495.494 241.64 495.654 242.954 495.803 244.271L495.306 244.327C495.453 245.636 495.59 246.95 495.715 248.266L496.213 248.219C496.338 249.53 496.451 250.844 496.554 252.162L496.055 252.201C496.157 253.516 496.248 254.834 496.328 256.155L496.827 256.125C496.906 257.442 496.975 258.763 497.031 260.087L496.532 260.108C496.588 261.421 496.634 262.737 496.667 264.056L497.167 264.043Z" stroke="url(#paint0_linear_402_5)" stroke-dasharray="4 4"/>
<path d="M453.971 270.009C453.971 371.608 371.608 453.97 270.009 453.97C168.41 453.97 86.0475 371.608 86.0475 270.009C86.0475 168.409 168.41 86.047 270.009 86.047C371.608 86.047 453.971 168.409 453.971 270.009Z" stroke="url(#paint1_linear_402_5)"/>
<path d="M411.574 264.041C411.629 265.36 411.665 266.684 411.684 268.012L411.184 268.019C411.193 268.681 411.197 269.344 411.197 270.008C411.197 270.672 411.193 271.335 411.184 271.997L411.684 272.003C411.665 273.332 411.629 274.655 411.574 275.975L411.074 275.954C411.02 277.278 410.947 278.597 410.856 279.911L411.354 279.946C411.263 281.269 411.153 282.588 411.025 283.901L410.527 283.853C410.399 285.172 410.252 286.486 410.088 287.794L410.584 287.857C410.419 289.172 410.235 290.482 410.034 291.786L409.54 291.71C409.338 293.02 409.118 294.323 408.88 295.621L409.372 295.711C409.133 297.016 408.876 298.315 408.601 299.607L408.112 299.503C407.837 300.798 407.544 302.086 407.234 303.367L407.72 303.485C407.407 304.775 407.077 306.058 406.729 307.333L406.247 307.202C405.9 308.478 405.535 309.746 405.153 311.007L405.631 311.152C405.246 312.422 404.844 313.686 404.425 314.941L403.95 314.782C403.532 316.035 403.096 317.28 402.644 318.517L403.113 318.688C402.657 319.936 402.184 321.175 401.694 322.405L401.229 322.22C400.74 323.447 400.235 324.666 399.713 325.877L400.172 326.075C399.646 327.293 399.104 328.502 398.546 329.703L398.093 329.492C397.535 330.69 396.962 331.879 396.372 333.059L396.819 333.282C396.226 334.468 395.617 335.645 394.992 336.811L394.552 336.575C393.927 337.74 393.288 338.895 392.632 340.041L393.066 340.289C392.408 341.439 391.734 342.579 391.044 343.709L390.618 343.449C389.929 344.577 389.225 345.694 388.506 346.801L388.926 347.074C388.204 348.185 387.467 349.286 386.715 350.376L386.303 350.092C385.553 351.179 384.788 352.256 384.009 353.32L384.412 353.616C383.629 354.685 382.832 355.743 382.02 356.79L381.625 356.483C380.815 357.527 379.991 358.558 379.154 359.578L379.54 359.895C378.699 360.919 377.843 361.931 376.974 362.931L376.597 362.603C375.73 363.6 374.85 364.584 373.957 365.555L374.325 365.894C373.428 366.869 372.517 367.832 371.593 368.782L371.235 368.433C370.315 369.379 369.381 370.313 368.434 371.234L368.783 371.592C367.833 372.516 366.871 373.426 365.895 374.323L365.557 373.955C364.585 374.849 363.601 375.729 362.605 376.595L362.933 376.972C361.933 377.842 360.921 378.697 359.897 379.539L359.579 379.152C358.56 379.99 357.528 380.814 356.485 381.623L356.791 382.018C355.745 382.83 354.687 383.628 353.617 384.411L353.322 384.007C352.257 384.787 351.181 385.552 350.094 386.302L350.378 386.714C349.288 387.465 348.187 388.202 347.075 388.924L346.803 388.505C345.696 389.224 344.578 389.928 343.45 390.616L343.711 391.043C342.581 391.732 341.441 392.406 340.291 393.065L340.042 392.631C338.897 393.286 337.742 393.926 336.577 394.55L336.813 394.991C335.646 395.616 334.47 396.225 333.284 396.818L333.06 396.37C331.881 396.96 330.691 397.534 329.493 398.091L329.704 398.545C328.504 399.103 327.294 399.645 326.076 400.171L325.878 399.711C324.668 400.233 323.449 400.739 322.222 401.228L322.407 401.692C321.176 402.182 319.937 402.656 318.69 403.112L318.518 402.642C317.281 403.095 316.037 403.53 314.784 403.949L314.942 404.423C313.687 404.843 312.424 405.245 311.153 405.63L311.008 405.151C309.747 405.533 308.479 405.898 307.204 406.246L307.335 406.728C306.059 407.076 304.776 407.406 303.486 407.718L303.368 407.232C302.087 407.543 300.799 407.835 299.505 408.111L299.609 408.6C298.316 408.874 297.018 409.131 295.713 409.37L295.623 408.879C294.325 409.116 293.021 409.336 291.711 409.539L291.788 410.033C290.484 410.234 289.174 410.417 287.858 410.583L287.796 410.086C286.488 410.251 285.174 410.397 283.854 410.526L283.903 411.024C282.589 411.151 281.271 411.261 279.947 411.353L279.913 410.854C278.599 410.945 277.279 411.018 275.956 411.073L275.976 411.573C274.657 411.627 273.333 411.664 272.005 411.682L271.998 411.182C271.336 411.191 270.674 411.196 270.01 411.196C269.345 411.196 268.683 411.191 268.021 411.182L268.014 411.682C266.686 411.664 265.362 411.627 264.043 411.573L264.063 411.073C262.739 411.018 261.42 410.945 260.106 410.854L260.071 411.353C258.748 411.261 257.429 411.151 256.116 411.024L256.165 410.526C254.845 410.397 253.531 410.251 252.223 410.086L252.161 410.583C250.845 410.417 249.535 410.234 248.231 410.033L248.308 409.539C246.998 409.336 245.694 409.116 244.396 408.879L244.306 409.37C243.001 409.131 241.702 408.874 240.41 408.6L240.514 408.111C239.22 407.835 237.932 407.543 236.651 407.232L236.533 407.718C235.243 407.406 233.96 407.076 232.684 406.728L232.815 406.246C231.54 405.898 230.271 405.533 229.011 405.151L228.866 405.63C227.595 405.245 226.332 404.843 225.077 404.423L225.235 403.949C223.982 403.53 222.738 403.095 221.501 402.642L221.329 403.112C220.082 402.656 218.843 402.182 217.612 401.692L217.797 401.228C216.57 400.739 215.351 400.233 214.141 399.711L213.943 400.171C212.725 399.645 211.515 399.103 210.315 398.545L210.526 398.091C209.328 397.534 208.138 396.96 206.959 396.37L206.735 396.818C205.549 396.225 204.373 395.616 203.206 394.991L203.442 394.55C202.277 393.926 201.122 393.286 199.977 392.631L199.728 393.065C198.578 392.406 197.438 391.732 196.308 391.043L196.569 390.616C195.441 389.928 194.323 389.224 193.216 388.505L192.944 388.924C191.832 388.202 190.731 387.465 189.641 386.714L189.925 386.302C188.838 385.552 187.762 384.787 186.697 384.007L186.402 384.411C185.332 383.628 184.274 382.83 183.228 382.018L183.534 381.623C182.491 380.814 181.459 379.99 180.44 379.152L180.122 379.539C179.098 378.697 178.086 377.842 177.086 376.972L177.414 376.595C176.418 375.729 175.434 374.849 174.462 373.955L174.124 374.323C173.149 373.426 172.186 372.516 171.236 371.592L171.585 371.234C170.638 370.313 169.705 369.379 168.784 368.433L168.426 368.782C167.502 367.832 166.591 366.869 165.694 365.894L166.063 365.555C165.169 364.584 164.289 363.6 163.423 362.603L163.045 362.931C162.176 361.931 161.32 360.919 160.479 359.895L160.865 359.578C160.028 358.558 159.204 357.527 158.394 356.483L157.999 356.79C157.187 355.743 156.39 354.685 155.607 353.616L156.01 353.32C155.231 352.256 154.466 351.179 153.716 350.092L153.304 350.376C152.552 349.286 151.815 348.185 151.093 347.074L151.513 346.802C150.794 345.695 150.09 344.577 149.402 343.449L148.975 343.709C148.285 342.579 147.611 341.439 146.953 340.289L147.387 340.041C146.732 338.896 146.092 337.74 145.468 336.575L145.027 336.811C144.402 335.645 143.793 334.468 143.2 333.282L143.647 333.059C143.058 331.879 142.484 330.69 141.926 329.492L141.473 329.703C140.915 328.502 140.373 327.293 139.847 326.075L140.306 325.877C139.784 324.666 139.279 323.448 138.79 322.22L138.325 322.405C137.835 321.175 137.362 319.936 136.906 318.689L137.375 318.517C136.923 317.28 136.487 316.035 136.069 314.782L135.595 314.941C135.175 313.686 134.773 312.423 134.388 311.152L134.866 311.007C134.484 309.746 134.119 308.478 133.772 307.202L133.29 307.334C132.942 306.058 132.612 304.775 132.299 303.485L132.785 303.367C132.475 302.086 132.182 300.798 131.907 299.503L131.418 299.607C131.143 298.315 130.886 297.016 130.647 295.711L131.139 295.621C130.901 294.324 130.681 293.02 130.479 291.71L129.985 291.786C129.784 290.482 129.6 289.172 129.435 287.857L129.931 287.794C129.767 286.486 129.62 285.172 129.492 283.853L128.994 283.901C128.866 282.588 128.756 281.269 128.665 279.946L129.164 279.911C129.073 278.597 128.999 277.278 128.945 275.954L128.445 275.975C128.39 274.656 128.354 273.332 128.335 272.004L128.835 271.997C128.826 271.335 128.822 270.672 128.822 270.008C128.822 269.344 128.826 268.681 128.835 268.02L128.335 268.013C128.354 266.684 128.39 265.361 128.445 264.041L128.945 264.062C128.999 262.738 129.072 261.419 129.164 260.105L128.665 260.07C128.756 258.747 128.866 257.428 128.994 256.115L129.492 256.163C129.62 254.844 129.767 253.53 129.931 252.222L129.435 252.159C129.6 250.844 129.784 249.534 129.985 248.23L130.479 248.306C130.681 246.997 130.901 245.693 131.139 244.395L130.647 244.305C130.886 243 131.143 241.701 131.418 240.409L131.907 240.513C132.182 239.218 132.475 237.93 132.785 236.649L132.299 236.532C132.612 235.242 132.942 233.959 133.29 232.683L133.772 232.814C134.119 231.539 134.484 230.27 134.866 229.009L134.388 228.864C134.773 227.594 135.175 226.331 135.594 225.075L136.069 225.234C136.487 223.981 136.923 222.736 137.375 221.499L136.906 221.328C137.362 220.081 137.835 218.842 138.325 217.611L138.79 217.796C139.279 216.569 139.784 215.35 140.306 214.14L139.847 213.941C140.373 212.723 140.915 211.514 141.473 210.313L141.926 210.524C142.484 209.326 143.058 208.137 143.647 206.957L143.2 206.734C143.793 205.548 144.402 204.372 145.027 203.205L145.468 203.441C146.092 202.276 146.732 201.121 147.387 199.975L146.953 199.727C147.611 198.577 148.285 197.437 148.975 196.307L149.402 196.567C150.09 195.439 150.794 194.322 151.513 193.215L151.093 192.942C151.815 191.831 152.552 190.73 153.304 189.64L153.716 189.924C154.466 188.837 155.231 187.761 156.01 186.696L155.607 186.4C156.39 185.331 157.187 184.273 157.999 183.226L158.394 183.533C159.204 182.489 160.028 181.458 160.865 180.438L160.479 180.121C161.321 179.097 162.176 178.085 163.045 177.085L163.423 177.413C164.289 176.417 165.169 175.432 166.063 174.461L165.695 174.122C166.591 173.147 167.502 172.184 168.426 171.235L168.784 171.583C169.705 170.637 170.638 169.703 171.585 168.783L171.236 168.424C172.186 167.5 173.149 166.59 174.124 165.693L174.462 166.061C175.434 165.167 176.418 164.287 177.414 163.421L177.086 163.044C178.086 162.174 179.098 161.319 180.122 160.478L180.44 160.864C181.459 160.026 182.491 159.202 183.534 158.393L183.228 157.998C184.274 157.186 185.332 156.388 186.402 155.605L186.697 156.009C187.762 155.229 188.838 154.464 189.925 153.714L189.642 153.303C190.731 152.551 191.832 151.814 192.944 151.092L193.216 151.511C194.323 150.792 195.441 150.088 196.569 149.4L196.308 148.973C197.438 148.284 198.578 147.61 199.728 146.952L199.977 147.385C201.122 146.73 202.277 146.09 203.443 145.466L203.206 145.025C204.373 144.4 205.549 143.791 206.735 143.199L206.959 143.646C208.139 143.056 209.328 142.482 210.526 141.925L210.315 141.472C211.515 140.913 212.725 140.371 213.943 139.846L214.141 140.305C215.351 139.783 216.57 139.277 217.798 138.788L217.613 138.324C218.843 137.834 220.082 137.361 221.329 136.904L221.501 137.374C222.738 136.921 223.982 136.486 225.235 136.067L225.077 135.593C226.332 135.174 227.595 134.771 228.866 134.386L229.011 134.865C230.272 134.483 231.54 134.118 232.815 133.77L232.684 133.288C233.96 132.941 235.243 132.61 236.533 132.298L236.651 132.784C237.932 132.474 239.22 132.181 240.514 131.905L240.41 131.416C241.703 131.142 243.001 130.885 244.306 130.646L244.396 131.137C245.694 130.9 246.998 130.68 248.308 130.478L248.231 129.983C249.535 129.782 250.845 129.599 252.161 129.434L252.223 129.93C253.531 129.765 254.845 129.619 256.165 129.49L256.116 128.993C257.43 128.865 258.748 128.755 260.072 128.663L260.106 129.162C261.42 129.071 262.74 128.998 264.064 128.943L264.043 128.443C265.362 128.389 266.686 128.352 268.014 128.334L268.021 128.834C268.683 128.825 269.346 128.82 270.01 128.82C270.674 128.82 271.337 128.825 271.998 128.834L272.005 128.334C273.334 128.352 274.657 128.389 275.976 128.443L275.956 128.943C277.28 128.998 278.599 129.071 279.913 129.162L279.948 128.663C281.271 128.755 282.59 128.865 283.903 128.993L283.854 129.49C285.174 129.619 286.488 129.765 287.796 129.93L287.858 129.434C289.174 129.599 290.484 129.782 291.788 129.983L291.712 130.478C293.021 130.68 294.325 130.9 295.623 131.138L295.713 130.646C297.018 130.885 298.317 131.142 299.609 131.416L299.505 131.906C300.799 132.181 302.087 132.474 303.369 132.784L303.486 132.298C304.776 132.61 306.059 132.941 307.335 133.288L307.204 133.77C308.479 134.118 309.748 134.483 311.008 134.865L311.153 134.386C312.424 134.771 313.687 135.174 314.942 135.593L314.784 136.067C316.037 136.486 317.282 136.921 318.518 137.374L318.69 136.904C319.937 137.361 321.176 137.834 322.407 138.324L322.222 138.788C323.449 139.277 324.668 139.783 325.878 140.305L326.076 139.846C327.295 140.371 328.504 140.913 329.704 141.472L329.493 141.925C330.692 142.482 331.881 143.056 333.06 143.646L333.284 143.199C334.47 143.791 335.646 144.4 336.813 145.025L336.577 145.466C337.742 146.09 338.897 146.73 340.042 147.386L340.291 146.952C341.441 147.61 342.581 148.284 343.711 148.973L343.45 149.4C344.578 150.088 345.696 150.792 346.803 151.511L347.075 151.092C348.187 151.814 349.288 152.551 350.378 153.303L350.094 153.714C351.181 154.464 352.257 155.229 353.322 156.009L353.617 155.605C354.687 156.388 355.745 157.186 356.791 157.998L356.485 158.393C357.528 159.202 358.56 160.026 359.579 160.864L359.897 160.478C360.921 161.319 361.933 162.174 362.933 163.044L362.605 163.421C363.601 164.287 364.585 165.167 365.557 166.061L365.895 165.693C366.871 166.59 367.833 167.5 368.783 168.424L368.434 168.783C369.381 169.703 370.315 170.637 371.235 171.583L371.593 171.235C372.517 172.184 373.428 173.147 374.325 174.122L373.957 174.461C374.85 175.432 375.73 176.417 376.597 177.413L376.974 177.085C377.843 178.085 378.699 179.097 379.54 180.121L379.154 180.438C379.991 181.458 380.815 182.489 381.625 183.533L382.02 183.226C382.832 184.273 383.629 185.331 384.412 186.4L384.009 186.696C384.788 187.761 385.553 188.837 386.303 189.924L386.715 189.64C387.467 190.73 388.204 191.831 388.926 192.942L388.506 193.215C389.225 194.322 389.929 195.439 390.617 196.567L391.044 196.307C391.734 197.437 392.408 198.577 393.066 199.727L392.632 199.975C393.288 201.121 393.927 202.276 394.552 203.441L394.992 203.205C395.617 204.372 396.226 205.548 396.819 206.734L396.372 206.957C396.962 208.137 397.535 209.326 398.093 210.524L398.546 210.313C399.104 211.514 399.646 212.723 400.172 213.941L399.713 214.139C400.235 215.35 400.74 216.569 401.229 217.796L401.694 217.611C402.184 218.841 402.657 220.08 403.113 221.328L402.644 221.499C403.096 222.736 403.532 223.981 403.95 225.234L404.425 225.075C404.844 226.33 405.246 227.594 405.631 228.864L405.153 229.009C405.535 230.27 405.9 231.538 406.247 232.814L406.729 232.683C407.077 233.958 407.407 235.241 407.72 236.531L407.234 236.649C407.544 237.93 407.837 239.218 408.112 240.513L408.601 240.409C408.876 241.701 409.133 243 409.372 244.305L408.88 244.395C409.118 245.693 409.338 246.996 409.54 248.306L410.034 248.23C410.235 249.534 410.419 250.844 410.584 252.159L410.088 252.222C410.252 253.53 410.399 254.844 410.527 256.163L411.025 256.115C411.153 257.428 411.263 258.747 411.354 260.07L410.855 260.105C410.947 261.419 411.02 262.738 411.074 264.062L411.574 264.041Z" stroke="url(#paint2_linear_402_5)" stroke-dasharray="4 4"/>
<ellipse cx="270.009" cy="270.009" rx="98.9142" ry="98.9142" fill="url(#paint3_radial_402_5)"/>
<defs>
<linearGradient id="paint0_linear_402_5" x1="133.668" y1="72.1801" x2="450.46" y2="497.244" gradientUnits="userSpaceOnUse">
<stop stop-color="#404342"/>
<stop offset="1" stop-color="#404342" stop-opacity="0"/>
</linearGradient>
<linearGradient id="paint1_linear_402_5" x1="177.778" y1="122.974" x2="402.34" y2="454.47" gradientUnits="userSpaceOnUse">
<stop stop-color="#404342"/>
<stop offset="1" stop-color="#404342" stop-opacity="0"/>
</linearGradient>
<linearGradient id="paint2_linear_402_5" x1="183.125" y1="163.074" x2="403.678" y2="399.666" gradientUnits="userSpaceOnUse">
<stop stop-color="#404342"/>
<stop offset="1" stop-color="#404342" stop-opacity="0"/>
</linearGradient>
<radialGradient id="paint3_radial_402_5" cx="0" cy="0" r="1" gradientUnits="userSpaceOnUse" gradientTransform="translate(270.009 270.009) rotate(90) scale(118.964 118.964)">
<stop stop-color="#3C3F3E"/>
<stop offset="1" stop-color="#3C3F3E" stop-opacity="0"/>
</radialGradient>
</defs>
</svg>
