<svg width="475" height="312" viewBox="0 0 475 312" fill="none" xmlns="http://www.w3.org/2000/svg">
<rect width="475" height="312" rx="13" fill="white"/>
<mask id="mask0_1_2410" style="mask-type:alpha" maskUnits="userSpaceOnUse" x="0" y="0" width="475" height="312">
<rect width="475" height="312" rx="13" fill="#F3752B"/>
</mask>
<g mask="url(#mask0_1_2410)">
<rect x="-5.45739" y="222" width="20" height="124.005" transform="rotate(46.8992 -5.45739 222)" fill="#434343" fill-opacity="0.5"/>
<rect x="26.5426" y="253" width="20" height="124.005" transform="rotate(46.8992 26.5426 253)" fill="#434343" fill-opacity="0.5"/>
<rect x="103.543" y="122" width="20" height="124.005" transform="rotate(46.8992 103.543 122)" fill="#434343" fill-opacity="0.5"/>
<rect x="210.543" y="27" width="20" height="124.005" transform="rotate(46.8992 210.543 27)" fill="#434343" fill-opacity="0.5"/>
<rect x="317.543" y="-68" width="20" height="124.005" transform="rotate(46.8992 317.543 -68)" fill="#434343" fill-opacity="0.5"/>
<rect x="133.543" y="153" width="20" height="124.005" transform="rotate(46.8992 133.543 153)" fill="#434343" fill-opacity="0.5"/>
<rect x="237.543" y="57" width="20" height="124.005" transform="rotate(46.8992 237.543 57)" fill="#434343" fill-opacity="0.5"/>
<rect x="341.543" y="-39" width="20" height="124.005" transform="rotate(46.8992 341.543 -39)" fill="#434343" fill-opacity="0.5"/>
<rect x="396.577" y="276.616" width="20" height="124.005" transform="rotate(-13.5319 396.577 276.616)" fill="#434343" fill-opacity="0.5"/>
<rect x="366.751" y="136.672" width="20" height="124.005" transform="rotate(-13.5319 366.751 136.672)" fill="#434343" fill-opacity="0.5"/>
<rect x="336.924" y="-3.27234" width="20" height="124.005" transform="rotate(-13.5319 336.924 -3.27234)" fill="#434343" fill-opacity="0.5"/>
<rect x="438.344" y="265.821" width="20" height="124.005" transform="rotate(-13.5319 438.344 265.821)" fill="#434343" fill-opacity="0.5"/>
<rect x="406.167" y="127.992" width="20" height="124.005" transform="rotate(-13.5319 406.167 127.992)" fill="#434343" fill-opacity="0.5"/>
<rect x="373.991" y="-9.83601" width="20" height="124.005" transform="rotate(-13.5319 373.991 -9.83601)" fill="#434343" fill-opacity="0.5"/>
<path d="M114.84 136.568L143.512 82.936H171.416L131.608 153.976H114.84V136.568ZM155.672 153.976H137.752L148.76 134.392H155.8L165.4 116.856H180.76V134.392H191.512V153.976H180.76V171H155.672V153.976ZM247.102 126.968C247.102 119.544 247.059 114.68 246.974 112.376C246.803 108.792 246.462 106.275 245.95 104.824C245.353 103.373 244.414 102.477 243.134 102.136C241.939 101.709 239.891 101.496 236.99 101.496C235.71 101.496 234.131 101.581 232.254 101.752V82.04C232.766 81.9547 233.534 81.912 234.558 81.912H236.99C245.95 81.912 252.862 82.68 257.726 84.216C262.59 85.6667 266.174 88.0987 268.478 91.512C270.611 94.6693 271.934 98.808 272.446 103.928C272.958 109.048 273.214 116.728 273.214 126.968C273.214 136.184 273.001 143.181 272.574 147.96C272.233 152.739 271.294 156.749 269.758 159.992C268.051 163.576 265.406 166.307 261.822 168.184C258.323 169.976 253.417 171.128 247.102 171.64V126.968ZM236.99 172.024C228.115 172.024 221.203 171.299 216.254 169.848C211.39 168.312 207.806 165.795 205.502 162.296C203.369 159.139 202.046 155.043 201.534 150.008C201.022 144.973 200.766 137.293 200.766 126.968C200.766 117.752 200.937 110.755 201.278 105.976C201.705 101.197 202.686 97.1867 204.222 93.944C205.929 90.36 208.531 87.672 212.03 85.88C215.614 84.0027 220.563 82.808 226.878 82.296V126.968C226.878 134.307 226.921 139.128 227.006 141.432C227.177 144.845 227.561 147.405 228.158 149.112C228.755 150.563 229.651 151.501 230.846 151.928C232.041 152.269 234.089 152.44 236.99 152.44H239.55C240.147 152.44 240.873 152.355 241.726 152.184V171.896C241.214 171.981 240.446 172.024 239.422 172.024H236.99ZM283.09 136.568L311.762 82.936H339.666L299.858 153.976H283.09V136.568ZM323.922 153.976H306.002L317.01 134.392H324.05L333.65 116.856H349.01V134.392H359.762V153.976H349.01V171H323.922V153.976Z" fill="#C23031"/>
<path d="M153.336 200.688H150.992V183.906H153.102L153.195 185.289C153.664 184.664 154.383 184.199 155.352 183.895C155.727 183.777 156.105 183.719 156.488 183.719C156.879 183.719 157.262 183.762 157.637 183.848C158.012 183.926 158.383 184.059 158.75 184.246C159.117 184.426 159.469 184.668 159.805 184.973C160.141 185.27 160.438 185.641 160.695 186.086C161.258 187.047 161.539 188.238 161.539 189.66C161.539 191.832 160.789 193.492 159.289 194.641C157.961 195.664 156.344 196.176 154.438 196.176H153.852C153.664 196.176 153.492 196.172 153.336 196.164V200.688ZM153.336 194.266C153.555 194.328 153.984 194.359 154.625 194.359C155.266 194.359 155.867 194.27 156.43 194.09C156.992 193.91 157.469 193.633 157.859 193.258C158.688 192.461 159.102 191.262 159.102 189.66C159.102 188.152 158.742 187.039 158.023 186.32C157.492 185.789 156.844 185.523 156.078 185.523C155.117 185.523 154.32 185.879 153.688 186.59C153.523 186.77 153.406 186.93 153.336 187.07V194.266ZM165.371 193.844C165.113 193.398 164.906 192.875 164.75 192.273C164.602 191.672 164.527 190.887 164.527 189.918C164.527 188.949 164.734 188.059 165.148 187.246C165.57 186.426 166.117 185.754 166.789 185.23C168.094 184.223 169.715 183.719 171.652 183.719C172.66 183.719 173.422 183.742 173.938 183.789C173.938 183.789 174.316 183.828 175.074 183.906V196H172.965L172.871 194.605C172.402 195.23 171.688 195.695 170.727 196C170.359 196.117 169.98 196.176 169.59 196.176C169.207 196.176 168.828 196.137 168.453 196.059C168.078 195.98 167.703 195.852 167.328 195.672C166.961 195.492 166.609 195.254 166.273 194.957C165.938 194.652 165.637 194.281 165.371 193.844ZM172.73 185.629C172.23 185.566 171.73 185.535 171.23 185.535C170.738 185.535 170.211 185.625 169.648 185.805C169.086 185.977 168.605 186.25 168.207 186.625C167.379 187.406 166.965 188.598 166.965 190.199C166.965 191.715 167.32 192.836 168.031 193.562C168.57 194.102 169.219 194.371 169.977 194.371C170.953 194.371 171.758 194.016 172.391 193.305C172.547 193.125 172.66 192.965 172.73 192.824V185.629ZM185.703 200.617C185.023 200.789 184.148 200.875 183.078 200.875C182.016 200.875 181.238 200.797 180.746 200.641V198.555C181.363 198.82 182.117 198.953 183.008 198.953C183.906 198.961 184.566 198.902 184.988 198.777C185.41 198.652 185.742 198.449 185.984 198.168C186.422 197.66 186.641 196.742 186.641 195.414V194.793C186.047 195.387 185.266 195.801 184.297 196.035C183.906 196.129 183.516 196.176 183.125 196.176C182.734 196.176 182.352 196.133 181.977 196.047C181.609 195.961 181.242 195.824 180.875 195.637C180.508 195.441 180.156 195.191 179.82 194.887C179.484 194.574 179.188 194.188 178.93 193.727C178.352 192.727 178.062 191.496 178.062 190.035C178.047 188.684 178.438 187.496 179.234 186.473C179.922 185.582 180.867 184.891 182.07 184.398C183.164 183.945 184.348 183.719 185.621 183.719C186.895 183.719 188.016 183.781 188.984 183.906V195.414C188.984 198.336 187.891 200.07 185.703 200.617ZM186.641 185.617C186.141 185.555 185.648 185.523 185.164 185.523C184.68 185.523 184.137 185.613 183.535 185.793C182.934 185.973 182.406 186.246 181.953 186.613C180.961 187.418 180.465 188.559 180.465 190.035C180.465 191.637 180.852 192.805 181.625 193.539C182.203 194.094 182.91 194.371 183.746 194.371C184.754 194.371 185.602 194.016 186.289 193.305C186.453 193.125 186.57 192.965 186.641 192.824V185.617ZM198.465 196.188C194.043 196.188 191.832 194.027 191.832 189.707C191.832 187.848 192.445 186.359 193.672 185.242C194.773 184.227 196.031 183.719 197.445 183.719C198.984 183.719 200.188 184.234 201.055 185.266C201.859 186.227 202.262 187.512 202.262 189.121V190.035H194.27C194.27 192.246 195.172 193.598 196.977 194.09C197.406 194.207 198.066 194.266 198.957 194.266C199.855 194.266 200.734 194.145 201.594 193.902V195.883C200.734 196.086 199.691 196.188 198.465 196.188ZM199.918 188.312C199.918 187.562 199.711 186.93 199.297 186.414C198.812 185.82 198.145 185.523 197.293 185.523C196.395 185.523 195.664 185.809 195.102 186.379C194.586 186.91 194.328 187.555 194.328 188.312H199.918ZM218.281 185.734C217.117 185.734 216.082 186.129 215.176 186.918V196H212.832V183.906H215L215.164 185.219C216.438 184.219 217.754 183.719 219.113 183.719C220.551 183.719 221.605 184.148 222.277 185.008C222.98 185.914 223.332 187.375 223.332 189.391V196H220.988V189.391C220.988 187.453 220.465 186.297 219.418 185.922C219.082 185.797 218.703 185.734 218.281 185.734ZM226.062 189.93C226.062 188.031 226.668 186.492 227.879 185.312C229.012 184.211 230.414 183.66 232.086 183.66C233.727 183.66 235.098 184.211 236.199 185.312C237.371 186.484 237.957 188.023 237.957 189.93C237.957 191.828 237.367 193.359 236.188 194.523C235.07 195.633 233.699 196.188 232.074 196.188C230.426 196.188 229.027 195.633 227.879 194.523C226.668 193.359 226.062 191.828 226.062 189.93ZM228.5 189.93C228.5 191.93 229.141 193.289 230.422 194.008C230.875 194.258 231.418 194.383 232.051 194.383C232.684 194.383 233.219 194.258 233.656 194.008C234.094 193.75 234.453 193.414 234.734 193C235.258 192.203 235.52 191.18 235.52 189.93C235.52 187.945 234.891 186.586 233.633 185.852C233.195 185.594 232.672 185.465 232.062 185.465C231.453 185.465 230.922 185.594 230.469 185.852C230.023 186.102 229.656 186.434 229.367 186.848C228.789 187.66 228.5 188.688 228.5 189.93ZM245.188 194.148C245.445 194.242 245.836 194.289 246.359 194.289C246.883 194.289 247.32 194.227 247.672 194.102V195.977C247.508 196.016 247.27 196.039 246.957 196.047L246.219 196.07C246.055 196.07 245.93 196.07 245.844 196.07C244.336 196.07 243.223 195.578 242.504 194.594C241.926 193.797 241.637 192.742 241.637 191.43V185.699H239.902V184.598L241.637 183.906L242.199 180.906H243.98V183.906H247.73V185.699H243.98V191.418C243.98 192.949 244.383 193.859 245.188 194.148ZM264.98 180.32C264.699 180.227 264.309 180.18 263.809 180.18C263.309 180.18 262.91 180.227 262.613 180.32C262.324 180.414 262.094 180.551 261.922 180.73C261.625 181.051 261.477 181.574 261.477 182.301V183.906H264.5V185.699H261.477V196H259.133V185.699H257.68V184.598L259.133 183.906V182.617C259.133 181.797 259.203 181.18 259.344 180.766C259.492 180.352 259.668 180.008 259.871 179.734C260.074 179.461 260.348 179.223 260.691 179.02C261.418 178.59 262.438 178.375 263.75 178.375C264.297 178.375 264.707 178.406 264.98 178.469V180.32ZM266.07 189.93C266.07 188.031 266.676 186.492 267.887 185.312C269.02 184.211 270.422 183.66 272.094 183.66C273.734 183.66 275.105 184.211 276.207 185.312C277.379 186.484 277.965 188.023 277.965 189.93C277.965 191.828 277.375 193.359 276.195 194.523C275.078 195.633 273.707 196.188 272.082 196.188C270.434 196.188 269.035 195.633 267.887 194.523C266.676 193.359 266.07 191.828 266.07 189.93ZM268.508 189.93C268.508 191.93 269.148 193.289 270.43 194.008C270.883 194.258 271.426 194.383 272.059 194.383C272.691 194.383 273.227 194.258 273.664 194.008C274.102 193.75 274.461 193.414 274.742 193C275.266 192.203 275.527 191.18 275.527 189.93C275.527 187.945 274.898 186.586 273.641 185.852C273.203 185.594 272.68 185.465 272.07 185.465C271.461 185.465 270.93 185.594 270.477 185.852C270.031 186.102 269.664 186.434 269.375 186.848C268.797 187.66 268.508 188.688 268.508 189.93ZM288.734 193.035V183.906H291.078V196H288.969L288.758 194.723C287.602 195.699 286.324 196.188 284.926 196.188C283.441 196.188 282.391 195.777 281.773 194.957C281.133 194.121 280.812 192.68 280.812 190.633V183.906H283.156V190.516C283.156 191.961 283.363 192.945 283.777 193.469C284.145 193.938 284.844 194.172 285.875 194.172C286.914 194.172 287.867 193.793 288.734 193.035ZM300.312 185.734C299.148 185.734 298.113 186.129 297.207 186.918V196H294.863V183.906H297.031L297.195 185.219C298.469 184.219 299.785 183.719 301.145 183.719C302.582 183.719 303.637 184.148 304.309 185.008C305.012 185.914 305.363 187.375 305.363 189.391V196H303.02V189.391C303.02 187.453 302.496 186.297 301.449 185.922C301.113 185.797 300.734 185.734 300.312 185.734ZM310.707 185.23C311.387 184.707 312.148 184.324 312.992 184.082C313.844 183.84 314.586 183.719 315.219 183.719C315.852 183.719 316.34 183.734 316.684 183.766V178.562H319.016V196H316.918L316.824 194.605C316.348 195.238 315.625 195.707 314.656 196.012C314.281 196.129 313.898 196.188 313.508 196.188C313.125 196.188 312.746 196.148 312.371 196.07C311.996 195.992 311.621 195.863 311.246 195.684C310.879 195.496 310.527 195.254 310.191 194.957C309.855 194.652 309.555 194.281 309.289 193.844C308.727 192.883 308.445 191.746 308.445 190.434C308.445 189.121 308.652 188.059 309.066 187.246C309.488 186.426 310.035 185.754 310.707 185.23ZM312.125 186.625C311.727 187 311.418 187.484 311.199 188.078C310.988 188.664 310.883 189.379 310.883 190.223C310.883 191.059 310.984 191.75 311.188 192.297C311.391 192.836 311.645 193.258 311.949 193.562C312.488 194.109 313.137 194.383 313.895 194.383C314.871 194.383 315.68 194.023 316.32 193.305C316.484 193.125 316.602 192.965 316.672 192.824V185.617L316.438 185.594C316.078 185.547 315.648 185.523 315.148 185.523C314.656 185.523 314.129 185.613 313.566 185.793C313.004 185.965 312.523 186.242 312.125 186.625Z" fill="#C23031"/>
<path d="M160.568 236.229C160.676 236.268 160.839 236.287 161.057 236.287C161.275 236.287 161.457 236.261 161.604 236.209V236.99C161.535 237.007 161.436 237.016 161.306 237.02L160.998 237.029C160.93 237.029 160.878 237.029 160.842 237.029C160.214 237.029 159.75 236.824 159.45 236.414C159.209 236.082 159.089 235.643 159.089 235.096V232.708H158.366V232.249L159.089 231.961L159.323 230.711H160.065V231.961H161.628V232.708H160.065V235.091C160.065 235.729 160.233 236.108 160.568 236.229ZM163.151 236.102C163.044 235.916 162.958 235.698 162.893 235.447C162.831 235.197 162.8 234.869 162.8 234.466C162.8 234.062 162.886 233.691 163.059 233.353C163.234 233.011 163.462 232.731 163.742 232.513C164.286 232.093 164.961 231.883 165.769 231.883C166.188 231.883 166.506 231.893 166.721 231.912C166.721 231.912 166.879 231.928 167.194 231.961V237H166.315L166.276 236.419C166.081 236.679 165.783 236.873 165.383 237C165.23 237.049 165.072 237.073 164.909 237.073C164.75 237.073 164.592 237.057 164.436 237.024C164.279 236.992 164.123 236.938 163.967 236.863C163.814 236.788 163.667 236.689 163.527 236.565C163.387 236.438 163.262 236.284 163.151 236.102ZM166.218 232.679C166.009 232.653 165.801 232.64 165.593 232.64C165.388 232.64 165.168 232.677 164.934 232.752C164.699 232.824 164.499 232.938 164.333 233.094C163.988 233.419 163.815 233.916 163.815 234.583C163.815 235.215 163.964 235.682 164.26 235.984C164.484 236.209 164.755 236.321 165.07 236.321C165.477 236.321 165.812 236.173 166.076 235.877C166.141 235.802 166.188 235.735 166.218 235.677V232.679ZM171.96 232.854C171.781 232.802 171.566 232.776 171.315 232.776C171.068 232.776 170.865 232.802 170.705 232.854C170.546 232.903 170.406 232.964 170.285 233.035C170.064 233.165 169.903 233.312 169.802 233.475V237H168.825V231.961H169.763L169.802 232.659C170.046 232.353 170.402 232.124 170.871 231.971C171.04 231.912 171.234 231.883 171.452 231.883C171.67 231.883 171.84 231.899 171.96 231.932V232.854ZM173.151 236.102C173.044 235.916 172.958 235.698 172.893 235.447C172.831 235.197 172.8 234.869 172.8 234.466C172.8 234.062 172.886 233.691 173.059 233.353C173.234 233.011 173.462 232.731 173.742 232.513C174.286 232.093 174.961 231.883 175.769 231.883C176.188 231.883 176.506 231.893 176.721 231.912C176.721 231.912 176.879 231.928 177.194 231.961V237H176.315L176.276 236.419C176.081 236.679 175.783 236.873 175.383 237C175.23 237.049 175.072 237.073 174.909 237.073C174.75 237.073 174.592 237.057 174.436 237.024C174.279 236.992 174.123 236.938 173.967 236.863C173.814 236.788 173.667 236.689 173.527 236.565C173.387 236.438 173.262 236.284 173.151 236.102ZM176.218 232.679C176.009 232.653 175.801 232.64 175.593 232.64C175.388 232.64 175.168 232.677 174.934 232.752C174.699 232.824 174.499 232.938 174.333 233.094C173.988 233.419 173.815 233.916 173.815 234.583C173.815 235.215 173.964 235.682 174.26 235.984C174.484 236.209 174.755 236.321 175.07 236.321C175.477 236.321 175.812 236.173 176.076 235.877C176.141 235.802 176.188 235.735 176.218 235.677V232.679ZM178.547 238.25C178.635 238.276 178.754 238.289 178.903 238.289C179.056 238.289 179.213 238.258 179.372 238.196C179.532 238.138 179.67 238.055 179.787 237.947C179.982 237.771 180.16 237.495 180.319 237.117L178.249 231.961H179.289L180.744 235.975L182.048 231.961H183.078L181.008 237.62C180.852 238.043 180.635 238.367 180.358 238.592C179.994 238.885 179.507 239.031 178.898 239.031C178.843 239.031 178.786 239.028 178.728 239.021L178.547 239.002V238.25ZM183.762 231.961H184.738V237H183.762V231.961ZM189.875 236.985C189.68 237.047 189.341 237.078 188.859 237.078C188.378 237.078 187.967 237.02 187.629 236.902C187.294 236.785 187.007 236.613 186.77 236.385C186.278 235.913 186.032 235.258 186.032 234.422C186.032 233.611 186.327 232.973 186.916 232.508C187.443 232.091 188.091 231.883 188.859 231.883C189.335 231.883 189.66 231.899 189.836 231.932V232.801C189.562 232.713 189.25 232.669 188.898 232.669C188.55 232.669 188.26 232.718 188.029 232.815C187.798 232.91 187.609 233.038 187.463 233.201C187.186 233.51 187.048 233.917 187.048 234.422C187.048 235.275 187.355 235.843 187.971 236.126C188.189 236.227 188.402 236.277 188.61 236.277C188.819 236.277 188.978 236.272 189.089 236.263C189.203 236.253 189.31 236.24 189.411 236.224C189.626 236.188 189.781 236.15 189.875 236.111V236.985ZM191.242 231.961H192.219V237H191.242V231.961ZM194.499 232.513C194.782 232.295 195.1 232.135 195.451 232.034C195.806 231.933 196.115 231.883 196.379 231.883C196.643 231.883 196.846 231.889 196.989 231.902V229.734H197.961V237H197.087L197.048 236.419C196.849 236.683 196.548 236.878 196.145 237.005C195.988 237.054 195.829 237.078 195.666 237.078C195.507 237.078 195.349 237.062 195.192 237.029C195.036 236.997 194.88 236.943 194.724 236.868C194.571 236.79 194.424 236.689 194.284 236.565C194.144 236.438 194.019 236.284 193.908 236.102C193.674 235.701 193.557 235.228 193.557 234.681C193.557 234.134 193.643 233.691 193.815 233.353C193.991 233.011 194.219 232.731 194.499 232.513ZM195.09 233.094C194.924 233.25 194.795 233.452 194.704 233.699C194.616 233.943 194.572 234.241 194.572 234.593C194.572 234.941 194.615 235.229 194.699 235.457C194.784 235.682 194.89 235.857 195.017 235.984C195.241 236.212 195.511 236.326 195.827 236.326C196.234 236.326 196.571 236.176 196.838 235.877C196.906 235.802 196.955 235.735 196.984 235.677V232.674L196.887 232.664C196.737 232.645 196.558 232.635 196.35 232.635C196.145 232.635 195.925 232.672 195.69 232.747C195.456 232.819 195.256 232.934 195.09 233.094ZM199.792 236.102C199.685 235.916 199.598 235.698 199.533 235.447C199.471 235.197 199.44 234.869 199.44 234.466C199.44 234.062 199.527 233.691 199.699 233.353C199.875 233.011 200.103 232.731 200.383 232.513C200.926 232.093 201.602 231.883 202.409 231.883C202.829 231.883 203.146 231.893 203.361 231.912C203.361 231.912 203.519 231.928 203.835 231.961V237H202.956L202.917 236.419C202.722 236.679 202.424 236.873 202.023 237C201.87 237.049 201.713 237.073 201.55 237.073C201.39 237.073 201.232 237.057 201.076 237.024C200.92 236.992 200.764 236.938 200.607 236.863C200.454 236.788 200.308 236.689 200.168 236.565C200.028 236.438 199.903 236.284 199.792 236.102ZM202.858 232.679C202.65 232.653 202.442 232.64 202.233 232.64C202.028 232.64 201.809 232.677 201.574 232.752C201.34 232.824 201.14 232.938 200.974 233.094C200.629 233.419 200.456 233.916 200.456 234.583C200.456 235.215 200.604 235.682 200.9 235.984C201.125 236.209 201.395 236.321 201.711 236.321C202.118 236.321 202.453 236.173 202.717 235.877C202.782 235.802 202.829 235.735 202.858 235.677V232.679ZM212.253 236.438C211.973 236.657 211.656 236.818 211.301 236.922C210.949 237.023 210.568 237.073 210.158 237.073C209.751 237.073 209.296 237.049 208.791 237V229.734H209.768V232.464C209.982 232.22 210.28 232.046 210.661 231.941C210.804 231.902 210.951 231.883 211.101 231.883C211.254 231.883 211.408 231.899 211.564 231.932C211.721 231.961 211.875 232.013 212.028 232.088C212.185 232.163 212.333 232.262 212.473 232.386C212.613 232.509 212.736 232.664 212.844 232.85C213.081 233.247 213.2 233.719 213.2 234.266C213.2 234.809 213.112 235.252 212.937 235.594C212.764 235.936 212.536 236.217 212.253 236.438ZM209.772 236.282C209.864 236.308 210.043 236.321 210.31 236.321C210.576 236.321 210.827 236.284 211.062 236.209C211.296 236.134 211.496 236.017 211.662 235.857C212.01 235.522 212.185 235.022 212.185 234.358C212.185 233.548 211.949 233.017 211.477 232.767C211.307 232.679 211.135 232.635 210.959 232.635C210.783 232.635 210.63 232.658 210.5 232.703C210.37 232.749 210.256 232.804 210.158 232.869C209.973 232.996 209.844 233.133 209.772 233.279V236.282ZM215.686 230.496C215.686 230.682 215.624 230.825 215.5 230.926C215.38 231.023 215.228 231.072 215.046 231.072C214.864 231.072 214.712 231.023 214.592 230.926C214.475 230.825 214.416 230.682 214.416 230.496C214.416 230.307 214.475 230.164 214.592 230.066C214.712 229.969 214.864 229.92 215.046 229.92C215.228 229.92 215.38 229.969 215.5 230.066C215.624 230.164 215.686 230.307 215.686 230.496ZM214.543 231.961H215.52V237H214.543V231.961ZM220.261 232.854C220.082 232.802 219.867 232.776 219.616 232.776C219.369 232.776 219.165 232.802 219.006 232.854C218.846 232.903 218.706 232.964 218.586 233.035C218.365 233.165 218.203 233.312 218.103 233.475V237H217.126V231.961H218.063L218.103 232.659C218.347 232.353 218.703 232.124 219.172 231.971C219.341 231.912 219.535 231.883 219.753 231.883C219.971 231.883 220.14 231.899 220.261 231.932V232.854ZM226.823 232.723C226.341 232.723 225.912 232.887 225.534 233.216V237H224.558V229.734H225.534V232.503C226.062 232.09 226.607 231.883 227.17 231.883C227.772 231.883 228.213 232.062 228.493 232.42C228.786 232.798 228.933 233.406 228.933 234.246V237H227.956V234.246C227.956 233.439 227.736 232.957 227.297 232.801C227.157 232.749 226.999 232.723 226.823 232.723ZM230.612 236.102C230.505 235.916 230.419 235.698 230.354 235.447C230.292 235.197 230.261 234.869 230.261 234.466C230.261 234.062 230.347 233.691 230.52 233.353C230.695 233.011 230.923 232.731 231.203 232.513C231.747 232.093 232.422 231.883 233.229 231.883C233.649 231.883 233.967 231.893 234.182 231.912C234.182 231.912 234.34 231.928 234.655 231.961V237H233.776L233.737 236.419C233.542 236.679 233.244 236.873 232.844 237C232.691 237.049 232.533 237.073 232.37 237.073C232.211 237.073 232.053 237.057 231.896 237.024C231.74 236.992 231.584 236.938 231.428 236.863C231.275 236.788 231.128 236.689 230.988 236.565C230.848 236.438 230.723 236.284 230.612 236.102ZM233.679 232.679C233.47 232.653 233.262 232.64 233.054 232.64C232.849 232.64 232.629 232.677 232.395 232.752C232.16 232.824 231.96 232.938 231.794 233.094C231.449 233.419 231.276 233.916 231.276 234.583C231.276 235.215 231.424 235.682 231.721 235.984C231.945 236.209 232.215 236.321 232.531 236.321C232.938 236.321 233.273 236.173 233.537 235.877C233.602 235.802 233.649 235.735 233.679 235.677V232.679ZM238.029 236.229C238.137 236.268 238.299 236.287 238.518 236.287C238.736 236.287 238.918 236.261 239.064 236.209V236.99C238.996 237.007 238.897 237.016 238.767 237.02L238.459 237.029C238.391 237.029 238.339 237.029 238.303 237.029C237.674 237.029 237.211 236.824 236.911 236.414C236.67 236.082 236.55 235.643 236.55 235.096V232.708H235.827V232.249L236.55 231.961L236.784 230.711H237.526V231.961H239.089V232.708H237.526V235.091C237.526 235.729 237.694 236.108 238.029 236.229ZM240.612 236.102C240.505 235.916 240.419 235.698 240.354 235.447C240.292 235.197 240.261 234.869 240.261 234.466C240.261 234.062 240.347 233.691 240.52 233.353C240.695 233.011 240.923 232.731 241.203 232.513C241.747 232.093 242.422 231.883 243.229 231.883C243.649 231.883 243.967 231.893 244.182 231.912C244.182 231.912 244.34 231.928 244.655 231.961V237H243.776L243.737 236.419C243.542 236.679 243.244 236.873 242.844 237C242.691 237.049 242.533 237.073 242.37 237.073C242.211 237.073 242.053 237.057 241.896 237.024C241.74 236.992 241.584 236.938 241.428 236.863C241.275 236.788 241.128 236.689 240.988 236.565C240.848 236.438 240.723 236.284 240.612 236.102ZM243.679 232.679C243.47 232.653 243.262 232.64 243.054 232.64C242.849 232.64 242.629 232.677 242.395 232.752C242.16 232.824 241.96 232.938 241.794 233.094C241.449 233.419 241.276 233.916 241.276 234.583C241.276 235.215 241.424 235.682 241.721 235.984C241.945 236.209 242.215 236.321 242.531 236.321C242.938 236.321 243.273 236.173 243.537 235.877C243.602 235.802 243.649 235.735 243.679 235.677V232.679ZM250.544 233.216L250.549 237H249.572V231.961H250.471L250.539 232.513C250.897 232.213 251.314 232.018 251.789 231.927C251.942 231.897 252.092 231.883 252.238 231.883C252.847 231.883 253.306 232.14 253.615 232.654C254.182 232.14 254.774 231.883 255.393 231.883C256.005 231.883 256.451 232.067 256.73 232.435C257.01 232.809 257.15 233.427 257.15 234.29V237H256.174V234.324C256.174 233.478 255.97 232.972 255.563 232.806C255.427 232.75 255.267 232.723 255.085 232.723C254.649 232.723 254.248 232.879 253.884 233.191V237H252.907V234.285C252.907 233.706 252.821 233.299 252.648 233.064C252.482 232.837 252.185 232.723 251.755 232.723C251.328 232.723 250.925 232.887 250.544 233.216ZM261.071 237.078C259.229 237.078 258.308 236.178 258.308 234.378C258.308 233.603 258.563 232.983 259.074 232.518C259.533 232.094 260.057 231.883 260.646 231.883C261.288 231.883 261.789 232.098 262.15 232.527C262.486 232.928 262.653 233.463 262.653 234.134V234.515H259.323C259.323 235.436 259.699 235.999 260.451 236.204C260.63 236.253 260.905 236.277 261.276 236.277C261.651 236.277 262.017 236.227 262.375 236.126V236.951C262.017 237.036 261.582 237.078 261.071 237.078ZM261.677 233.797C261.677 233.484 261.59 233.221 261.418 233.006C261.216 232.758 260.938 232.635 260.583 232.635C260.209 232.635 259.904 232.754 259.67 232.991C259.455 233.213 259.348 233.481 259.348 233.797H261.677ZM263.518 238.25C263.605 238.276 263.724 238.289 263.874 238.289C264.027 238.289 264.183 238.258 264.343 238.196C264.502 238.138 264.641 238.055 264.758 237.947C264.953 237.771 265.131 237.495 265.29 237.117L263.22 231.961H264.26L265.715 235.975L267.019 231.961H268.049L265.979 237.62C265.822 238.043 265.606 238.367 265.329 238.592C264.965 238.885 264.478 239.031 263.869 239.031C263.814 239.031 263.757 239.028 263.698 239.021L263.518 239.002V238.25ZM269.499 232.513C269.782 232.295 270.1 232.135 270.451 232.034C270.806 231.933 271.115 231.883 271.379 231.883C271.643 231.883 271.846 231.889 271.989 231.902V229.734H272.961V237H272.087L272.048 236.419C271.849 236.683 271.548 236.878 271.145 237.005C270.988 237.054 270.829 237.078 270.666 237.078C270.507 237.078 270.349 237.062 270.192 237.029C270.036 236.997 269.88 236.943 269.724 236.868C269.571 236.79 269.424 236.689 269.284 236.565C269.144 236.438 269.019 236.284 268.908 236.102C268.674 235.701 268.557 235.228 268.557 234.681C268.557 234.134 268.643 233.691 268.815 233.353C268.991 233.011 269.219 232.731 269.499 232.513ZM270.09 233.094C269.924 233.25 269.795 233.452 269.704 233.699C269.616 233.943 269.572 234.241 269.572 234.593C269.572 234.941 269.615 235.229 269.699 235.457C269.784 235.682 269.89 235.857 270.017 235.984C270.241 236.212 270.511 236.326 270.827 236.326C271.234 236.326 271.571 236.176 271.838 235.877C271.906 235.802 271.955 235.735 271.984 235.677V232.674L271.887 232.664C271.737 232.645 271.558 232.635 271.35 232.635C271.145 232.635 270.925 232.672 270.69 232.747C270.456 232.819 270.256 232.934 270.09 233.094ZM274.792 236.102C274.685 235.916 274.598 235.698 274.533 235.447C274.471 235.197 274.44 234.869 274.44 234.466C274.44 234.062 274.527 233.691 274.699 233.353C274.875 233.011 275.103 232.731 275.383 232.513C275.926 232.093 276.602 231.883 277.409 231.883C277.829 231.883 278.146 231.893 278.361 231.912C278.361 231.912 278.519 231.928 278.835 231.961V237H277.956L277.917 236.419C277.722 236.679 277.424 236.873 277.023 237C276.87 237.049 276.713 237.073 276.55 237.073C276.39 237.073 276.232 237.057 276.076 237.024C275.92 236.992 275.764 236.938 275.607 236.863C275.454 236.788 275.308 236.689 275.168 236.565C275.028 236.438 274.903 236.284 274.792 236.102ZM277.858 232.679C277.65 232.653 277.442 232.64 277.233 232.64C277.028 232.64 276.809 232.677 276.574 232.752C276.34 232.824 276.14 232.938 275.974 233.094C275.629 233.419 275.456 233.916 275.456 234.583C275.456 235.215 275.604 235.682 275.9 235.984C276.125 236.209 276.395 236.321 276.711 236.321C277.118 236.321 277.453 236.173 277.717 235.877C277.782 235.802 277.829 235.735 277.858 235.677V232.679ZM282.668 232.723C282.183 232.723 281.752 232.887 281.374 233.216V237H280.397V231.961H281.301L281.369 232.508C281.9 232.091 282.448 231.883 283.015 231.883C283.614 231.883 284.053 232.062 284.333 232.42C284.626 232.798 284.772 233.406 284.772 234.246V237H283.796V234.246C283.796 233.439 283.578 232.957 283.142 232.801C283.002 232.749 282.844 232.723 282.668 232.723ZM286.462 236.102C286.354 235.916 286.268 235.698 286.203 235.447C286.141 235.197 286.11 234.869 286.11 234.466C286.11 234.062 286.197 233.691 286.369 233.353C286.545 233.011 286.773 232.731 287.053 232.513C287.596 232.093 288.272 231.883 289.079 231.883C289.499 231.883 289.816 231.893 290.031 231.912C290.031 231.912 290.189 231.928 290.505 231.961V237H289.626L289.587 236.419C289.392 236.679 289.094 236.873 288.693 237C288.54 237.049 288.382 237.073 288.22 237.073C288.06 237.073 287.902 237.057 287.746 237.024C287.59 236.992 287.434 236.938 287.277 236.863C287.124 236.788 286.978 236.689 286.838 236.565C286.698 236.438 286.573 236.284 286.462 236.102ZM289.528 232.679C289.32 232.653 289.112 232.64 288.903 232.64C288.698 232.64 288.479 232.677 288.244 232.752C288.01 232.824 287.81 232.938 287.644 233.094C287.299 233.419 287.126 233.916 287.126 234.583C287.126 235.215 287.274 235.682 287.57 235.984C287.795 236.209 288.065 236.321 288.381 236.321C288.788 236.321 289.123 236.173 289.387 235.877C289.452 235.802 289.499 235.735 289.528 235.677V232.679ZM298.264 238.924C297.98 238.995 297.616 239.031 297.17 239.031C296.727 239.031 296.403 238.999 296.198 238.934V238.064C296.455 238.175 296.77 238.23 297.141 238.23C297.515 238.234 297.79 238.209 297.966 238.157C298.142 238.105 298.28 238.021 298.381 237.903C298.563 237.692 298.654 237.309 298.654 236.756V236.497C298.407 236.744 298.081 236.917 297.678 237.015C297.515 237.054 297.352 237.073 297.189 237.073C297.027 237.073 296.867 237.055 296.711 237.02C296.558 236.984 296.405 236.927 296.252 236.849C296.099 236.767 295.952 236.663 295.812 236.536C295.673 236.406 295.549 236.245 295.441 236.053C295.201 235.636 295.08 235.123 295.08 234.515C295.074 233.951 295.236 233.457 295.568 233.03C295.855 232.659 296.249 232.371 296.75 232.166C297.206 231.977 297.699 231.883 298.229 231.883C298.76 231.883 299.227 231.909 299.631 231.961V236.756C299.631 237.973 299.175 238.696 298.264 238.924ZM298.654 232.674C298.446 232.648 298.241 232.635 298.039 232.635C297.837 232.635 297.611 232.672 297.36 232.747C297.11 232.822 296.89 232.936 296.701 233.089C296.288 233.424 296.081 233.899 296.081 234.515C296.081 235.182 296.242 235.669 296.564 235.975C296.805 236.206 297.1 236.321 297.448 236.321C297.868 236.321 298.221 236.173 298.508 235.877C298.576 235.802 298.625 235.735 298.654 235.677V232.674ZM303.581 237.078C301.739 237.078 300.817 236.178 300.817 234.378C300.817 233.603 301.073 232.983 301.584 232.518C302.043 232.094 302.567 231.883 303.156 231.883C303.798 231.883 304.299 232.098 304.66 232.527C304.995 232.928 305.163 233.463 305.163 234.134V234.515H301.833C301.833 235.436 302.209 235.999 302.961 236.204C303.14 236.253 303.415 236.277 303.786 236.277C304.16 236.277 304.527 236.227 304.885 236.126V236.951C304.527 237.036 304.092 237.078 303.581 237.078ZM304.187 233.797C304.187 233.484 304.1 233.221 303.928 233.006C303.726 232.758 303.448 232.635 303.093 232.635C302.718 232.635 302.414 232.754 302.18 232.991C301.965 233.213 301.857 233.481 301.857 233.797H304.187ZM306.447 229.734H307.424V235.091C307.424 235.735 307.57 236.115 307.863 236.229C307.961 236.268 308.065 236.287 308.176 236.287C308.286 236.287 308.386 236.274 308.474 236.248V237L308.293 237.02C308.234 237.026 308.177 237.029 308.122 237.029C307.497 237.029 307.046 236.824 306.77 236.414C306.555 236.092 306.447 235.652 306.447 235.096V229.734ZM310.339 232.513C310.622 232.295 310.939 232.135 311.291 232.034C311.646 231.933 311.955 231.883 312.219 231.883C312.482 231.883 312.686 231.889 312.829 231.902V229.734H313.801V237H312.927L312.888 236.419C312.689 236.683 312.388 236.878 311.984 237.005C311.828 237.054 311.669 237.078 311.506 237.078C311.346 237.078 311.188 237.062 311.032 237.029C310.876 236.997 310.72 236.943 310.563 236.868C310.41 236.79 310.264 236.689 310.124 236.565C309.984 236.438 309.859 236.284 309.748 236.102C309.514 235.701 309.396 235.228 309.396 234.681C309.396 234.134 309.483 233.691 309.655 233.353C309.831 233.011 310.059 232.731 310.339 232.513ZM310.93 233.094C310.764 233.25 310.635 233.452 310.544 233.699C310.456 233.943 310.412 234.241 310.412 234.593C310.412 234.941 310.454 235.229 310.539 235.457C310.624 235.682 310.729 235.857 310.856 235.984C311.081 236.212 311.351 236.326 311.667 236.326C312.074 236.326 312.411 236.176 312.678 235.877C312.746 235.802 312.795 235.735 312.824 235.677V232.674L312.727 232.664C312.577 232.645 312.398 232.635 312.189 232.635C311.984 232.635 311.765 232.672 311.53 232.747C311.296 232.819 311.096 232.934 310.93 233.094ZM316.545 230.496C316.545 230.682 316.483 230.825 316.359 230.926C316.239 231.023 316.088 231.072 315.905 231.072C315.723 231.072 315.572 231.023 315.451 230.926C315.334 230.825 315.275 230.682 315.275 230.496C315.275 230.307 315.334 230.164 315.451 230.066C315.572 229.969 315.723 229.92 315.905 229.92C316.088 229.92 316.239 229.969 316.359 230.066C316.483 230.164 316.545 230.307 316.545 230.496ZM315.402 231.961H316.379V237H315.402V231.961Z" fill="#C23031"/>
<path d="M323.448 94.0625V76.25C323.448 75.7325 323.196 74.375 322.673 74.375C322.149 74.375 321.552 74.795 321.552 75.3125V94.0625C321.552 94.58 322.147 95 322.673 95C323.198 95 323.448 94.58 323.448 94.0625ZM323.621 37.9288V35.9375C323.621 35.6889 323.521 35.4504 323.343 35.2746C323.165 35.0988 322.924 35 322.673 35C322.421 35 322.18 35.0988 322.002 35.2746C321.824 35.4504 321.724 35.6889 321.724 35.9375V37.9288C321.724 38.1774 321.824 38.4158 322.002 38.5917C322.18 38.7675 322.421 38.8663 322.673 38.8663C322.924 38.8663 323.165 38.7675 323.343 38.5917C323.521 38.4158 323.621 38.1774 323.621 37.9288ZM302.378 41.5081L295.613 46.7544C295.421 46.9289 295.267 47.1407 295.162 47.3766C295.056 47.6124 295.001 47.8672 295 48.125C295 48.6406 295.224 49.1412 295.671 49.5462L302.319 54.6931C302.901 55.2238 303.938 55.625 304.733 55.625H330.959C332.045 55.625 332.931 54.7569 332.931 53.6881V42.5619C332.931 41.4931 332.045 40.625 330.959 40.625H304.733C303.938 40.625 302.901 41.0262 302.378 41.5081ZM331.034 53.6881C331.034 53.7162 331 53.75 330.959 53.75H304.733C304.411 53.75 303.84 53.5306 303.548 53.2662L296.842 48.1794L303.605 42.9331C303.842 42.7194 304.411 42.5 304.733 42.5L331.034 42.5619V53.6881ZM342.681 58.4319C342.099 57.9012 341.062 57.5 340.267 57.5H314.041C312.955 57.5 312.069 58.3681 312.069 59.4369V70.565C312.069 71.6319 312.955 72.5 314.041 72.5H340.267C341.062 72.5 342.099 72.0987 342.624 71.6169L349.387 66.3706C349.579 66.1961 349.733 65.9843 349.838 65.7484C349.944 65.5126 349.999 65.2578 350 65C349.996 64.7296 349.934 64.4632 349.818 64.2182C349.703 63.9732 349.536 63.7553 349.329 63.5787L342.681 58.4319ZM313.966 59.375H340.267C340.589 59.375 341.16 59.5944 341.452 59.8588L348.158 64.9456L341.395 70.1919C341.069 70.4404 340.677 70.5907 340.267 70.625H313.966V59.375Z" fill="#C23031"/>
</g>
</svg>
