<svg width="475" height="312" viewBox="0 0 475 312" fill="none" xmlns="http://www.w3.org/2000/svg">
<rect width="475" height="312" rx="13" fill="white"/>
<mask id="mask0_1_2410" style="mask-type:alpha" maskUnits="userSpaceOnUse" x="0" y="0" width="475" height="312">
<rect width="475" height="312" rx="13" fill="#F3752B"/>
</mask>
<g mask="url(#mask0_1_2410)">
<rect x="-5.45739" y="222" width="20" height="124.005" transform="rotate(46.8992 -5.45739 222)" fill="#434343" fill-opacity="0.5"/>
<rect x="26.5426" y="253" width="20" height="124.005" transform="rotate(46.8992 26.5426 253)" fill="#434343" fill-opacity="0.5"/>
<rect x="103.543" y="122" width="20" height="124.005" transform="rotate(46.8992 103.543 122)" fill="#434343" fill-opacity="0.5"/>
<rect x="210.543" y="27" width="20" height="124.005" transform="rotate(46.8992 210.543 27)" fill="#434343" fill-opacity="0.5"/>
<rect x="317.543" y="-68" width="20" height="124.005" transform="rotate(46.8992 317.543 -68)" fill="#434343" fill-opacity="0.5"/>
<rect x="133.543" y="153" width="20" height="124.005" transform="rotate(46.8992 133.543 153)" fill="#434343" fill-opacity="0.5"/>
<rect x="237.543" y="57" width="20" height="124.005" transform="rotate(46.8992 237.543 57)" fill="#434343" fill-opacity="0.5"/>
<rect x="341.543" y="-39" width="20" height="124.005" transform="rotate(46.8992 341.543 -39)" fill="#434343" fill-opacity="0.5"/>
<rect x="396.577" y="276.616" width="20" height="124.005" transform="rotate(-13.5319 396.577 276.616)" fill="#434343" fill-opacity="0.5"/>
<rect x="366.751" y="136.672" width="20" height="124.005" transform="rotate(-13.5319 366.751 136.672)" fill="#434343" fill-opacity="0.5"/>
<rect x="336.924" y="-3.27234" width="20" height="124.005" transform="rotate(-13.5319 336.924 -3.27234)" fill="#434343" fill-opacity="0.5"/>
<rect x="438.344" y="265.821" width="20" height="124.005" transform="rotate(-13.5319 438.344 265.821)" fill="#434343" fill-opacity="0.5"/>
<rect x="406.167" y="127.992" width="20" height="124.005" transform="rotate(-13.5319 406.167 127.992)" fill="#434343" fill-opacity="0.5"/>
<rect x="373.991" y="-9.83601" width="20" height="124.005" transform="rotate(-13.5319 373.991 -9.83601)" fill="#434343" fill-opacity="0.5"/>
<path d="M114.84 179.568L143.512 125.936H171.416L131.608 196.976H114.84V179.568ZM155.672 196.976H137.752L148.76 177.392H155.8L165.4 159.856H180.76V177.392H191.512V196.976H180.76V214H155.672V196.976ZM247.102 169.968C247.102 162.544 247.059 157.68 246.974 155.376C246.803 151.792 246.462 149.275 245.95 147.824C245.353 146.373 244.414 145.477 243.134 145.136C241.939 144.709 239.891 144.496 236.99 144.496C235.71 144.496 234.131 144.581 232.254 144.752V125.04C232.766 124.955 233.534 124.912 234.558 124.912H236.99C245.95 124.912 252.862 125.68 257.726 127.216C262.59 128.667 266.174 131.099 268.478 134.512C270.611 137.669 271.934 141.808 272.446 146.928C272.958 152.048 273.214 159.728 273.214 169.968C273.214 179.184 273.001 186.181 272.574 190.96C272.233 195.739 271.294 199.749 269.758 202.992C268.051 206.576 265.406 209.307 261.822 211.184C258.323 212.976 253.417 214.128 247.102 214.64V169.968ZM236.99 215.024C228.115 215.024 221.203 214.299 216.254 212.848C211.39 211.312 207.806 208.795 205.502 205.296C203.369 202.139 202.046 198.043 201.534 193.008C201.022 187.973 200.766 180.293 200.766 169.968C200.766 160.752 200.937 153.755 201.278 148.976C201.705 144.197 202.686 140.187 204.222 136.944C205.929 133.36 208.531 130.672 212.03 128.88C215.614 127.003 220.563 125.808 226.878 125.296V169.968C226.878 177.307 226.921 182.128 227.006 184.432C227.177 187.845 227.561 190.405 228.158 192.112C228.755 193.563 229.651 194.501 230.846 194.928C232.041 195.269 234.089 195.44 236.99 195.44H239.55C240.147 195.44 240.873 195.355 241.726 195.184V214.896C241.214 214.981 240.446 215.024 239.422 215.024H236.99ZM283.09 179.568L311.762 125.936H339.666L299.858 196.976H283.09V179.568ZM323.922 196.976H306.002L317.01 177.392H324.05L333.65 159.856H349.01V177.392H359.762V196.976H349.01V214H323.922V196.976Z" fill="#C23031"/>
<path d="M153.336 243.688H150.992V226.906H153.102L153.195 228.289C153.664 227.664 154.383 227.199 155.352 226.895C155.727 226.777 156.105 226.719 156.488 226.719C156.879 226.719 157.262 226.762 157.637 226.848C158.012 226.926 158.383 227.059 158.75 227.246C159.117 227.426 159.469 227.668 159.805 227.973C160.141 228.27 160.438 228.641 160.695 229.086C161.258 230.047 161.539 231.238 161.539 232.66C161.539 234.832 160.789 236.492 159.289 237.641C157.961 238.664 156.344 239.176 154.438 239.176H153.852C153.664 239.176 153.492 239.172 153.336 239.164V243.688ZM153.336 237.266C153.555 237.328 153.984 237.359 154.625 237.359C155.266 237.359 155.867 237.27 156.43 237.09C156.992 236.91 157.469 236.633 157.859 236.258C158.688 235.461 159.102 234.262 159.102 232.66C159.102 231.152 158.742 230.039 158.023 229.32C157.492 228.789 156.844 228.523 156.078 228.523C155.117 228.523 154.32 228.879 153.688 229.59C153.523 229.77 153.406 229.93 153.336 230.07V237.266ZM165.371 236.844C165.113 236.398 164.906 235.875 164.75 235.273C164.602 234.672 164.527 233.887 164.527 232.918C164.527 231.949 164.734 231.059 165.148 230.246C165.57 229.426 166.117 228.754 166.789 228.23C168.094 227.223 169.715 226.719 171.652 226.719C172.66 226.719 173.422 226.742 173.938 226.789C173.938 226.789 174.316 226.828 175.074 226.906V239H172.965L172.871 237.605C172.402 238.23 171.688 238.695 170.727 239C170.359 239.117 169.98 239.176 169.59 239.176C169.207 239.176 168.828 239.137 168.453 239.059C168.078 238.98 167.703 238.852 167.328 238.672C166.961 238.492 166.609 238.254 166.273 237.957C165.938 237.652 165.637 237.281 165.371 236.844ZM172.73 228.629C172.23 228.566 171.73 228.535 171.23 228.535C170.738 228.535 170.211 228.625 169.648 228.805C169.086 228.977 168.605 229.25 168.207 229.625C167.379 230.406 166.965 231.598 166.965 233.199C166.965 234.715 167.32 235.836 168.031 236.562C168.57 237.102 169.219 237.371 169.977 237.371C170.953 237.371 171.758 237.016 172.391 236.305C172.547 236.125 172.66 235.965 172.73 235.824V228.629ZM185.703 243.617C185.023 243.789 184.148 243.875 183.078 243.875C182.016 243.875 181.238 243.797 180.746 243.641V241.555C181.363 241.82 182.117 241.953 183.008 241.953C183.906 241.961 184.566 241.902 184.988 241.777C185.41 241.652 185.742 241.449 185.984 241.168C186.422 240.66 186.641 239.742 186.641 238.414V237.793C186.047 238.387 185.266 238.801 184.297 239.035C183.906 239.129 183.516 239.176 183.125 239.176C182.734 239.176 182.352 239.133 181.977 239.047C181.609 238.961 181.242 238.824 180.875 238.637C180.508 238.441 180.156 238.191 179.82 237.887C179.484 237.574 179.188 237.188 178.93 236.727C178.352 235.727 178.062 234.496 178.062 233.035C178.047 231.684 178.438 230.496 179.234 229.473C179.922 228.582 180.867 227.891 182.07 227.398C183.164 226.945 184.348 226.719 185.621 226.719C186.895 226.719 188.016 226.781 188.984 226.906V238.414C188.984 241.336 187.891 243.07 185.703 243.617ZM186.641 228.617C186.141 228.555 185.648 228.523 185.164 228.523C184.68 228.523 184.137 228.613 183.535 228.793C182.934 228.973 182.406 229.246 181.953 229.613C180.961 230.418 180.465 231.559 180.465 233.035C180.465 234.637 180.852 235.805 181.625 236.539C182.203 237.094 182.91 237.371 183.746 237.371C184.754 237.371 185.602 237.016 186.289 236.305C186.453 236.125 186.57 235.965 186.641 235.824V228.617ZM198.465 239.188C194.043 239.188 191.832 237.027 191.832 232.707C191.832 230.848 192.445 229.359 193.672 228.242C194.773 227.227 196.031 226.719 197.445 226.719C198.984 226.719 200.188 227.234 201.055 228.266C201.859 229.227 202.262 230.512 202.262 232.121V233.035H194.27C194.27 235.246 195.172 236.598 196.977 237.09C197.406 237.207 198.066 237.266 198.957 237.266C199.855 237.266 200.734 237.145 201.594 236.902V238.883C200.734 239.086 199.691 239.188 198.465 239.188ZM199.918 231.312C199.918 230.562 199.711 229.93 199.297 229.414C198.812 228.82 198.145 228.523 197.293 228.523C196.395 228.523 195.664 228.809 195.102 229.379C194.586 229.91 194.328 230.555 194.328 231.312H199.918ZM218.281 228.734C217.117 228.734 216.082 229.129 215.176 229.918V239H212.832V226.906H215L215.164 228.219C216.438 227.219 217.754 226.719 219.113 226.719C220.551 226.719 221.605 227.148 222.277 228.008C222.98 228.914 223.332 230.375 223.332 232.391V239H220.988V232.391C220.988 230.453 220.465 229.297 219.418 228.922C219.082 228.797 218.703 228.734 218.281 228.734ZM226.062 232.93C226.062 231.031 226.668 229.492 227.879 228.312C229.012 227.211 230.414 226.66 232.086 226.66C233.727 226.66 235.098 227.211 236.199 228.312C237.371 229.484 237.957 231.023 237.957 232.93C237.957 234.828 237.367 236.359 236.188 237.523C235.07 238.633 233.699 239.188 232.074 239.188C230.426 239.188 229.027 238.633 227.879 237.523C226.668 236.359 226.062 234.828 226.062 232.93ZM228.5 232.93C228.5 234.93 229.141 236.289 230.422 237.008C230.875 237.258 231.418 237.383 232.051 237.383C232.684 237.383 233.219 237.258 233.656 237.008C234.094 236.75 234.453 236.414 234.734 236C235.258 235.203 235.52 234.18 235.52 232.93C235.52 230.945 234.891 229.586 233.633 228.852C233.195 228.594 232.672 228.465 232.062 228.465C231.453 228.465 230.922 228.594 230.469 228.852C230.023 229.102 229.656 229.434 229.367 229.848C228.789 230.66 228.5 231.688 228.5 232.93ZM245.188 237.148C245.445 237.242 245.836 237.289 246.359 237.289C246.883 237.289 247.32 237.227 247.672 237.102V238.977C247.508 239.016 247.27 239.039 246.957 239.047L246.219 239.07C246.055 239.07 245.93 239.07 245.844 239.07C244.336 239.07 243.223 238.578 242.504 237.594C241.926 236.797 241.637 235.742 241.637 234.43V228.699H239.902V227.598L241.637 226.906L242.199 223.906H243.98V226.906H247.73V228.699H243.98V234.418C243.98 235.949 244.383 236.859 245.188 237.148ZM264.98 223.32C264.699 223.227 264.309 223.18 263.809 223.18C263.309 223.18 262.91 223.227 262.613 223.32C262.324 223.414 262.094 223.551 261.922 223.73C261.625 224.051 261.477 224.574 261.477 225.301V226.906H264.5V228.699H261.477V239H259.133V228.699H257.68V227.598L259.133 226.906V225.617C259.133 224.797 259.203 224.18 259.344 223.766C259.492 223.352 259.668 223.008 259.871 222.734C260.074 222.461 260.348 222.223 260.691 222.02C261.418 221.59 262.438 221.375 263.75 221.375C264.297 221.375 264.707 221.406 264.98 221.469V223.32ZM266.07 232.93C266.07 231.031 266.676 229.492 267.887 228.312C269.02 227.211 270.422 226.66 272.094 226.66C273.734 226.66 275.105 227.211 276.207 228.312C277.379 229.484 277.965 231.023 277.965 232.93C277.965 234.828 277.375 236.359 276.195 237.523C275.078 238.633 273.707 239.188 272.082 239.188C270.434 239.188 269.035 238.633 267.887 237.523C266.676 236.359 266.07 234.828 266.07 232.93ZM268.508 232.93C268.508 234.93 269.148 236.289 270.43 237.008C270.883 237.258 271.426 237.383 272.059 237.383C272.691 237.383 273.227 237.258 273.664 237.008C274.102 236.75 274.461 236.414 274.742 236C275.266 235.203 275.527 234.18 275.527 232.93C275.527 230.945 274.898 229.586 273.641 228.852C273.203 228.594 272.68 228.465 272.07 228.465C271.461 228.465 270.93 228.594 270.477 228.852C270.031 229.102 269.664 229.434 269.375 229.848C268.797 230.66 268.508 231.688 268.508 232.93ZM288.734 236.035V226.906H291.078V239H288.969L288.758 237.723C287.602 238.699 286.324 239.188 284.926 239.188C283.441 239.188 282.391 238.777 281.773 237.957C281.133 237.121 280.812 235.68 280.812 233.633V226.906H283.156V233.516C283.156 234.961 283.363 235.945 283.777 236.469C284.145 236.938 284.844 237.172 285.875 237.172C286.914 237.172 287.867 236.793 288.734 236.035ZM300.312 228.734C299.148 228.734 298.113 229.129 297.207 229.918V239H294.863V226.906H297.031L297.195 228.219C298.469 227.219 299.785 226.719 301.145 226.719C302.582 226.719 303.637 227.148 304.309 228.008C305.012 228.914 305.363 230.375 305.363 232.391V239H303.02V232.391C303.02 230.453 302.496 229.297 301.449 228.922C301.113 228.797 300.734 228.734 300.312 228.734ZM310.707 228.23C311.387 227.707 312.148 227.324 312.992 227.082C313.844 226.84 314.586 226.719 315.219 226.719C315.852 226.719 316.34 226.734 316.684 226.766V221.562H319.016V239H316.918L316.824 237.605C316.348 238.238 315.625 238.707 314.656 239.012C314.281 239.129 313.898 239.188 313.508 239.188C313.125 239.188 312.746 239.148 312.371 239.07C311.996 238.992 311.621 238.863 311.246 238.684C310.879 238.496 310.527 238.254 310.191 237.957C309.855 237.652 309.555 237.281 309.289 236.844C308.727 235.883 308.445 234.746 308.445 233.434C308.445 232.121 308.652 231.059 309.066 230.246C309.488 229.426 310.035 228.754 310.707 228.23ZM312.125 229.625C311.727 230 311.418 230.484 311.199 231.078C310.988 231.664 310.883 232.379 310.883 233.223C310.883 234.059 310.984 234.75 311.188 235.297C311.391 235.836 311.645 236.258 311.949 236.562C312.488 237.109 313.137 237.383 313.895 237.383C314.871 237.383 315.68 237.023 316.32 236.305C316.484 236.125 316.602 235.965 316.672 235.824V228.617L316.438 228.594C316.078 228.547 315.648 228.523 315.148 228.523C314.656 228.523 314.129 228.613 313.566 228.793C313.004 228.965 312.523 229.242 312.125 229.625Z" fill="#C23031"/>
<path d="M323.448 136.062V118.25C323.448 117.732 323.196 116.375 322.673 116.375C322.149 116.375 321.552 116.795 321.552 117.312V136.062C321.552 136.58 322.147 137 322.673 137C323.198 137 323.448 136.58 323.448 136.062ZM323.621 79.9288V77.9375C323.621 77.6889 323.521 77.4504 323.343 77.2746C323.165 77.0988 322.924 77 322.673 77C322.421 77 322.18 77.0988 322.002 77.2746C321.824 77.4504 321.724 77.6889 321.724 77.9375V79.9288C321.724 80.1774 321.824 80.4158 322.002 80.5917C322.18 80.7675 322.421 80.8663 322.673 80.8663C322.924 80.8663 323.165 80.7675 323.343 80.5917C323.521 80.4158 323.621 80.1774 323.621 79.9288ZM302.378 83.5081L295.613 88.7544C295.421 88.9289 295.267 89.1407 295.162 89.3766C295.056 89.6124 295.001 89.8672 295 90.125C295 90.6406 295.224 91.1412 295.671 91.5462L302.319 96.6931C302.901 97.2238 303.938 97.625 304.733 97.625H330.959C332.045 97.625 332.931 96.7569 332.931 95.6881V84.5619C332.931 83.4931 332.045 82.625 330.959 82.625H304.733C303.938 82.625 302.901 83.0262 302.378 83.5081ZM331.034 95.6881C331.034 95.7162 331 95.75 330.959 95.75H304.733C304.411 95.75 303.84 95.5306 303.548 95.2662L296.842 90.1794L303.605 84.9331C303.842 84.7194 304.411 84.5 304.733 84.5L331.034 84.5619V95.6881ZM342.681 100.432C342.099 99.9012 341.062 99.5 340.267 99.5H314.041C312.955 99.5 312.069 100.368 312.069 101.437V112.565C312.069 113.632 312.955 114.5 314.041 114.5H340.267C341.062 114.5 342.099 114.099 342.624 113.617L349.387 108.371C349.579 108.196 349.733 107.984 349.838 107.748C349.944 107.513 349.999 107.258 350 107C349.996 106.73 349.934 106.463 349.818 106.218C349.703 105.973 349.536 105.755 349.329 105.579L342.681 100.432ZM313.966 101.375H340.267C340.589 101.375 341.16 101.594 341.452 101.859L348.158 106.946L341.395 112.192C341.069 112.44 340.677 112.591 340.267 112.625H313.966V101.375Z" fill="#C23031"/>
</g>
</svg>
