<svg width="475" height="312" viewBox="0 0 475 312" fill="none" xmlns="http://www.w3.org/2000/svg">
<rect width="475" height="312" rx="13" fill="#C23031"/>
<mask id="mask0_1_3338" style="mask-type:alpha" maskUnits="userSpaceOnUse" x="0" y="0" width="475" height="312">
<rect width="475" height="312" rx="13" fill="#4ECDC4"/>
</mask>
<g mask="url(#mask0_1_3338)">
<path d="M243.483 313.172V214C243.483 211.335 241.526 208.5 238.5 208.5C235.474 208.5 232.517 214.335 232.517 217V313.172C232.517 315.837 235.96 318 238.998 318C242.035 318 243.483 315.837 243.483 313.172ZM244.481 24.0831V13.8281C244.481 12.5476 243.903 11.3196 242.875 10.4141C241.847 9.50868 240.452 9 238.998 9C237.544 9 236.149 9.50868 235.121 10.4141C234.093 11.3196 233.515 12.5476 233.515 13.8281V24.0831C233.515 25.3636 234.093 26.5916 235.121 27.4971C236.149 28.4025 237.544 28.9112 238.998 28.9112C240.452 28.9112 241.847 28.4025 242.875 27.4971C243.903 26.5916 244.481 25.3636 244.481 24.0831ZM121.656 42.5168L82.5419 69.535C81.4321 70.4339 80.5448 71.5247 79.9354 72.7393C79.326 73.9538 79.0075 75.266 79 76.5938C79 79.2492 80.2939 81.8274 82.8818 83.9132L121.316 110.42C124.682 113.152 130.68 115.219 135.275 115.219H286.906C293.189 115.219 298.31 110.748 298.31 105.244V47.9437C298.31 42.4396 293.189 37.9687 286.906 37.9687H135.275C130.68 37.9687 124.682 40.0352 121.656 42.5168ZM287.345 105.244C287.345 105.389 287.147 105.562 286.906 105.562H135.275C133.411 105.562 130.11 104.433 128.422 103.071L89.6475 76.8738L128.751 49.8556C130.121 48.7548 133.411 47.625 135.275 47.625L287.345 47.9437V105.244ZM354.684 129.674C351.318 126.941 345.319 124.875 340.725 124.875H189.094C182.811 124.875 177.69 129.346 177.69 134.85V192.16C177.69 197.654 182.811 202.125 189.094 202.125H340.725C345.319 202.125 351.318 200.059 354.355 197.577L393.458 170.559C394.568 169.66 395.455 168.569 396.065 167.354C396.674 166.14 396.992 164.828 397 163.5C396.977 162.108 396.62 160.735 395.95 159.474C395.281 158.212 394.316 157.09 393.118 156.181L354.684 129.674ZM188.655 134.531H340.725C342.589 134.531 345.89 135.661 347.578 137.023L386.352 163.22L347.249 190.238C345.363 191.518 343.098 192.292 340.725 192.469H188.655V134.531Z" fill="white"/>
<path d="M188 82.9531C188 88.8125 183.234 93.5 177.375 93.5H171.125C167.453 93.5 164.25 91.2344 163.078 87.7188C162.688 86.3906 163.391 84.9844 164.641 84.5938C165.969 84.125 167.375 84.8281 167.844 86.1562C168.312 87.5625 169.641 88.5 171.125 88.5H177.375C180.5 88.5 183 86 183 82.9531C183 79.9062 180.5 77.4062 177.375 77.4062H165.5C164.719 77.4062 164.016 77.0938 163.547 76.4688C163.078 75.9219 162.844 75.1406 163 74.4375L165.5 60.6094C165.734 59.4375 166.75 58.5781 168 58.5781H183C184.328 58.5781 185.5 59.6719 185.5 61.0781C185.5 62.4062 184.328 63.5781 183 63.5781H170.031L168.469 72.4062H177.375C183.234 72.4062 188 77.0938 188 82.9531ZM200.5 58.5781C207.375 58.5781 213 64.125 213 71V81C213 87.875 207.375 93.5 200.5 93.5C193.547 93.5 188 87.875 188 81V71.0781C188 64.125 193.547 58.5781 200.5 58.5781ZM208 81V71C208 66.9375 204.562 63.5 200.5 63.5C196.359 63.5 193 66.9375 193 71V81C193 85.1406 196.359 88.5 200.5 88.5C204.562 88.5 208 85.1406 208 81ZM238 82.9531C238 88.8125 233.234 93.5 227.375 93.5H221.125C217.453 93.5 214.25 91.2344 213.078 87.7188C212.688 86.3906 213.391 84.9844 214.641 84.5938C215.969 84.125 217.375 84.8281 217.844 86.1562C218.312 87.5625 219.641 88.5 221.125 88.5H227.375C230.5 88.5 233 86 233 82.9531C233 79.9062 230.5 77.4062 227.375 77.4062H215.5C214.719 77.4062 214.016 77.0938 213.547 76.4688C213.078 75.9219 212.844 75.1406 213 74.4375L215.5 60.6094C215.734 59.4375 216.75 58.5781 218 58.5781H233C234.328 58.5781 235.5 59.6719 235.5 61.0781C235.5 62.4062 234.328 63.5781 233 63.5781H220.031L218.469 72.4062H227.375C233.234 72.4062 238 77.0938 238 82.9531Z" fill="white"/>
<path d="M223 159.039V174.039C223 174.547 222.648 175.016 222.141 175.211C222.023 175.25 221.867 175.25 221.75 175.25C221.359 175.25 221.008 175.094 220.773 174.82L210.5 162.477V174C210.5 174.703 209.914 175.25 209.25 175.25C208.547 175.25 208 174.703 208 174V159C208 158.492 208.312 158.023 208.82 157.828C209.289 157.672 209.836 157.828 210.188 158.219L220.5 170.562V159C220.5 158.336 221.047 157.75 221.75 157.75C222.414 157.75 223 158.336 223 159.039ZM232.75 157.789C237.555 157.789 241.5 161.695 241.5 166.539C241.5 171.344 237.555 175.289 232.75 175.289C227.906 175.289 224 171.344 224 166.539C224 161.695 227.906 157.789 232.75 157.789ZM232.75 172.75C236.188 172.75 239 169.938 239 166.5C239 163.102 236.188 160.289 232.75 160.289C229.273 160.289 226.5 163.062 226.5 166.5C226.5 169.977 229.273 172.75 232.75 172.75ZM257.5 159.039C257.5 159.703 256.914 160.289 256.25 160.289H251.25V174.039C251.25 174.703 250.664 175.25 250 175.25C249.297 175.25 248.75 174.703 248.75 174.039V160.289H243.75C243.047 160.289 242.5 159.703 242.5 159.039C242.5 158.336 243.047 157.789 243.75 157.789H256.25C256.914 157.789 257.5 158.336 257.5 159.039ZM279.5 159.039C279.5 159.703 278.914 160.289 278.25 160.289H269.5V165.289H275.75C276.414 165.289 277 165.836 277 166.5C277 167.125 276.414 167.75 275.75 167.75H269.5V174C269.5 174.664 268.914 175.25 268.25 175.25C267.547 175.25 267 174.664 267 174V159C267 158.336 267.547 157.789 268.25 157.789H278.25C278.914 157.789 279.5 158.336 279.5 159.039ZM289.25 157.789C294.055 157.789 298 161.695 298 166.539C298 171.344 294.055 175.289 289.25 175.289C284.406 175.289 280.5 171.344 280.5 166.539C280.5 161.695 284.406 157.789 289.25 157.789ZM289.25 172.75C292.688 172.75 295.5 169.938 295.5 166.5C295.5 163.102 292.688 160.289 289.25 160.289C285.773 160.289 283 163.062 283 166.5C283 169.977 285.773 172.75 289.25 172.75ZM314 159.039V167.828C314 171.891 310.602 175.289 306.5 175.289C302.359 175.289 299 171.93 299 167.828V159.039C299 158.336 299.547 157.789 300.25 157.789C300.914 157.789 301.5 158.336 301.5 159.039V167.828C301.5 170.562 303.727 172.789 306.5 172.789C309.234 172.789 311.5 170.562 311.5 167.828V159.039C311.5 158.336 312.047 157.789 312.75 157.789C313.414 157.789 314 158.336 314 159.039ZM330 159.039V174.039C330 174.547 329.648 175.016 329.141 175.211C329.023 175.25 328.867 175.25 328.75 175.25C328.359 175.25 328.008 175.094 327.773 174.82L317.5 162.477V174C317.5 174.703 316.914 175.25 316.25 175.25C315.547 175.25 315 174.703 315 174V159C315 158.492 315.312 158.023 315.82 157.828C316.289 157.672 316.836 157.828 317.188 158.219L327.5 170.562V159C327.5 158.336 328.047 157.75 328.75 157.75C329.414 157.75 330 158.336 330 159.039ZM337.25 157.789C342.055 157.789 346 161.695 346 166.539C346 171.344 342.055 175.289 337.25 175.289H332.25C331.547 175.289 331 174.703 331 174.039V159.039C331 158.336 331.547 157.789 332.25 157.789H337.25ZM337.25 172.75C340.688 172.75 343.5 169.898 343.5 166.5C343.5 163.062 340.688 160.25 337.25 160.25H333.5V172.75H337.25Z" fill="white"/>
<path d="M250.706 222.99C250.607 223.552 250.305 224.002 249.818 224.263C249.426 224.478 248.972 224.552 248.503 224.547C247.534 224.538 246.538 224.168 246.04 223.961C245.791 223.864 245.669 223.566 245.781 223.317C245.892 223.053 246.175 222.931 246.439 223.042C247.638 223.554 248.777 223.675 249.343 223.383C249.562 223.26 249.674 223.074 249.723 222.809C249.855 222.138 249.451 221.915 248.126 221.512C247.02 221.189 245.509 220.736 245.821 219.099C245.904 218.6 246.19 218.165 246.63 217.903C247.338 217.442 248.432 217.421 249.85 217.81C250.115 217.89 250.268 218.158 250.203 218.423C250.123 218.687 249.855 218.841 249.59 218.776C248.172 218.387 247.483 218.537 247.153 218.737C246.964 218.876 246.838 219.046 246.804 219.265C246.673 219.935 247.077 220.158 248.401 220.561C249.507 220.885 251.019 221.337 250.706 222.99ZM258.5 218.144L258.466 221.659C258.45 223.284 257.078 224.63 255.437 224.614C253.781 224.598 252.45 223.241 252.466 221.601L252.5 218.085C252.503 217.804 252.724 217.588 253.005 217.59C253.271 217.593 253.503 217.814 253.5 218.095L253.466 221.611C253.456 222.704 254.338 223.604 255.447 223.614C256.541 223.625 257.455 222.743 257.466 221.649L257.5 218.134C257.503 217.853 257.724 217.636 258.005 217.639C258.271 217.641 258.503 217.862 258.5 218.144ZM265.7 218.214L265.641 224.213C265.64 224.416 265.497 224.603 265.293 224.679C265.246 224.694 265.184 224.693 265.137 224.693C264.981 224.691 264.841 224.627 264.748 224.517L260.687 219.54L260.642 224.149C260.639 224.43 260.403 224.647 260.137 224.644C259.856 224.642 259.639 224.421 259.642 224.139L259.7 218.14C259.702 217.937 259.829 217.75 260.033 217.674C260.221 217.613 260.439 217.678 260.578 217.836L264.655 222.813L264.7 218.188C264.703 217.923 264.924 217.69 265.205 217.693C265.47 217.696 265.702 217.932 265.7 218.214ZM272.899 218.283L272.865 221.799C272.849 223.424 271.477 224.77 269.836 224.754C268.18 224.738 266.85 223.381 266.866 221.741L266.9 218.225C266.902 217.944 267.123 217.727 267.405 217.73C267.67 217.733 267.902 217.954 267.9 218.235L267.866 221.75C267.855 222.844 268.737 223.743 269.846 223.754C270.94 223.765 271.855 222.883 271.865 221.789L271.899 218.274C271.902 217.992 272.123 217.776 272.404 217.779C272.67 217.781 272.902 218.002 272.899 218.283ZM279.554 222.958C279.898 222.961 280.036 223.275 280.034 223.462C280.03 223.822 278.974 224.843 277.442 224.828C275.302 224.807 274.039 222.951 274.055 221.295C274.07 219.67 275.339 217.807 277.51 217.828C279.073 217.843 280.078 218.9 280.075 219.244C280.073 219.431 279.914 219.742 279.57 219.739C279.07 219.734 278.86 218.841 277.501 218.828C275.969 218.813 275.066 220.133 275.055 221.304C275.043 222.461 275.905 223.813 277.452 223.828C278.827 223.826 279.054 222.953 279.554 222.958ZM287.299 218.423L287.265 221.939C287.249 223.564 285.876 224.91 284.236 224.894C282.58 224.878 281.249 223.521 281.265 221.88L281.299 218.365C281.302 218.084 281.523 217.867 281.804 217.87C282.069 217.872 282.302 218.093 282.299 218.375L282.265 221.89C282.254 222.984 283.136 223.883 284.245 223.894C285.339 223.904 286.254 223.023 286.265 221.929L286.299 218.413C286.301 218.132 286.522 217.916 286.804 217.918C287.069 217.921 287.301 218.142 287.299 218.423ZM251.223 226.073C251.22 226.339 250.984 226.571 250.718 226.569L248.718 226.549L248.665 232.049C248.662 232.314 248.426 232.531 248.16 232.528C247.879 232.526 247.662 232.305 247.665 232.039L247.718 226.539L245.718 226.52C245.437 226.517 245.22 226.281 245.223 226.015C245.226 225.734 245.447 225.517 245.728 225.52L250.728 225.569C250.993 225.571 251.225 225.792 251.223 226.073ZM258.319 231.939C258.426 232.191 258.298 232.486 258.047 232.593C257.985 232.624 257.922 232.639 257.859 232.638C257.656 232.636 257.47 232.509 257.394 232.321L256.905 231.129L253.827 231.099L253.316 232.282C253.204 232.53 252.921 232.653 252.657 232.541C252.408 232.429 252.286 232.147 252.398 231.882L254.956 225.907C255.036 225.72 255.224 225.612 255.427 225.614C255.615 225.616 255.801 225.727 255.878 225.915L258.319 231.939ZM254.243 230.087L256.509 230.109L255.41 227.411L254.243 230.087ZM263.148 230.017L264.473 231.905C264.627 232.126 264.562 232.438 264.341 232.607C264.247 232.669 264.153 232.699 264.059 232.698C263.903 232.697 263.747 232.617 263.639 232.475L262.037 230.163L260.584 230.149L260.564 232.149C260.562 232.43 260.325 232.646 260.059 232.644C259.778 232.641 259.562 232.42 259.564 232.139L259.623 226.139C259.625 225.874 259.846 225.641 260.127 225.644L262.377 225.666C263.612 225.678 264.617 226.703 264.605 227.938C264.596 228.891 263.994 229.698 263.148 230.017ZM260.617 226.665L260.593 229.149L262.343 229.166C263.031 229.173 263.599 228.631 263.605 227.944C263.612 227.241 263.055 226.688 262.367 226.682L260.617 226.665ZM271.719 232.07C271.826 232.321 271.698 232.616 271.447 232.723C271.384 232.754 271.321 232.769 271.259 232.768C271.056 232.766 270.869 232.639 270.793 232.451L270.305 231.259L267.227 231.229L266.715 232.412C266.603 232.661 266.321 232.783 266.056 232.671C265.807 232.559 265.685 232.277 265.797 232.012L268.355 226.037C268.435 225.85 268.624 225.742 268.827 225.744C269.014 225.746 269.201 225.857 269.277 226.046L271.719 232.07ZM267.643 230.217L269.908 230.239L268.809 227.541L267.643 230.217ZM278.022 226.334C278.019 226.599 277.782 226.831 277.517 226.829L274.017 226.795L273.997 228.795L276.497 228.819C276.763 228.821 276.995 229.042 276.993 229.308C276.99 229.558 276.753 229.806 276.488 229.803L273.988 229.779L273.964 232.279C273.961 232.544 273.724 232.777 273.459 232.774C273.178 232.771 272.961 232.535 272.964 232.269L273.022 226.269C273.024 226.004 273.245 225.787 273.527 225.79L277.526 225.829C277.792 225.831 278.024 226.052 278.022 226.334ZM284.163 232.378C284.16 232.659 283.924 232.875 283.658 232.873L279.658 232.834C279.377 232.831 279.161 232.611 279.163 232.329C279.166 232.064 279.387 231.831 279.668 231.834L281.168 231.849L281.217 226.849L279.717 226.834C279.435 226.832 279.219 226.611 279.222 226.33C279.224 226.064 279.445 225.832 279.726 225.834L283.726 225.873C283.992 225.876 284.224 226.112 284.221 226.378C284.219 226.659 283.982 226.876 283.717 226.873L282.217 226.859L282.168 231.858L283.668 231.873C283.934 231.876 284.166 232.112 284.163 232.378ZM292.621 226.475L292.563 232.475C292.561 232.678 292.418 232.864 292.214 232.94C292.167 232.956 292.105 232.955 292.058 232.954C291.902 232.953 291.762 232.889 291.669 232.779L287.608 227.802L287.563 232.411C287.56 232.692 287.324 232.908 287.058 232.906C286.777 232.903 286.56 232.682 286.563 232.401L286.621 226.401C286.623 226.198 286.75 226.012 286.954 225.936C287.142 225.875 287.36 225.94 287.499 226.097L291.576 231.075L291.621 226.45C291.624 226.184 291.845 225.952 292.126 225.955C292.391 225.957 292.624 226.194 292.621 226.475ZM296.325 226.011C298.247 226.03 299.81 227.608 299.791 229.545C299.773 231.467 298.179 233.029 296.258 233.011L294.258 232.991C293.976 232.989 293.76 232.752 293.763 232.487L293.821 226.487C293.823 226.206 294.044 225.989 294.326 225.992L296.325 226.011ZM296.267 231.995C297.642 232.009 298.778 230.879 298.792 229.52C298.805 228.145 297.691 227.009 296.316 226.995L294.816 226.981L294.767 231.981L296.267 231.995ZM306.917 232.411C307.024 232.662 306.896 232.958 306.645 233.065C306.582 233.095 306.52 233.11 306.457 233.11C306.254 233.108 306.068 232.981 305.991 232.793L305.503 231.6L302.425 231.571L301.913 232.753C301.802 233.002 301.519 233.124 301.255 233.012C301.006 232.901 300.883 232.618 300.995 232.354L303.554 226.378C303.633 226.191 303.822 226.084 304.025 226.086C304.213 226.088 304.399 226.199 304.475 226.387L306.917 232.411ZM302.841 230.559L305.107 230.581L304.008 227.883L302.841 230.559ZM316.408 229.487C316.983 229.837 317.383 230.481 317.376 231.2C317.365 232.309 316.451 233.191 315.357 233.181L312.857 233.156C312.576 233.154 312.359 232.933 312.362 232.651L312.42 226.652C312.423 226.386 312.644 226.154 312.925 226.157L314.925 226.176C316.018 226.187 316.916 227.102 316.905 228.195C316.9 228.695 316.709 229.147 316.408 229.487ZM313.415 227.177L313.396 229.177L314.896 229.192C315.442 229.197 315.9 228.748 315.905 228.201C315.911 227.639 315.462 227.197 314.915 227.192L313.415 227.177ZM315.367 232.181C315.913 232.186 316.371 231.753 316.376 231.19C316.381 230.644 315.933 230.186 315.386 230.181L313.386 230.161L313.367 232.161L315.367 232.181ZM323.561 232.76C323.559 233.041 323.322 233.258 323.056 233.255L319.057 233.216C318.775 233.214 318.559 232.993 318.562 232.712C318.564 232.446 318.785 232.214 319.066 232.217L320.566 232.231L320.615 227.231L319.115 227.217C318.834 227.214 318.617 226.993 318.62 226.712C318.622 226.446 318.843 226.214 319.125 226.217L323.124 226.256C323.39 226.258 323.622 226.495 323.62 226.76C323.617 227.042 323.38 227.258 323.115 227.256L321.615 227.241L321.566 232.241L323.066 232.255C323.332 232.258 323.564 232.495 323.561 232.76ZM328.344 230.65L329.67 232.538C329.824 232.758 329.759 233.07 329.538 233.24C329.444 233.302 329.35 233.332 329.256 233.331C329.1 233.33 328.944 233.25 328.836 233.108L327.234 230.796L325.781 230.782L325.761 232.782C325.758 233.063 325.522 233.279 325.256 233.277C324.975 233.274 324.758 233.053 324.761 232.772L324.819 226.772C324.822 226.506 325.043 226.274 325.324 226.277L327.574 226.299C328.808 226.311 329.814 227.336 329.802 228.571C329.793 229.524 329.191 230.33 328.344 230.65ZM325.814 227.297L325.79 229.782L327.54 229.799C328.228 229.805 328.795 229.264 328.802 228.576C328.809 227.873 328.252 227.321 327.564 227.314L325.814 227.297ZM251.145 234.073L251.087 240.073C251.084 240.338 250.848 240.57 250.582 240.568C250.301 240.565 250.084 240.329 250.087 240.063L250.116 237.063L246.116 237.024L246.087 240.024C246.085 240.29 245.848 240.522 245.582 240.519C245.301 240.517 245.085 240.28 245.087 240.015L245.145 234.015C245.148 233.734 245.369 233.517 245.65 233.52C245.916 233.522 246.148 233.743 246.145 234.025L246.126 236.024L250.126 236.063L250.145 234.063C250.148 233.782 250.369 233.565 250.65 233.568C250.916 233.571 251.148 233.792 251.145 234.073ZM258.242 239.939C258.349 240.19 258.221 240.486 257.97 240.593C257.907 240.623 257.844 240.638 257.782 240.638C257.579 240.636 257.392 240.509 257.316 240.321L256.828 239.128L253.75 239.099L253.238 240.281C253.126 240.53 252.844 240.652 252.579 240.54C252.33 240.429 252.208 240.146 252.32 239.882L254.878 233.906C254.958 233.719 255.147 233.612 255.35 233.614C255.537 233.616 255.724 233.727 255.8 233.915L258.242 239.939ZM254.166 238.087L256.431 238.109L255.332 235.411L254.166 238.087ZM265.544 234.213C265.542 234.478 265.305 234.711 265.04 234.708L263.04 234.689L262.986 240.188C262.984 240.454 262.747 240.67 262.482 240.668C262.2 240.665 261.984 240.444 261.986 240.179L262.04 234.679L260.04 234.659C259.759 234.657 259.542 234.42 259.545 234.155C259.547 233.873 259.768 233.657 260.05 233.659L265.049 233.708C265.315 233.711 265.547 233.932 265.544 234.213ZM272.641 240.079C272.748 240.33 272.62 240.626 272.369 240.732C272.306 240.763 272.244 240.778 272.181 240.778C271.978 240.776 271.792 240.649 271.715 240.46L271.227 239.268L268.149 239.238L267.637 240.421C267.526 240.67 267.243 240.792 266.979 240.68C266.73 240.568 266.607 240.286 266.719 240.021L269.277 234.046C269.357 233.859 269.546 233.752 269.749 233.754C269.937 233.755 270.123 233.867 270.199 234.055L272.641 240.079ZM268.565 238.227L270.831 238.249L269.732 235.55L268.565 238.227ZM285.144 234.403L285.085 240.403C285.083 240.668 284.846 240.9 284.58 240.898C284.299 240.895 284.083 240.659 284.085 240.393L284.128 236.034L282.004 239.138C281.813 239.418 281.36 239.413 281.176 239.13L279.128 235.985L279.086 240.329C279.083 240.61 278.847 240.827 278.581 240.824C278.3 240.821 278.083 240.6 278.086 240.319L278.144 234.319C278.146 234.101 278.289 233.915 278.492 233.854C278.712 233.794 278.93 233.874 279.053 234.063L281.609 237.963L284.224 234.113C284.351 233.927 284.571 233.851 284.789 233.915C284.991 233.98 285.146 234.169 285.144 234.403ZM291.285 240.447C291.282 240.729 291.046 240.945 290.78 240.942L286.781 240.904C286.499 240.901 286.283 240.68 286.285 240.399L286.344 234.399C286.346 234.133 286.567 233.917 286.848 233.92L290.848 233.958C291.114 233.961 291.346 234.182 291.343 234.463C291.341 234.729 291.104 234.961 290.838 234.958L287.339 234.924L287.319 236.924L289.819 236.949C290.085 236.951 290.317 237.172 290.314 237.438C290.312 237.719 290.075 237.951 289.809 237.948L287.309 237.924L287.29 239.924L290.79 239.958C291.056 239.945 291.288 240.182 291.285 240.447ZM298.446 234.813L296.008 238.165L295.985 240.509C295.982 240.774 295.746 240.991 295.48 240.988C295.199 240.985 294.982 240.764 294.985 240.483L295.008 238.155L292.619 234.757C292.464 234.537 292.53 234.225 292.75 234.055C292.971 233.901 293.283 233.966 293.452 234.187L295.518 237.129L297.624 234.212C297.782 233.994 298.096 233.935 298.313 234.109C298.545 234.283 298.605 234.596 298.446 234.813ZM302.248 234.069C304.169 234.088 305.732 235.665 305.713 237.603C305.695 239.525 304.101 241.087 302.18 241.069L300.18 241.049C299.898 241.047 299.682 240.81 299.685 240.544L299.743 234.545C299.746 234.263 299.966 234.047 300.248 234.05L302.248 234.069ZM302.189 240.053C303.564 240.066 304.7 238.937 304.714 237.577C304.727 236.203 303.613 235.067 302.238 235.053L300.738 235.039L300.69 240.039L302.189 240.053ZM312.839 240.469C312.946 240.72 312.818 241.016 312.567 241.123C312.504 241.153 312.442 241.168 312.379 241.168C312.176 241.166 311.99 241.039 311.913 240.851L311.425 239.658L308.347 239.628L307.836 240.811C307.724 241.06 307.441 241.182 307.177 241.07C306.928 240.959 306.806 240.676 306.917 240.412L309.476 234.436C309.556 234.249 309.744 234.142 309.947 234.144C310.135 234.146 310.321 234.257 310.397 234.445L312.839 240.469ZM308.763 238.617L311.029 238.639L309.93 235.941L308.763 238.617ZM320.142 234.743L320.084 240.742C320.082 240.946 319.939 241.132 319.735 241.208C319.688 241.223 319.626 241.222 319.579 241.222C319.423 241.22 319.283 241.157 319.19 241.046L315.129 236.069L315.084 240.678C315.081 240.96 314.845 241.176 314.579 241.173C314.298 241.171 314.081 240.95 314.084 240.669L314.142 234.669C314.144 234.466 314.271 234.279 314.475 234.203C314.663 234.143 314.881 234.207 315.02 234.365L319.097 239.342L319.142 234.717C319.145 234.452 319.366 234.22 319.647 234.222C319.913 234.225 320.145 234.461 320.142 234.743ZM327.238 240.609C327.345 240.86 327.217 241.155 326.966 241.262C326.904 241.293 326.841 241.308 326.778 241.307C326.575 241.305 326.389 241.179 326.313 240.99L325.824 239.798L322.746 239.768L322.235 240.951C322.123 241.2 321.841 241.322 321.576 241.21C321.327 241.098 321.205 240.816 321.317 240.551L323.875 234.576C323.955 234.389 324.143 234.282 324.347 234.284C324.534 234.285 324.72 234.397 324.797 234.585L327.238 240.609ZM323.162 238.757L325.428 238.779L324.329 236.08L323.162 238.757ZM252.038 245.067C252.017 247.317 250.145 248.533 248.489 248.517C246.411 248.497 245.021 246.827 245.039 244.999C245.058 243.061 246.651 241.514 248.573 241.533C249.885 241.546 251.173 242.433 251.168 242.949C251.166 243.23 250.929 243.446 250.664 243.444C250.179 243.439 249.953 242.562 248.563 242.548C247.188 242.535 246.052 243.618 246.039 245.008C246.033 245.555 246.452 247.497 248.515 247.517C249.749 247.529 250.773 246.679 251.002 245.557L248.909 245.536C248.628 245.534 248.411 245.313 248.414 245.031C248.416 244.766 248.637 244.549 248.918 244.552L251.543 244.577C251.809 244.564 252.041 244.801 252.038 245.067ZM258.209 248.127C258.206 248.408 257.97 248.624 257.704 248.622L253.704 248.583C253.423 248.58 253.207 248.359 253.209 248.078L253.268 242.078C253.27 241.813 253.491 241.596 253.772 241.599L257.772 241.638C258.038 241.64 258.27 241.861 258.267 242.143C258.265 242.408 258.028 242.64 257.762 242.638L254.262 242.604L254.243 244.604L256.743 244.628C257.009 244.63 257.241 244.851 257.238 245.117C257.235 245.398 256.999 245.63 256.733 245.628L254.233 245.604L254.214 247.603L257.714 247.637C257.98 247.624 258.212 247.861 258.209 248.127ZM264.409 248.187C264.406 248.468 264.17 248.685 263.904 248.682L260.404 248.648C260.123 248.645 259.906 248.424 259.909 248.143L259.967 242.143C259.97 241.878 260.191 241.661 260.472 241.664C260.738 241.667 260.97 241.888 260.967 242.169L260.914 247.669L263.913 247.698C264.179 247.685 264.411 247.921 264.409 248.187ZM268.172 241.739C270.093 241.757 271.656 243.335 271.637 245.272C271.619 247.194 270.025 248.757 268.104 248.738L266.104 248.719C265.822 248.716 265.606 248.48 265.609 248.214L265.667 242.214C265.67 241.933 265.89 241.717 266.172 241.719L268.172 241.739ZM268.113 247.723C269.488 247.736 270.624 246.606 270.638 245.247C270.651 243.872 269.537 242.736 268.162 242.723L266.662 242.708L266.614 247.708L268.113 247.723ZM277.808 248.317C277.805 248.598 277.569 248.815 277.303 248.812L273.303 248.773C273.022 248.77 272.806 248.55 272.808 248.268C272.811 248.003 273.032 247.77 273.313 247.773L274.813 247.788L274.862 242.788L273.362 242.773C273.08 242.771 272.864 242.55 272.867 242.269C272.869 242.003 273.09 241.771 273.371 241.774L277.371 241.812C277.637 241.815 277.869 242.052 277.866 242.317C277.864 242.598 277.627 242.815 277.362 242.812L275.862 242.798L275.813 247.797L277.313 247.812C277.579 247.815 277.811 248.051 277.808 248.317Z" fill="white" fill-opacity="0.8"/>
</g>
</svg>
