<svg width="475" height="312" viewBox="0 0 475 312" fill="none" xmlns="http://www.w3.org/2000/svg">
<rect width="475" height="312" rx="13" fill="#C23031"/>
<mask id="mask0_1_3338" style="mask-type:alpha" maskUnits="userSpaceOnUse" x="0" y="0" width="475" height="312">
<rect width="475" height="312" rx="13" fill="#4ECDC4"/>
</mask>
<g mask="url(#mask0_1_3338)">
<path d="M241.966 319.531V234.625C241.966 232.158 240.778 225.688 238.313 225.688C235.848 225.688 233.034 227.689 233.034 230.156V319.531C233.034 321.998 235.839 324 238.313 324C240.787 324 241.966 321.998 241.966 319.531ZM242.778 51.9604V42.4688C242.778 41.2836 242.308 40.1469 241.47 39.3089C240.633 38.4708 239.497 38 238.313 38C237.128 38 235.993 38.4708 235.155 39.3089C234.318 40.1469 233.847 41.2836 233.847 42.4688V51.9604C233.847 53.1456 234.318 54.2822 235.155 55.1203C235.993 55.9583 237.128 56.4291 238.313 56.4291C239.497 56.4291 240.633 55.9583 241.47 55.1203C242.308 54.2822 242.778 53.1456 242.778 51.9604ZM142.742 69.0221L110.885 94.0292C109.981 94.8612 109.258 95.8708 108.762 96.9949C108.265 98.119 108.006 99.3335 108 100.562C108 103.02 109.054 105.407 111.162 107.337L142.465 131.871C145.207 134.4 150.092 136.312 153.834 136.312H277.332C282.45 136.312 286.621 132.174 286.621 127.08V74.0449C286.621 68.9506 282.45 64.8125 277.332 64.8125H153.834C150.092 64.8125 145.207 66.7251 142.742 69.0221ZM277.69 127.08C277.69 127.214 277.529 127.375 277.332 127.375H153.834C152.316 127.375 149.628 126.329 148.252 125.069L116.672 100.822L148.52 75.8146C149.636 74.7957 152.316 73.75 153.834 73.75L277.69 74.0449V127.08ZM332.535 149.692C329.793 147.163 324.908 145.25 321.166 145.25H197.668C192.55 145.25 188.379 149.388 188.379 154.482V207.527C188.379 212.612 192.55 216.75 197.668 216.75H321.166C324.908 216.75 329.793 214.837 332.267 212.54L364.115 187.533C365.019 186.701 365.742 185.692 366.238 184.568C366.735 183.443 366.994 182.229 367 181C366.982 179.711 366.69 178.441 366.145 177.273C365.6 176.106 364.814 175.067 363.838 174.225L332.535 149.692ZM197.31 154.188H321.166C322.684 154.188 325.372 155.233 326.748 156.493L358.328 180.741L326.48 205.748C324.943 206.932 323.099 207.649 321.166 207.812H197.31V154.188Z" fill="white"/>
<path d="M189 108.953C189 114.812 184.234 119.5 178.375 119.5H172.125C168.453 119.5 165.25 117.234 164.078 113.719C163.688 112.391 164.391 110.984 165.641 110.594C166.969 110.125 168.375 110.828 168.844 112.156C169.312 113.562 170.641 114.5 172.125 114.5H178.375C181.5 114.5 184 112 184 108.953C184 105.906 181.5 103.406 178.375 103.406H166.5C165.719 103.406 165.016 103.094 164.547 102.469C164.078 101.922 163.844 101.141 164 100.438L166.5 86.6094C166.734 85.4375 167.75 84.5781 169 84.5781H184C185.328 84.5781 186.5 85.6719 186.5 87.0781C186.5 88.4062 185.328 89.5781 184 89.5781H171.031L169.469 98.4062H178.375C184.234 98.4062 189 103.094 189 108.953ZM201.5 84.5781C208.375 84.5781 214 90.125 214 97V107C214 113.875 208.375 119.5 201.5 119.5C194.547 119.5 189 113.875 189 107V97.0781C189 90.125 194.547 84.5781 201.5 84.5781ZM209 107V97C209 92.9375 205.562 89.5 201.5 89.5C197.359 89.5 194 92.9375 194 97V107C194 111.141 197.359 114.5 201.5 114.5C205.562 114.5 209 111.141 209 107ZM239 108.953C239 114.812 234.234 119.5 228.375 119.5H222.125C218.453 119.5 215.25 117.234 214.078 113.719C213.688 112.391 214.391 110.984 215.641 110.594C216.969 110.125 218.375 110.828 218.844 112.156C219.312 113.562 220.641 114.5 222.125 114.5H228.375C231.5 114.5 234 112 234 108.953C234 105.906 231.5 103.406 228.375 103.406H216.5C215.719 103.406 215.016 103.094 214.547 102.469C214.078 101.922 213.844 101.141 214 100.438L216.5 86.6094C216.734 85.4375 217.75 84.5781 219 84.5781H234C235.328 84.5781 236.5 85.6719 236.5 87.0781C236.5 88.4062 235.328 89.5781 234 89.5781H221.031L219.469 98.4062H228.375C234.234 98.4062 239 103.094 239 108.953Z" fill="white"/>
<path d="M231 177.031V189.031C231 189.438 230.719 189.812 230.312 189.969C230.219 190 230.094 190 230 190C229.688 190 229.406 189.875 229.219 189.656L221 179.781V189C221 189.562 220.531 190 220 190C219.438 190 219 189.562 219 189V177C219 176.594 219.25 176.219 219.656 176.062C220.031 175.938 220.469 176.062 220.75 176.375L229 186.25V177C229 176.469 229.438 176 230 176C230.531 176 231 176.469 231 177.031ZM238 176.031C234.125 176.031 231 179.156 231 183.031C231 186.875 234.125 190.031 238 190.031C241.844 190.031 245 186.875 245 183.031C245 179.156 241.844 176.031 238 176.031ZM238 188C235.219 188 233 185.781 233 183C233 180.25 235.219 178.031 238 178.031C240.75 178.031 243 180.281 243 183C243 185.75 240.75 188 238 188ZM257 177.031C257 177.562 256.531 178.031 256 178.031H252V189.031C252 189.562 251.531 190 251 190C250.438 190 250 189.562 250 189.031V178.031H246C245.438 178.031 245 177.562 245 177.031C245 176.469 245.438 176.031 246 176.031H256C256.531 176.031 257 176.469 257 177.031ZM273 177.031C273 177.562 272.531 178.031 272 178.031H265V182.031H270C270.531 182.031 271 182.469 271 183C271 183.5 270.531 184 270 184H265V189C265 189.531 264.531 190 264 190C263.438 190 263 189.531 263 189V177C263 176.469 263.438 176.031 264 176.031H272C272.531 176.031 273 176.469 273 177.031ZM280 176.031C276.125 176.031 273 179.156 273 183.031C273 186.875 276.125 190.031 280 190.031C283.844 190.031 287 186.875 287 183.031C287 179.156 283.844 176.031 280 176.031ZM280 188C277.219 188 275 185.781 275 183C275 180.25 277.219 178.031 280 178.031C282.75 178.031 285 180.281 285 183C285 185.75 282.75 188 280 188ZM299 177.031V184.062C299 187.312 296.281 190.031 293 190.031C289.688 190.031 287 187.344 287 184.062V177.031C287 176.469 287.438 176.031 288 176.031C288.531 176.031 289 176.469 289 177.031V184.062C289 186.25 290.781 188.031 293 188.031C295.188 188.031 297 186.25 297 184.062V177.031C297 176.469 297.438 176.031 298 176.031C298.531 176.031 299 176.469 299 177.031ZM311 177.031V189.031C311 189.438 310.719 189.812 310.312 189.969C310.219 190 310.094 190 310 190C309.688 190 309.406 189.875 309.219 189.656L301 179.781V189C301 189.562 300.531 190 300 190C299.438 190 299 189.562 299 189V177C299 176.594 299.25 176.219 299.656 176.062C300.031 175.938 300.469 176.062 300.75 176.375L309 186.25V177C309 176.469 309.438 176 310 176C310.531 176 311 176.469 311 177.031ZM316 176.031H312C311.438 176.031 311 176.469 311 177.031V189.031C311 189.562 311.438 190.031 312 190.031H316C319.844 190.031 323 186.875 323 183.031C323 179.156 319.844 176.031 316 176.031ZM316 188H313V178H316C318.75 178 321 180.25 321 183C321 185.719 318.75 188 316 188Z" fill="white"/>
</g>
</svg>
