<svg width="2999" height="3000" viewBox="0 0 2999 3000" fill="none" xmlns="http://www.w3.org/2000/svg">
<g opacity="0.5">
<path d="M2195.46 1499.65C2195.46 1865.91 2117.35 2197.46 1991.1 2437.42C1864.83 2677.42 1690.49 2825.66 1498.08 2825.66C1305.66 2825.66 1131.33 2677.42 1005.06 2437.42C878.804 2197.46 800.697 1865.91 800.697 1499.65C800.697 1133.4 878.804 801.851 1005.06 561.884C1131.33 321.891 1305.66 173.645 1498.08 173.645C1690.49 173.645 1864.83 321.891 1991.1 561.884C2117.35 801.851 2195.46 1133.4 2195.46 1499.65Z" stroke="black" stroke-opacity="0.8" stroke-width="1.15556"/>
<path d="M1499.83 2195.74C1133.58 2195.74 802.028 2117.63 562.061 1991.38C322.068 1865.11 173.822 1690.77 173.822 1498.36C173.822 1305.94 322.068 1131.61 562.061 1005.34C802.028 879.084 1133.58 800.977 1499.83 800.977C1866.08 800.977 2197.63 879.084 2437.6 1005.34C2677.59 1131.61 2825.84 1305.94 2825.84 1498.36C2825.84 1690.77 2677.59 1865.11 2437.6 1991.38C2197.63 2117.63 1866.08 2195.74 1499.83 2195.74Z" stroke="black" stroke-opacity="0.8" stroke-width="1.15556"/>
<path d="M1991.72 1007.77C2250.69 1266.74 2429.91 1556.42 2510.31 1815.37C2590.73 2074.36 2572.28 2302.46 2436.22 2438.52C2300.16 2574.58 2072.06 2593.03 1813.08 2512.61C1554.12 2432.2 1264.45 2252.99 1005.47 1994.01C746.489 1735.03 567.277 1445.36 486.87 1186.4C406.455 927.419 424.904 699.318 560.962 563.26C697.02 427.202 925.121 408.752 1184.11 489.168C1443.06 569.575 1732.74 748.786 1991.72 1007.77Z" stroke="black" stroke-opacity="0.8" stroke-width="1.15556"/>
<path d="M1992.03 1991.86C1733.05 2250.84 1443.38 2430.05 1184.43 2510.46C925.44 2590.87 697.339 2572.42 561.281 2436.37C425.223 2300.31 406.774 2072.21 487.189 1813.22C567.596 1554.26 746.807 1264.59 1005.79 1005.61C1264.77 746.634 1554.44 567.423 1813.39 487.016C2072.38 406.6 2300.48 425.05 2436.54 561.108C2572.6 697.166 2591.05 925.267 2510.63 1184.25C2430.22 1443.21 2251.01 1732.88 1992.03 1991.86Z" stroke="black" stroke-opacity="0.8" stroke-width="1.15556"/>
<path d="M1766.1 857.282C2104.47 997.44 2380.89 1196.48 2554.28 1404.96C2727.68 1613.45 2797.93 1831.25 2724.29 2009.02C2650.66 2186.79 2446.98 2291.12 2176.94 2315.94C1906.92 2340.75 1570.72 2286.03 1232.35 2145.88C893.973 2005.72 617.551 1806.68 444.166 1598.2C270.762 1389.7 200.517 1171.91 274.151 994.137C347.785 816.369 551.463 712.033 821.508 687.218C1091.52 662.406 1427.73 717.123 1766.1 857.282Z" stroke="black" stroke-opacity="0.8" stroke-width="1.15556"/>
<path d="M2142.99 1766.35C2002.83 2104.72 1803.79 2381.14 1595.31 2554.53C1386.82 2727.93 1169.02 2798.18 991.251 2724.54C813.482 2650.91 709.147 2447.23 684.331 2177.18C659.519 1907.17 714.236 1570.97 854.395 1232.59C994.553 894.221 1193.59 617.799 1402.07 444.414C1610.57 271.01 1828.36 200.765 2006.13 274.399C2183.9 348.033 2288.24 551.711 2313.05 821.756C2337.86 1091.77 2283.15 1427.97 2142.99 1766.35Z" stroke="black" stroke-opacity="0.8" stroke-width="1.15556"/>
<path d="M1233 856.789C1571.38 716.63 1907.58 661.913 2177.6 686.726C2447.64 711.541 2651.32 815.876 2724.95 993.645C2798.59 1171.41 2728.34 1389.21 2554.94 1597.71C2381.55 1806.18 2105.13 2005.22 1766.76 2145.38C1428.38 2285.54 1092.18 2340.26 822.166 2315.45C552.121 2290.63 348.443 2186.3 274.809 2008.53C201.175 1830.76 271.421 1612.96 444.825 1404.46C618.209 1195.99 894.632 996.948 1233 856.789Z" stroke="black" stroke-opacity="0.8" stroke-width="1.15556"/>
<path d="M2142.31 1233.09C2282.47 1571.46 2337.19 1907.67 2312.37 2177.68C2287.56 2447.73 2183.22 2651.4 2005.46 2725.04C1827.69 2798.67 1609.89 2728.43 1401.39 2555.02C1192.92 2381.64 993.876 2105.22 853.718 1766.84C713.559 1428.47 658.842 1092.27 683.654 822.252C708.469 552.207 812.805 348.529 990.573 274.895C1168.34 201.261 1386.14 271.507 1594.64 444.911C1803.11 618.295 2002.15 894.717 2142.31 1233.09Z" stroke="black" stroke-opacity="0.8" stroke-width="1.15556"/>
<path d="M2194.8 1469.3C2210.77 1835.2 2147.2 2169.84 2031.54 2415.09C1915.86 2660.36 1748.15 2816.07 1555.92 2824.46C1363.69 2832.86 1183.05 2692.36 1046.43 2458.1C909.833 2223.87 817.338 1896.04 801.362 1530.14C785.386 1164.23 848.957 829.592 964.624 584.347C1080.3 339.074 1248.01 183.365 1440.24 174.972C1632.47 166.578 1813.11 307.079 1949.73 541.336C2086.33 775.567 2178.82 1103.39 2194.8 1469.3Z" stroke="black" stroke-opacity="0.8" stroke-width="1.15556"/>
<path d="M1530.19 2195.07C1164.28 2211.04 829.642 2147.47 584.397 2031.8C339.124 1916.12 183.415 1748.42 175.022 1556.19C166.629 1363.95 307.129 1183.32 541.386 1046.7C775.617 910.099 1103.44 817.604 1469.35 801.629C1835.25 785.653 2169.89 849.224 2415.14 964.89C2660.41 1080.57 2816.12 1248.28 2824.51 1440.51C2832.91 1632.74 2692.41 1813.38 2458.15 1949.99C2223.92 2086.59 1896.09 2179.09 1530.19 2195.07Z" stroke="black" stroke-opacity="0.8" stroke-width="1.15556"/>
<path d="M1969.78 986.763C2239.81 1234.2 2431.49 1515.78 2523.11 1770.98C2614.75 2026.21 2606.27 2254.9 2476.27 2396.76C2346.28 2538.63 2119.2 2567.01 1856.95 2497.97C1594.74 2428.93 1297.52 2262.53 1027.49 2015.09C757.464 1767.65 565.788 1486.08 474.162 1230.87C382.526 975.641 391.008 746.952 521.002 605.088C650.995 463.225 878.075 434.844 1140.32 503.886C1402.54 572.921 1699.75 739.326 1969.78 986.763Z" stroke="black" stroke-opacity="0.8" stroke-width="1.15556"/>
<path d="M2013.03 1969.91C1765.6 2239.94 1484.02 2431.62 1228.81 2523.24C973.583 2614.88 744.894 2606.4 603.031 2476.4C461.168 2346.41 432.787 2119.33 501.829 1857.08C570.864 1594.87 737.269 1297.65 984.705 1027.62C1232.14 757.594 1513.72 565.917 1768.92 474.292C2024.16 382.656 2252.84 391.138 2394.71 521.132C2536.57 651.125 2564.95 878.205 2495.91 1140.45C2426.88 1402.67 2260.47 1699.88 2013.03 1969.91Z" stroke="black" stroke-opacity="0.8" stroke-width="1.15556"/>
<path d="M1737.82 846.267C2081.98 971.532 2366.83 1158.33 2549.14 1359.04C2731.47 1559.78 2811.15 1774.3 2745.34 1955.11C2679.53 2135.92 2480.6 2249.04 2211.89 2285.62C1943.22 2322.18 1604.95 2282.18 1260.78 2156.92C916.618 2031.65 631.777 1844.86 449.464 1644.14C267.13 1443.41 187.451 1228.88 253.261 1048.07C319.071 867.259 518.004 754.139 786.71 717.568C1055.39 681.001 1393.66 721.001 1737.82 846.267Z" stroke="black" stroke-opacity="0.8" stroke-width="1.15556"/>
<path d="M2154 1738.03C2028.74 2082.19 1841.94 2367.03 1641.23 2549.35C1440.49 2731.68 1225.97 2811.36 1045.16 2745.55C864.346 2679.74 751.225 2480.81 714.654 2212.1C678.087 1943.42 718.088 1605.15 843.353 1260.99C968.619 916.825 1155.41 631.984 1356.13 449.671C1556.86 267.337 1771.39 187.658 1952.2 253.468C2133.01 319.278 2246.13 518.211 2282.7 786.917C2319.27 1055.59 2279.27 1393.86 2154 1738.03Z" stroke="black" stroke-opacity="0.8" stroke-width="1.15556"/>
<path d="M1205.21 869.028C1537.15 714.243 1870.64 644.913 2141.48 657.924C2412.35 670.936 2620.39 766.288 2701.71 940.675C2783.03 1115.06 2722.35 1335.72 2558.2 1551.58C2394.08 1767.42 2126.6 1978.33 1794.66 2133.11C1462.73 2287.9 1129.23 2357.23 858.388 2344.22C587.517 2331.21 379.482 2235.85 298.164 2061.47C216.846 1887.08 277.525 1666.42 441.669 1450.56C605.795 1234.72 873.272 1023.81 1205.21 869.028Z" stroke="black" stroke-opacity="0.8" stroke-width="1.15556"/>
<path d="M2130.07 1205.31C2284.86 1537.25 2354.19 1870.74 2341.18 2141.58C2328.16 2412.45 2232.81 2620.49 2058.42 2701.81C1884.04 2783.12 1663.38 2722.45 1447.52 2558.3C1231.68 2394.18 1020.77 2126.7 865.987 1794.76C711.202 1462.82 641.872 1129.33 654.883 858.488C667.896 587.617 763.248 379.582 937.635 298.264C1112.02 216.946 1332.68 277.624 1548.54 441.769C1764.38 605.895 1975.29 873.372 2130.07 1205.31Z" stroke="black" stroke-opacity="0.8" stroke-width="1.15556"/>
<path d="M2192.81 1439C2224.73 1803.86 2175.82 2140.96 2070.96 2391.01C1966.09 2641.1 1805.33 2803.97 1613.65 2820.74C1421.97 2837.51 1235.37 2705.03 1088.67 2476.95C941.979 2248.9 835.272 1925.42 803.351 1560.56C771.43 1195.7 820.344 858.608 925.203 608.551C1030.07 358.466 1190.83 195.59 1382.51 178.82C1574.19 162.05 1760.79 294.537 1907.49 522.612C2054.18 750.661 2160.89 1074.14 2192.81 1439Z" stroke="black" stroke-opacity="0.8" stroke-width="1.15556"/>
<path d="M1560.48 2193.07C1195.63 2224.99 858.53 2176.08 608.473 2071.22C358.388 1966.35 195.511 1805.59 178.741 1613.91C161.971 1422.23 294.459 1235.63 522.534 1088.93C750.583 942.239 1074.06 835.532 1438.92 803.611C1803.78 771.69 2140.88 820.604 2390.93 925.463C2641.02 1030.33 2803.9 1191.09 2820.67 1382.77C2837.44 1574.45 2704.95 1761.05 2476.87 1907.75C2248.82 2054.44 1925.34 2161.15 1560.48 2193.07Z" stroke="black" stroke-opacity="0.8" stroke-width="1.15556"/>
<path d="M1946.96 966.74C2227.53 1202.16 2431.3 1475.11 2533.97 1726.08C2636.65 1977.07 2638.15 2205.91 2514.47 2353.31C2390.79 2500.71 2165.17 2538.97 1900.16 2481.43C1635.18 2423.9 1330.99 2270.61 1050.42 2035.19C769.858 1799.77 566.082 1526.82 463.412 1275.86C360.73 1024.86 359.229 796.022 482.911 648.624C606.593 501.226 832.218 462.966 1097.23 520.504C1362.21 578.035 1666.4 731.318 1946.96 966.74Z" stroke="black" stroke-opacity="0.8" stroke-width="1.15556"/>
<path d="M2033.05 1947.06C1797.63 2227.63 1524.68 2431.41 1273.71 2534.08C1022.72 2636.76 793.881 2638.26 646.483 2514.58C499.084 2390.9 460.825 2165.27 518.362 1900.26C575.894 1635.28 729.177 1331.09 964.599 1050.53C1200.02 769.962 1472.97 566.186 1723.93 463.516C1974.93 360.834 2203.77 359.333 2351.17 483.015C2498.56 606.697 2536.82 832.322 2479.29 1097.33C2421.76 1362.31 2268.47 1666.5 2033.05 1947.06Z" stroke="black" stroke-opacity="0.8" stroke-width="1.15556"/>
<path d="M1709.09 836.502C2058.39 946.636 2351.11 1120.83 2542 1313.4C2732.92 1505.99 2821.88 1716.84 2764.02 1900.35C2706.16 2083.86 2512.35 2205.55 2245.49 2253.8C1978.67 2302.05 1638.97 2276.85 1289.67 2166.71C940.373 2056.58 647.655 1882.39 456.76 1689.82C265.844 1497.23 176.884 1286.38 234.744 1102.87C292.604 919.36 486.414 797.669 753.269 749.413C1020.09 701.161 1359.79 726.368 1709.09 836.502Z" stroke="black" stroke-opacity="0.8" stroke-width="1.15556"/>
<path d="M2163.78 1709.25C2053.64 2058.55 1879.45 2351.27 1686.88 2542.17C1494.29 2733.08 1283.44 2822.04 1099.94 2764.18C916.426 2706.32 794.736 2512.51 746.479 2245.66C698.228 1978.83 723.435 1639.14 833.569 1289.84C943.703 940.539 1117.89 647.821 1310.46 456.927C1503.06 266.011 1713.9 177.05 1897.41 234.911C2080.92 292.771 2202.61 486.58 2250.87 753.435C2299.12 1020.26 2273.91 1359.95 2163.78 1709.25Z" stroke="black" stroke-opacity="0.8" stroke-width="1.15556"/>
<path d="M1177.98 882.465C1502.85 713.348 1833 629.537 2104.15 630.722C2375.33 631.907 2587.33 718.094 2676.18 888.768C2765.03 1059.44 2714.03 1282.53 2559.46 1505.35C2404.9 1728.14 2146.88 1950.52 1822.01 2119.64C1497.14 2288.75 1166.99 2372.56 895.835 2371.38C624.654 2370.19 412.658 2284.01 323.811 2113.33C234.963 1942.66 285.959 1719.57 440.531 1496.75C595.086 1273.96 853.109 1051.58 1177.98 882.465Z" stroke="black" stroke-opacity="0.8" stroke-width="1.15556"/>
<path d="M2116.62 1178.09C2285.74 1502.95 2369.55 1833.11 2368.37 2104.26C2367.18 2375.44 2281 2587.44 2110.32 2676.28C1939.65 2765.13 1716.56 2714.14 1493.74 2559.56C1270.95 2405.01 1048.57 2146.99 879.454 1822.12C710.338 1497.25 626.527 1167.09 627.711 895.941C628.896 624.761 715.083 412.764 885.757 323.917C1056.43 235.07 1279.52 286.066 1502.34 440.638C1725.13 595.193 1947.51 853.216 2116.62 1178.09Z" stroke="black" stroke-opacity="0.8" stroke-width="1.15556"/>
<path d="M2189.5 1408.82C2237.3 1771.94 2203.14 2110.85 2109.29 2365.24C2015.43 2619.66 1861.93 2789.4 1671.16 2814.51C1480.39 2839.63 1288.2 2715.4 1131.68 2493.95C975.187 2272.51 854.472 1953.99 806.667 1590.87C758.861 1227.76 793.024 888.847 886.876 634.454C980.739 380.032 1134.23 210.299 1325 185.184C1515.77 160.068 1707.97 284.291 1864.48 505.749C2020.98 727.183 2141.69 1045.7 2189.5 1408.82Z" stroke="black" stroke-opacity="0.8" stroke-width="1.15556"/>
<path d="M1590.67 2189.75C1227.55 2237.56 888.642 2203.39 634.249 2109.54C379.827 2015.68 210.094 1862.18 184.979 1671.41C159.864 1480.64 284.086 1288.45 505.544 1131.93C726.978 975.439 1045.5 854.724 1408.62 806.918C1771.73 759.113 2110.64 793.276 2365.04 887.128C2619.46 980.99 2789.19 1134.49 2814.31 1325.26C2839.42 1516.02 2715.2 1708.22 2493.74 1864.73C2272.31 2021.23 1953.79 2141.94 1590.67 2189.75Z" stroke="black" stroke-opacity="0.8" stroke-width="1.15556"/>
<path d="M1923.29 947.733C2213.85 1170.69 2429.34 1434.5 2542.86 1680.74C2656.39 1927.02 2667.87 2155.57 2550.74 2308.23C2433.6 2460.88 2209.86 2508.94 1942.6 2463.02C1675.36 2417.1 1364.77 2277.23 1074.21 2054.27C783.64 1831.31 568.152 1567.51 454.633 1321.27C341.1 1074.99 329.619 846.434 446.754 693.781C563.888 541.128 787.63 493.063 1054.9 538.987C1322.13 584.905 1632.72 724.773 1923.29 947.733Z" stroke="black" stroke-opacity="0.8" stroke-width="1.15556"/>
<path d="M2052.05 1923.37C1829.09 2213.93 1565.29 2429.42 1319.05 2542.94C1072.77 2656.47 844.214 2667.96 691.561 2550.82C538.908 2433.69 490.843 2209.94 536.766 1942.68C582.684 1675.44 722.553 1364.86 945.513 1074.29C1168.47 783.722 1432.27 568.234 1678.52 454.714C1924.79 341.182 2153.35 329.7 2306.01 446.835C2458.66 563.97 2506.72 787.712 2460.8 1054.98C2414.88 1322.21 2275.01 1632.8 2052.05 1923.37Z" stroke="black" stroke-opacity="0.8" stroke-width="1.15556"/>
<path d="M1679.96 827.988C2033.73 922.781 2333.77 1084.04 2532.88 1268.1C2732.01 1452.18 2830.09 1658.95 2780.29 1844.8C2730.49 2030.66 2542.17 2160.69 2277.67 2220.54C2013.21 2280.39 1672.74 2270.02 1318.96 2175.23C965.192 2080.43 665.155 1919.18 466.042 1735.12C266.907 1551.04 168.834 1344.27 218.635 1158.41C268.436 972.553 456.752 842.525 721.248 782.674C985.715 722.83 1326.18 733.195 1679.96 827.988Z" stroke="black" stroke-opacity="0.8" stroke-width="1.15556"/>
<path d="M2172.28 1680.08C2077.49 2033.86 1916.23 2333.89 1732.17 2533.01C1548.09 2732.14 1341.32 2830.21 1155.47 2780.41C969.607 2730.61 839.579 2542.3 779.728 2277.8C719.884 2013.33 730.25 1672.86 825.043 1319.09C919.836 965.319 1081.09 665.282 1265.15 466.169C1449.23 267.034 1656 168.961 1841.86 218.762C2027.72 268.563 2157.74 456.879 2217.6 721.375C2277.44 985.842 2267.07 1326.31 2172.28 1680.08Z" stroke="black" stroke-opacity="0.8" stroke-width="1.15556"/>
<path d="M1151.37 897.082C1468.55 713.956 1794.73 615.823 2065.68 605.18C2336.65 594.534 2552.21 671.392 2648.41 838.029C2744.62 1004.66 2703.4 1229.77 2558.7 1459.12C2414.01 1688.44 2165.93 1921.86 1848.75 2104.98C1531.56 2288.11 1205.38 2386.24 934.436 2396.89C663.461 2407.53 447.908 2330.67 351.7 2164.04C255.493 1997.4 296.709 1772.3 441.415 1542.95C586.105 1313.63 834.182 1080.21 1151.37 897.082Z" stroke="black" stroke-opacity="0.8" stroke-width="1.15556"/>
<path d="M2102.01 1151.47C2285.14 1468.66 2383.27 1794.84 2393.92 2065.79C2404.56 2336.76 2327.7 2552.31 2161.07 2648.52C1994.43 2744.73 1769.33 2703.51 1539.98 2558.81C1310.66 2414.12 1077.24 2166.04 894.114 1848.86C710.988 1531.67 612.855 1205.49 602.211 934.544C591.566 663.57 668.424 448.016 835.06 351.809C1001.7 255.601 1226.8 296.817 1456.15 441.523C1685.47 586.213 1918.89 834.291 2102.01 1151.47Z" stroke="black" stroke-opacity="0.8" stroke-width="1.15556"/>
<path d="M2184.88 1378.81C2248.47 1739.5 2229.13 2079.58 2146.46 2337.82C2063.79 2596.1 1917.84 2772.36 1728.35 2805.78C1538.86 2839.19 1341.42 2723.47 1175.4 2509.05C1009.39 2294.65 874.9 1981.7 811.301 1621.01C747.702 1260.32 767.05 920.247 849.716 662.002C932.391 403.729 1078.34 227.462 1267.83 194.049C1457.32 160.637 1654.75 276.357 1820.78 490.778C1986.78 705.175 2121.28 1018.13 2184.88 1378.81Z" stroke="black" stroke-opacity="0.8" stroke-width="1.15556"/>
<path d="M1620.68 2185.12C1260 2248.72 919.918 2229.37 661.674 2146.7C403.401 2064.03 227.133 1918.08 193.721 1728.59C160.308 1539.1 276.029 1341.67 490.45 1175.64C704.847 1009.64 1017.8 875.142 1378.48 811.543C1739.17 747.944 2079.25 767.292 2337.49 849.958C2595.77 932.634 2772.03 1078.58 2805.45 1268.07C2838.86 1457.56 2723.14 1655 2508.72 1821.02C2294.32 1987.03 1981.37 2121.52 1620.68 2185.12Z" stroke="black" stroke-opacity="0.8" stroke-width="1.15556"/>
<path d="M1898.81 929.777C2198.83 1139.85 2425.62 1394 2549.77 1635.06C2673.93 1876.15 2695.37 2103.99 2585.01 2261.61C2474.65 2419.22 2253.21 2477 1984.2 2442.78C1715.21 2408.56 1398.82 2282.37 1098.81 2072.3C798.79 1862.23 572 1608.08 447.847 1367.02C323.681 1125.93 302.241 898.089 412.605 740.472C522.97 582.855 744.402 525.076 1013.42 559.298C1282.4 593.516 1598.79 719.704 1898.81 929.777Z" stroke="black" stroke-opacity="0.8" stroke-width="1.15556"/>
<path d="M2070 1898.87C1859.93 2198.88 1605.78 2425.67 1364.72 2549.82C1123.63 2673.99 895.793 2695.43 738.176 2585.07C580.559 2474.7 522.78 2253.27 557.002 1984.25C591.22 1715.27 717.408 1398.88 927.481 1098.86C1137.55 798.846 1391.71 572.056 1632.77 447.904C1873.85 323.738 2101.69 302.297 2259.31 412.662C2416.93 523.027 2474.71 744.459 2440.48 1013.47C2406.27 1282.46 2280.08 1598.85 2070 1898.87Z" stroke="black" stroke-opacity="0.8" stroke-width="1.15556"/>
<path d="M1650.48 820.763C2008.05 900.035 2314.84 1048.05 2521.79 1223.25C2728.76 1398.47 2835.76 1600.76 2794.12 1788.62C2752.47 1976.47 2570.01 2114.59 2308.37 2185.92C2046.77 2257.24 1706.17 2261.74 1348.6 2182.47C991.029 2103.19 684.243 1955.18 477.291 1779.98C270.317 1604.76 163.318 1402.47 204.964 1214.61C246.61 1026.76 429.076 888.641 690.71 817.31C952.314 745.987 1292.91 741.492 1650.48 820.763Z" stroke="black" stroke-opacity="0.8" stroke-width="1.15556"/>
<path d="M2179.51 1650.57C2100.24 2008.14 1952.22 2314.92 1777.02 2521.88C1601.8 2728.85 1399.51 2835.85 1211.66 2794.2C1023.8 2752.56 885.683 2570.09 814.352 2308.46C743.029 2046.85 738.534 1706.26 817.806 1348.69C897.077 991.115 1045.09 684.329 1220.29 477.377C1395.51 270.402 1597.8 163.404 1785.66 205.05C1973.51 246.696 2111.63 429.162 2182.96 690.796C2254.28 952.4 2258.78 1293 2179.51 1650.57Z" stroke="black" stroke-opacity="0.8" stroke-width="1.15556"/>
<path d="M1125.41 912.843C1434.31 716.056 1755.9 603.789 2026.12 581.337C2296.37 558.882 2515.07 626.264 2618.46 788.546C2721.84 950.827 2690.49 1177.51 2555.92 1412.96C2421.37 1648.37 2183.71 1892.39 1874.82 2089.18C1565.92 2285.96 1244.33 2398.23 974.108 2420.68C703.856 2443.14 485.155 2375.75 381.771 2213.47C278.386 2051.19 309.744 1824.5 444.308 1589.06C578.858 1353.65 816.518 1109.63 1125.41 912.843Z" stroke="black" stroke-opacity="0.8" stroke-width="1.15556"/>
<path d="M2086.25 1125.53C2283.03 1434.42 2395.3 1756.02 2417.75 2026.24C2440.21 2296.49 2372.83 2515.19 2210.55 2618.58C2048.26 2721.96 1821.58 2690.6 1586.13 2556.04C1350.72 2421.49 1106.7 2183.83 909.916 1874.94C713.128 1566.04 600.862 1244.45 578.409 974.226C555.955 703.974 623.337 485.273 785.618 381.889C947.899 278.504 1174.59 309.862 1410.03 444.427C1645.44 578.976 1889.46 816.636 2086.25 1125.53Z" stroke="black" stroke-opacity="0.8" stroke-width="1.15556"/>
<path d="M2178.95 1349.04C2258.22 1706.61 2253.72 2047.2 2182.4 2308.81C2111.07 2570.44 1972.95 2752.91 1785.09 2794.55C1597.24 2836.2 1394.95 2729.2 1219.73 2522.23C1044.53 2315.27 896.514 2008.49 817.243 1650.92C737.971 1293.35 742.466 952.751 813.789 691.146C885.12 429.512 1023.24 247.046 1211.09 205.4C1398.95 163.754 1601.24 270.753 1776.46 477.728C1951.66 684.679 2099.67 991.465 2178.95 1349.04Z" stroke="black" stroke-opacity="0.8" stroke-width="1.15556"/>
<path d="M1650.47 2179.18C1292.9 2258.45 952.301 2253.96 690.696 2182.64C429.063 2111.31 246.597 1973.19 204.951 1785.33C163.305 1597.48 270.303 1395.19 477.278 1219.97C684.23 1044.77 991.016 896.752 1348.59 817.481C1706.16 738.209 2046.75 742.704 2308.36 814.028C2569.99 885.359 2752.46 1023.48 2794.1 1211.33C2835.75 1399.19 2728.75 1601.48 2521.78 1776.7C2314.82 1951.9 2008.04 2099.91 1650.47 2179.18Z" stroke="black" stroke-opacity="0.8" stroke-width="1.15556"/>
<path d="M1873.57 912.905C2182.46 1109.69 2420.12 1353.71 2554.67 1589.12C2689.23 1824.57 2720.59 2051.25 2617.21 2213.53C2513.82 2375.82 2295.12 2443.2 2024.87 2420.74C1754.65 2398.29 1433.06 2286.02 1124.16 2089.24C815.267 1892.45 577.607 1648.43 443.058 1413.02C308.494 1177.58 277.136 950.888 380.52 788.607C483.905 626.326 702.606 558.944 972.858 581.399C1243.08 603.851 1564.67 716.118 1873.57 912.905Z" stroke="black" stroke-opacity="0.8" stroke-width="1.15556"/>
<path d="M2086.88 1873.6C1890.09 2182.5 1646.08 2420.16 1410.66 2554.71C1175.22 2689.27 948.531 2720.63 786.25 2617.24C623.969 2513.86 556.586 2295.16 579.041 2024.91C601.493 1754.68 713.76 1433.09 910.547 1124.2C1107.33 815.302 1351.35 577.643 1586.77 443.093C1822.21 308.529 2048.9 277.171 2211.18 380.556C2373.46 483.94 2440.84 702.641 2418.39 972.893C2395.93 1243.11 2283.67 1564.71 2086.88 1873.6Z" stroke="black" stroke-opacity="0.8" stroke-width="1.15556"/>
<path d="M1620.73 814.824C1981.41 878.423 2294.36 1012.92 2508.76 1178.92C2723.18 1344.95 2838.9 1542.38 2805.49 1731.87C2772.08 1921.36 2595.81 2067.31 2337.54 2149.98C2079.29 2232.65 1739.22 2252 1378.53 2188.4C1017.84 2124.8 704.89 1990.31 490.493 1824.3C276.073 1658.28 160.352 1460.84 193.765 1271.35C227.177 1081.86 403.444 935.914 661.718 853.239C919.962 770.572 1260.04 751.225 1620.73 814.824Z" stroke="black" stroke-opacity="0.8" stroke-width="1.15556"/>
<path d="M2185.44 1620.77C2121.84 1981.45 1987.35 2294.4 1821.34 2508.8C1655.32 2723.22 1457.89 2838.94 1268.39 2805.53C1078.9 2772.12 932.956 2595.85 850.281 2337.58C767.614 2079.33 748.267 1739.26 811.866 1378.57C875.465 1017.88 1009.96 704.929 1175.96 490.532C1341.99 276.112 1539.42 160.391 1728.91 193.804C1918.4 227.216 2064.35 403.484 2147.03 661.757C2229.69 920.001 2249.04 1260.08 2185.44 1620.77Z" stroke="black" stroke-opacity="0.8" stroke-width="1.15556"/>
<path d="M1100.17 929.722C1400.18 719.648 1716.57 593.46 1985.56 559.243C2254.57 525.021 2476.01 582.8 2586.37 740.417C2696.74 898.034 2675.3 1125.87 2551.13 1366.96C2426.98 1608.02 2200.19 1862.17 1900.17 2072.25C1600.15 2282.32 1283.76 2408.51 1014.78 2442.72C745.763 2476.95 524.331 2419.17 413.966 2261.55C303.601 2103.93 325.042 1876.09 449.208 1635.01C573.361 1393.95 800.15 1139.8 1100.17 929.722Z" stroke="black" stroke-opacity="0.8" stroke-width="1.15556"/>
<path d="M2069.37 1100.29C2279.44 1400.31 2405.63 1716.7 2439.85 1985.69C2474.07 2254.7 2416.29 2476.13 2258.67 2586.5C2101.06 2696.86 1873.22 2675.42 1632.13 2551.26C1391.07 2427.1 1136.92 2200.31 926.844 1900.3C716.771 1600.28 590.583 1283.89 556.365 1014.91C522.144 745.89 579.922 524.458 737.539 414.093C895.156 303.728 1123 325.169 1364.08 449.335C1605.14 573.488 1859.29 800.277 2069.37 1100.29Z" stroke="black" stroke-opacity="0.8" stroke-width="1.15556"/>
<path d="M2171.73 1319.54C2266.52 1673.32 2276.89 2013.79 2217.04 2278.25C2157.19 2542.75 2027.16 2731.06 1841.3 2780.87C1655.44 2830.67 1448.68 2732.59 1264.6 2533.46C1080.54 2334.35 919.281 2034.31 824.488 1680.54C729.695 1326.76 719.329 986.295 779.173 721.828C839.024 457.332 969.052 269.015 1154.91 219.215C1340.77 169.414 1547.54 267.487 1731.62 466.622C1915.68 665.734 2076.93 965.772 2171.73 1319.54Z" stroke="black" stroke-opacity="0.8" stroke-width="1.15556"/>
<path d="M1679.96 2171.95C1326.18 2266.75 985.716 2277.11 721.249 2217.27C456.753 2157.42 268.436 2027.39 218.636 1841.53C168.835 1655.67 266.908 1448.91 466.043 1264.82C665.155 1080.76 965.193 919.507 1318.97 824.714C1672.74 729.921 2013.21 719.555 2277.67 779.4C2542.17 839.251 2730.49 969.279 2780.29 1155.14C2830.09 1341 2732.01 1547.76 2532.88 1731.84C2333.77 1915.9 2033.73 2077.16 1679.96 2171.95Z" stroke="black" stroke-opacity="0.8" stroke-width="1.15556"/>
<path d="M1847.61 897.147C2164.8 1080.27 2412.88 1313.69 2557.57 1543.01C2702.27 1772.36 2743.49 1997.47 2647.28 2164.1C2551.07 2330.74 2335.52 2407.6 2064.54 2396.95C1793.6 2386.31 1467.42 2288.17 1150.23 2105.05C833.048 1921.92 584.971 1688.5 440.281 1459.18C295.575 1229.83 254.359 1004.73 350.566 838.094C446.774 671.458 662.328 594.6 933.302 605.245C1204.25 615.889 1530.43 714.021 1847.61 897.147Z" stroke="black" stroke-opacity="0.8" stroke-width="1.15556"/>
<path d="M2102.63 1847.63C1919.5 2164.81 1686.09 2412.89 1456.76 2557.58C1227.42 2702.29 1002.31 2743.5 835.676 2647.29C669.039 2551.09 592.181 2335.53 602.827 2064.56C613.471 1793.62 711.603 1467.43 894.729 1150.25C1077.85 833.063 1311.27 584.986 1540.6 440.296C1769.94 295.59 1995.05 254.374 2161.68 350.581C2328.32 446.789 2405.18 662.343 2394.53 933.317C2383.89 1204.26 2285.76 1530.45 2102.63 1847.63Z" stroke="black" stroke-opacity="0.8" stroke-width="1.15556"/>
<path d="M1590.73 810.193C1953.85 857.998 2272.37 978.713 2493.8 1135.21C2715.26 1291.72 2839.48 1483.92 2814.37 1674.69C2789.25 1865.46 2619.52 2018.95 2365.1 2112.82C2110.7 2206.67 1771.79 2240.83 1408.68 2193.02C1045.56 2145.22 727.038 2024.5 505.604 1868.01C284.145 1711.5 159.923 1519.3 185.038 1328.53C210.153 1137.76 379.887 984.265 634.308 890.403C888.701 796.55 1227.61 762.387 1590.73 810.193Z" stroke="black" stroke-opacity="0.8" stroke-width="1.15556"/>
<path d="M2190.06 1590.73C2142.26 1953.85 2021.54 2272.37 1865.05 2493.8C1708.54 2715.26 1516.34 2839.48 1325.57 2814.37C1134.8 2789.25 981.305 2619.52 887.443 2365.1C793.591 2110.7 759.428 1771.8 807.233 1408.68C855.039 1045.56 975.754 727.04 1132.25 505.606C1288.76 284.147 1480.96 159.925 1671.73 185.04C1862.5 210.155 2015.99 379.889 2109.86 634.31C2203.71 888.703 2237.87 1227.61 2190.06 1590.73Z" stroke="black" stroke-opacity="0.8" stroke-width="1.15556"/>
<path d="M1075.68 947.683C1366.25 724.723 1676.83 584.855 1944.07 538.937C2211.34 493.013 2435.08 541.078 2552.21 693.731C2669.35 846.384 2657.86 1074.94 2544.33 1321.22C2430.81 1567.46 2215.33 1831.26 1924.76 2054.22C1634.19 2277.18 1323.61 2417.05 1056.37 2462.97C789.102 2508.89 565.36 2460.83 448.226 2308.18C331.091 2155.52 342.572 1926.97 456.104 1680.69C569.624 1434.45 785.112 1170.64 1075.68 947.683Z" stroke="black" stroke-opacity="0.8" stroke-width="1.15556"/>
<path d="M2051.4 1075.82C2274.36 1366.39 2414.23 1676.97 2460.15 1944.21C2506.07 2211.47 2458.01 2435.22 2305.36 2552.35C2152.7 2669.48 1924.14 2658 1677.87 2544.47C1431.62 2430.95 1167.82 2215.46 944.863 1924.9C721.903 1634.33 582.034 1323.74 536.116 1056.51C490.193 789.241 538.257 565.499 690.911 448.364C843.564 331.23 1072.12 342.711 1318.4 456.243C1564.64 569.763 1828.44 785.251 2051.4 1075.82Z" stroke="black" stroke-opacity="0.8" stroke-width="1.15556"/>
<path d="M2163.23 1290.4C2273.36 1639.7 2298.57 1979.39 2250.32 2246.21C2202.06 2513.07 2080.37 2706.88 1896.86 2764.74C1713.35 2822.6 1502.5 2733.64 1309.91 2542.72C1117.34 2351.83 943.15 2059.11 833.016 1709.81C722.882 1360.51 697.675 1020.82 745.926 753.99C794.183 487.135 915.873 293.326 1099.38 235.465C1282.89 177.605 1493.74 266.566 1686.33 457.482C1878.9 648.376 2053.09 941.094 2163.23 1290.4Z" stroke="black" stroke-opacity="0.8" stroke-width="1.15556"/>
<path d="M1709.11 2163.44C1359.8 2273.58 1020.11 2298.79 753.287 2250.53C486.432 2202.28 292.623 2080.59 234.762 1897.08C176.902 1713.57 265.862 1502.72 456.778 1310.13C647.673 1117.56 940.391 943.369 1289.69 833.235C1638.99 723.1 1978.69 697.893 2245.51 746.145C2512.37 794.402 2706.17 916.092 2764.04 1099.6C2821.9 1283.11 2732.93 1493.96 2542.02 1686.55C2351.12 1879.12 2058.41 2053.31 1709.11 2163.44Z" stroke="black" stroke-opacity="0.8" stroke-width="1.15556"/>
<path d="M1820.99 882.542C2145.86 1051.66 2403.89 1274.03 2558.44 1496.83C2713.01 1719.64 2764.01 1942.74 2675.16 2113.41C2586.31 2284.08 2374.32 2370.27 2103.14 2371.46C1831.99 2372.64 1501.83 2288.83 1176.96 2119.71C852.093 1950.6 594.07 1728.22 439.515 1505.43C284.943 1282.61 233.947 1059.52 322.794 888.845C411.642 718.17 623.638 631.983 894.819 630.799C1165.97 629.614 1496.12 713.425 1820.99 882.542Z" stroke="black" stroke-opacity="0.8" stroke-width="1.15556"/>
<path d="M2117.23 1820.99C1948.11 2145.86 1725.74 2403.89 1502.94 2558.44C1280.13 2713.01 1057.03 2764.01 886.36 2675.16C715.686 2586.31 629.499 2374.32 628.314 2103.14C627.13 1831.99 710.941 1501.83 880.057 1176.96C1049.17 852.093 1271.55 594.07 1494.34 439.515C1717.16 284.943 1940.25 233.947 2110.92 322.794C2281.6 411.642 2367.79 623.638 2368.97 894.819C2370.16 1165.97 2286.34 1496.12 2117.23 1820.99Z" stroke="black" stroke-opacity="0.8" stroke-width="1.15556"/>
<path d="M1560.57 806.869C1925.42 838.79 2248.91 945.496 2476.96 1092.18C2705.03 1238.89 2837.52 1425.48 2820.75 1617.17C2803.98 1808.85 2641.1 1969.6 2391.02 2074.47C2140.96 2179.33 1803.86 2228.25 1439 2196.33C1074.15 2164.4 750.665 2057.7 522.615 1911.01C294.54 1764.31 162.053 1577.71 178.823 1386.03C195.593 1194.34 358.469 1033.59 608.554 928.72C858.611 823.861 1195.71 774.948 1560.57 806.869Z" stroke="black" stroke-opacity="0.8" stroke-width="1.15556"/>
<path d="M2193.37 1560.52C2161.45 1925.38 2054.74 2248.86 1908.06 2476.91C1761.35 2704.99 1574.76 2837.48 1383.07 2820.71C1191.39 2803.94 1030.64 2641.06 925.767 2390.97C820.907 2140.92 771.994 1803.82 803.915 1438.96C835.836 1074.1 942.542 750.623 1089.23 522.574C1235.93 294.499 1422.53 162.011 1614.21 178.781C1805.9 195.551 1966.65 358.428 2071.52 608.513C2176.38 858.57 2225.29 1195.67 2193.37 1560.52Z" stroke="black" stroke-opacity="0.8" stroke-width="1.15556"/>
<path d="M1052.01 966.699C1332.58 731.277 1636.76 577.994 1901.74 520.463C2166.75 462.925 2392.38 501.185 2516.06 648.583C2639.74 795.981 2638.24 1024.82 2535.56 1275.81C2432.89 1526.78 2229.11 1799.73 1948.55 2035.15C1667.98 2270.57 1363.79 2423.86 1098.81 2481.39C833.805 2538.92 608.18 2500.66 484.498 2353.27C360.816 2205.87 362.317 1977.03 464.999 1726.03C567.669 1475.07 771.445 1202.12 1052.01 966.699Z" stroke="black" stroke-opacity="0.8" stroke-width="1.15556"/>
<path d="M2032.39 1052.15C2267.81 1332.72 2421.09 1636.91 2478.62 1901.88C2536.16 2166.89 2497.9 2392.52 2350.5 2516.2C2203.1 2639.88 1974.26 2638.38 1723.27 2535.7C1472.31 2433.03 1199.36 2229.25 963.935 1948.69C728.512 1668.12 575.23 1363.93 517.698 1098.95C460.161 833.946 498.421 608.321 645.819 484.639C793.217 360.957 1022.06 362.458 1273.05 465.14C1524.01 567.81 1796.96 771.586 2032.39 1052.15Z" stroke="black" stroke-opacity="0.8" stroke-width="1.15556"/>
<path d="M2153.46 1261.64C2278.73 1605.81 2318.73 1944.08 2282.16 2212.76C2245.59 2481.46 2132.47 2680.39 1951.66 2746.2C1770.85 2812.01 1556.32 2732.33 1355.58 2550C1154.87 2367.69 968.076 2082.85 842.811 1738.68C717.545 1394.52 677.545 1056.25 714.112 787.572C750.683 518.866 863.803 319.933 1044.61 254.123C1225.43 188.314 1439.95 267.993 1640.69 450.326C1841.4 632.639 2028.19 917.48 2153.46 1261.64Z" stroke="black" stroke-opacity="0.8" stroke-width="1.15556"/>
<path d="M1737.87 2153.67C1393.7 2278.94 1055.43 2318.94 786.755 2282.37C518.049 2245.8 319.116 2132.68 253.307 1951.87C187.497 1771.06 267.176 1556.53 449.509 1355.79C631.822 1155.08 916.664 968.287 1260.83 843.022C1604.99 717.756 1943.26 677.756 2211.94 714.323C2480.64 750.893 2679.58 864.014 2745.39 1044.83C2811.2 1225.64 2731.52 1440.16 2549.18 1640.9C2366.87 1841.61 2082.03 2028.41 1737.87 2153.67Z" stroke="black" stroke-opacity="0.8" stroke-width="1.15556"/>
<path d="M1793.77 869.107C2125.71 1023.89 2393.18 1234.8 2557.31 1450.64C2721.45 1666.5 2782.13 1887.16 2700.81 2061.55C2619.5 2235.93 2411.46 2331.28 2140.59 2344.3C1869.75 2357.31 1536.25 2287.98 1204.32 2133.19C872.38 1978.41 604.902 1767.5 440.776 1551.66C276.632 1335.8 215.954 1115.14 297.272 940.755C378.59 766.368 586.625 671.016 857.495 658.003C1128.34 644.992 1461.83 714.322 1793.77 869.107Z" stroke="black" stroke-opacity="0.8" stroke-width="1.15556"/>
<path d="M2130.65 1793.74C1975.87 2125.68 1764.96 2393.16 1549.12 2557.28C1333.26 2721.43 1112.6 2782.11 938.213 2700.79C763.826 2619.47 668.474 2411.44 655.462 2140.56C642.451 1869.72 711.781 1536.23 866.566 1204.29C1021.35 872.353 1232.26 604.876 1448.1 440.75C1663.96 276.605 1884.62 215.927 2059 297.245C2233.39 378.563 2328.74 586.598 2341.76 857.469C2354.77 1128.31 2285.44 1461.81 2130.65 1793.74Z" stroke="black" stroke-opacity="0.8" stroke-width="1.15556"/>
<path d="M1530.29 804.865C1896.19 820.84 2224.02 913.335 2458.25 1049.94C2692.51 1186.55 2833.01 1367.19 2824.61 1559.42C2816.22 1751.65 2660.51 1919.36 2415.24 2035.04C2169.99 2150.71 1835.35 2214.28 1469.45 2198.3C1103.54 2182.33 775.717 2089.83 541.486 1953.23C307.229 1816.61 166.728 1635.98 175.121 1443.74C183.514 1251.51 339.224 1083.81 584.496 968.127C829.741 852.46 1164.38 788.889 1530.29 804.865Z" stroke="black" stroke-opacity="0.8" stroke-width="1.15556"/>
<path d="M2195.37 1530.2C2179.39 1896.11 2086.9 2223.93 1950.3 2458.16C1813.68 2692.42 1633.04 2832.92 1440.81 2824.53C1248.58 2816.14 1080.87 2660.43 965.193 2415.15C849.526 2169.91 785.955 1835.27 801.931 1469.36C817.907 1103.46 910.402 775.632 1047 541.401C1183.62 307.144 1364.26 166.643 1556.49 175.036C1748.72 183.429 1916.43 339.139 2032.11 584.411C2147.77 829.656 2211.34 1164.3 2195.37 1530.2Z" stroke="black" stroke-opacity="0.8" stroke-width="1.15556"/>
<path d="M1029.17 986.731C1299.2 739.294 1596.42 572.889 1858.63 503.854C2120.88 434.812 2347.96 463.193 2477.95 605.057C2607.95 746.92 2616.43 975.609 2524.79 1230.84C2433.17 1486.04 2241.49 1767.62 1971.46 2015.06C1701.43 2262.5 1404.22 2428.9 1142 2497.94C879.755 2566.98 652.676 2538.6 522.682 2396.73C392.689 2254.87 384.206 2026.18 475.842 1770.95C567.468 1515.75 759.144 1234.17 1029.17 986.731Z" stroke="black" stroke-opacity="0.8" stroke-width="1.15556"/>
<path d="M2012.35 1029.33C2259.79 1299.36 2426.2 1596.58 2495.23 1858.79C2564.27 2121.04 2535.89 2348.12 2394.03 2478.11C2252.16 2608.11 2023.48 2616.59 1768.24 2524.95C1513.04 2433.33 1231.46 2241.65 984.025 1971.62C736.589 1701.59 570.184 1404.38 501.149 1142.16C432.107 879.915 460.488 652.836 602.351 522.842C744.215 392.849 972.903 384.366 1228.13 476.002C1483.34 567.628 1764.92 759.304 2012.35 1029.33Z" stroke="black" stroke-opacity="0.8" stroke-width="1.15556"/>
</g>
</svg>
