<svg width="44" height="50" viewBox="0 0 44 50" fill="none" xmlns="http://www.w3.org/2000/svg">
<path d="M21.5613 48.3346C25.5098 48.3346 28.9063 45.4663 28.9063 41.7005C28.9063 37.9347 25.5098 35.0663 21.5613 35.0663C17.6128 35.0663 14.2163 37.9347 14.2163 41.7005C14.2163 45.4663 17.6128 48.3346 21.5613 48.3346Z" fill="#EB6060" stroke="white" stroke-width="1.89548"/>
<path fill-rule="evenodd" clip-rule="evenodd" d="M6.35776 18.7422C6.35776 10.3865 13.3402 3.633 21.7861 3.633C30.2558 3.633 37.2382 10.3865 37.2382 18.7422C37.2382 22.9527 35.7069 26.8617 33.1865 30.1749C30.406 33.8296 26.9789 37.0138 23.1214 39.5133C22.2385 40.0909 21.4417 40.1345 20.4728 39.5133C16.5932 37.0138 13.1662 33.8296 10.4095 30.1749C7.88722 26.8617 6.35776 22.9527 6.35776 18.7422ZM16.7013 19.2126C16.7013 22.0118 18.9854 24.2133 21.7861 24.2133C24.5885 24.2133 26.8946 22.0118 26.8946 19.2126C26.8946 16.4353 24.5885 14.1266 21.7861 14.1266C18.9854 14.1266 16.7013 16.4353 16.7013 19.2126Z" fill="#200E32"/>
</svg>
