<svg width="360" height="640" viewBox="0 0 360 640" fill="none" xmlns="http://www.w3.org/2000/svg">
<g clip-path="url(#clip0_1_1279)">
<rect width="360" height="640" rx="20" fill="white"/>
<rect x="30.25" y="43.25" width="299.5" height="553.5" rx="9.75" stroke="#434343" stroke-opacity="0.4" stroke-width="0.5"/>
<rect x="110" y="547" width="140" height="93" fill="white"/>
<rect x="83" y="84" width="277" height="420" fill="white"/>
<rect y="129" width="277" height="427" fill="white"/>
<path d="M135.301 592.576L132.313 601H129.745L126.757 592.576H128.941L131.029 598.936L133.129 592.576H135.301ZM142.95 597.544C142.95 597.736 142.938 597.936 142.914 598.144H138.27C138.302 598.56 138.434 598.88 138.666 599.104C138.906 599.32 139.198 599.428 139.542 599.428C140.054 599.428 140.41 599.212 140.61 598.78H142.794C142.682 599.22 142.478 599.616 142.182 599.968C141.894 600.32 141.53 600.596 141.09 600.796C140.65 600.996 140.158 601.096 139.614 601.096C138.958 601.096 138.374 600.956 137.862 600.676C137.35 600.396 136.95 599.996 136.662 599.476C136.374 598.956 136.23 598.348 136.23 597.652C136.23 596.956 136.37 596.348 136.65 595.828C136.938 595.308 137.338 594.908 137.85 594.628C138.362 594.348 138.95 594.208 139.614 594.208C140.262 594.208 140.838 594.344 141.342 594.616C141.846 594.888 142.238 595.276 142.518 595.78C142.806 596.284 142.95 596.872 142.95 597.544ZM140.85 597.004C140.85 596.652 140.73 596.372 140.49 596.164C140.25 595.956 139.95 595.852 139.59 595.852C139.246 595.852 138.954 595.952 138.714 596.152C138.482 596.352 138.338 596.636 138.282 597.004H140.85ZM147.237 601.096C146.653 601.096 146.133 600.996 145.677 600.796C145.221 600.596 144.861 600.324 144.597 599.98C144.333 599.628 144.185 599.236 144.153 598.804H146.181C146.205 599.036 146.313 599.224 146.505 599.368C146.697 599.512 146.933 599.584 147.213 599.584C147.469 599.584 147.665 599.536 147.801 599.44C147.945 599.336 148.017 599.204 148.017 599.044C148.017 598.852 147.917 598.712 147.717 598.624C147.517 598.528 147.193 598.424 146.745 598.312C146.265 598.2 145.865 598.084 145.545 597.964C145.225 597.836 144.949 597.64 144.717 597.376C144.485 597.104 144.369 596.74 144.369 596.284C144.369 595.9 144.473 595.552 144.681 595.24C144.897 594.92 145.209 594.668 145.617 594.484C146.033 594.3 146.525 594.208 147.093 594.208C147.933 594.208 148.593 594.416 149.073 594.832C149.561 595.248 149.841 595.8 149.913 596.488H148.017C147.985 596.256 147.881 596.072 147.705 595.936C147.537 595.8 147.313 595.732 147.033 595.732C146.793 595.732 146.609 595.78 146.481 595.876C146.353 595.964 146.289 596.088 146.289 596.248C146.289 596.44 146.389 596.584 146.589 596.68C146.797 596.776 147.117 596.872 147.549 596.968C148.045 597.096 148.449 597.224 148.761 597.352C149.073 597.472 149.345 597.672 149.577 597.952C149.817 598.224 149.941 598.592 149.949 599.056C149.949 599.448 149.837 599.8 149.613 600.112C149.397 600.416 149.081 600.656 148.665 600.832C148.257 601.008 147.781 601.096 147.237 601.096ZM155.416 599.26V601H154.372C153.628 601 153.048 600.82 152.632 600.46C152.216 600.092 152.008 599.496 152.008 598.672V596.008H151.192V594.304H152.008V592.672H154.06V594.304H155.404V596.008H154.06V598.696C154.06 598.896 154.108 599.04 154.204 599.128C154.3 599.216 154.46 599.26 154.684 599.26H155.416ZM163.351 597.544C163.351 597.736 163.339 597.936 163.315 598.144H158.671C158.703 598.56 158.835 598.88 159.067 599.104C159.307 599.32 159.599 599.428 159.943 599.428C160.455 599.428 160.811 599.212 161.011 598.78H163.195C163.083 599.22 162.879 599.616 162.583 599.968C162.295 600.32 161.931 600.596 161.491 600.796C161.051 600.996 160.559 601.096 160.015 601.096C159.359 601.096 158.775 600.956 158.263 600.676C157.751 600.396 157.351 599.996 157.063 599.476C156.775 598.956 156.631 598.348 156.631 597.652C156.631 596.956 156.771 596.348 157.051 595.828C157.339 595.308 157.739 594.908 158.251 594.628C158.763 594.348 159.351 594.208 160.015 594.208C160.663 594.208 161.239 594.344 161.743 594.616C162.247 594.888 162.639 595.276 162.919 595.78C163.207 596.284 163.351 596.872 163.351 597.544ZM161.251 597.004C161.251 596.652 161.131 596.372 160.891 596.164C160.651 595.956 160.351 595.852 159.991 595.852C159.647 595.852 159.355 595.952 159.115 596.152C158.883 596.352 158.739 596.636 158.683 597.004H161.251ZM166.966 592.12V601H164.914V592.12H166.966ZM174.008 592.576V601H171.956V592.576H174.008ZM172.976 591.808C172.728 591.808 172.52 591.724 172.352 591.556C172.184 591.388 172.1 591.18 172.1 590.932C172.1 590.684 172.184 590.476 172.352 590.308C172.52 590.132 172.728 590.044 172.976 590.044C173.232 590.044 173.444 590.128 173.612 590.296C173.78 590.464 173.864 590.676 173.864 590.932C173.864 591.18 173.776 591.388 173.6 591.556C173.432 591.724 173.224 591.808 172.976 591.808ZM175.567 597.64C175.567 596.952 175.695 596.348 175.951 595.828C176.215 595.308 176.571 594.908 177.019 594.628C177.467 594.348 177.967 594.208 178.519 594.208C178.959 594.208 179.359 594.3 179.719 594.484C180.087 594.668 180.375 594.916 180.583 595.228V592.12H182.635V601H180.583V600.04C180.391 600.36 180.115 600.616 179.755 600.808C179.403 601 178.991 601.096 178.519 601.096C177.967 601.096 177.467 600.956 177.019 600.676C176.571 600.388 176.215 599.984 175.951 599.464C175.695 598.936 175.567 598.328 175.567 597.64ZM180.583 597.652C180.583 597.14 180.439 596.736 180.151 596.44C179.871 596.144 179.527 595.996 179.119 595.996C178.711 595.996 178.363 596.144 178.075 596.44C177.795 596.728 177.655 597.128 177.655 597.64C177.655 598.152 177.795 598.56 178.075 598.864C178.363 599.16 178.711 599.308 179.119 599.308C179.527 599.308 179.871 599.16 180.151 598.864C180.439 598.568 180.583 598.164 180.583 597.652ZM184.191 597.64C184.191 596.952 184.319 596.348 184.575 595.828C184.839 595.308 185.195 594.908 185.643 594.628C186.091 594.348 186.591 594.208 187.143 594.208C187.615 594.208 188.027 594.304 188.379 594.496C188.739 594.688 189.015 594.94 189.207 595.252V594.304H191.259V601H189.207V600.052C189.007 600.364 188.727 600.616 188.367 600.808C188.015 601 187.603 601.096 187.131 601.096C186.587 601.096 186.091 600.956 185.643 600.676C185.195 600.388 184.839 599.984 184.575 599.464C184.319 598.936 184.191 598.328 184.191 597.64ZM189.207 597.652C189.207 597.14 189.063 596.736 188.775 596.44C188.495 596.144 188.151 595.996 187.743 595.996C187.335 595.996 186.987 596.144 186.699 596.44C186.419 596.728 186.279 597.128 186.279 597.64C186.279 598.152 186.419 598.56 186.699 598.864C186.987 599.16 187.335 599.308 187.743 599.308C188.151 599.308 188.495 599.16 188.775 598.864C189.063 598.568 189.207 598.164 189.207 597.652ZM195.276 595.42C195.516 595.052 195.816 594.764 196.176 594.556C196.536 594.34 196.936 594.232 197.376 594.232V596.404H196.812C196.3 596.404 195.916 596.516 195.66 596.74C195.404 596.956 195.276 597.34 195.276 597.892V601H193.224V594.304H195.276V595.42ZM199.869 593.608C199.509 593.608 199.213 593.504 198.981 593.296C198.757 593.08 198.645 592.816 198.645 592.504C198.645 592.184 198.757 591.92 198.981 591.712C199.213 591.496 199.509 591.388 199.869 591.388C200.221 591.388 200.509 591.496 200.733 591.712C200.965 591.92 201.081 592.184 201.081 592.504C201.081 592.816 200.965 593.08 200.733 593.296C200.509 593.504 200.221 593.608 199.869 593.608ZM200.889 594.304V601H198.837V594.304H200.889ZM207.931 592.576V601H205.879V592.576H207.931ZM206.899 591.808C206.651 591.808 206.443 591.724 206.275 591.556C206.107 591.388 206.023 591.18 206.023 590.932C206.023 590.684 206.107 590.476 206.275 590.308C206.443 590.132 206.651 590.044 206.899 590.044C207.155 590.044 207.367 590.128 207.535 590.296C207.703 590.464 207.787 590.676 207.787 590.932C207.787 591.18 207.699 591.388 207.523 591.556C207.355 591.724 207.147 591.808 206.899 591.808ZM213.282 601.492C213.698 601.492 214.062 601.604 214.374 601.828C214.686 602.06 214.842 602.404 214.842 602.86C214.842 603.316 214.678 603.66 214.35 603.892C214.022 604.132 213.63 604.252 213.174 604.252H211.326V603.124H212.898C213.058 603.124 213.178 603.1 213.258 603.052C213.338 603.004 213.378 602.924 213.378 602.812C213.378 602.7 213.338 602.62 213.258 602.572C213.178 602.532 213.058 602.512 212.898 602.512H212.046V601.06C211.318 600.964 210.726 600.712 210.27 600.304C209.822 599.888 209.578 599.388 209.538 598.804H211.566C211.59 599.036 211.698 599.224 211.89 599.368C212.082 599.512 212.318 599.584 212.598 599.584C212.854 599.584 213.05 599.536 213.186 599.44C213.33 599.336 213.402 599.204 213.402 599.044C213.402 598.852 213.302 598.712 213.102 598.624C212.902 598.528 212.578 598.424 212.13 598.312C211.65 598.2 211.25 598.084 210.93 597.964C210.61 597.836 210.334 597.64 210.102 597.376C209.87 597.104 209.754 596.74 209.754 596.284C209.754 595.9 209.858 595.552 210.066 595.24C210.282 594.92 210.594 594.668 211.002 594.484C211.418 594.3 211.91 594.208 212.478 594.208C213.318 594.208 213.978 594.416 214.458 594.832C214.946 595.248 215.226 595.8 215.298 596.488H213.402C213.37 596.256 213.266 596.072 213.09 595.936C212.922 595.8 212.698 595.732 212.418 595.732C212.178 595.732 211.994 595.78 211.866 595.876C211.738 595.964 211.674 596.088 211.674 596.248C211.674 596.44 211.774 596.584 211.974 596.68C212.182 596.776 212.502 596.872 212.934 596.968C213.43 597.096 213.834 597.224 214.146 597.352C214.458 597.472 214.73 597.672 214.962 597.952C215.202 598.224 215.326 598.592 215.334 599.056C215.334 599.568 215.15 600.004 214.782 600.364C214.422 600.716 213.922 600.944 213.282 601.048V601.492ZM219.121 592.12V601H217.069V592.12H219.121ZM227.4 597.544C227.4 597.736 227.388 597.936 227.364 598.144H222.72C222.752 598.56 222.884 598.88 223.116 599.104C223.356 599.32 223.648 599.428 223.992 599.428C224.504 599.428 224.86 599.212 225.06 598.78H227.244C227.132 599.22 226.928 599.616 226.632 599.968C226.344 600.32 225.98 600.596 225.54 600.796C225.1 600.996 224.608 601.096 224.064 601.096C223.408 601.096 222.824 600.956 222.312 600.676C221.8 600.396 221.4 599.996 221.112 599.476C220.824 598.956 220.68 598.348 220.68 597.652C220.68 596.956 220.82 596.348 221.1 595.828C221.388 595.308 221.788 594.908 222.3 594.628C222.812 594.348 223.4 594.208 224.064 594.208C224.712 594.208 225.288 594.344 225.792 594.616C226.296 594.888 226.688 595.276 226.968 595.78C227.256 596.284 227.4 596.872 227.4 597.544ZM225.3 597.004C225.3 596.652 225.18 596.372 224.94 596.164C224.7 595.956 224.4 595.852 224.04 595.852C223.696 595.852 223.404 595.952 223.164 596.152C222.932 596.352 222.788 596.636 222.732 597.004H225.3ZM231.015 595.42C231.255 595.052 231.555 594.764 231.915 594.556C232.275 594.34 232.675 594.232 233.115 594.232V596.404H232.551C232.039 596.404 231.655 596.516 231.399 596.74C231.143 596.956 231.015 597.34 231.015 597.892V601H228.963V594.304H231.015V595.42Z" fill="#434343" fill-opacity="0.8"/>
<g clip-path="url(#clip1_1_1279)">
<path d="M52.9001 129C50.4001 129.1 43.2001 129.2 41.4001 129.3C32.7001 129.9 30.9001 131.7 30.3001 140.4C30.2001 142.2 30.1001 154.4 30.0001 156.9C29.9001 154.4 29.8001 142.2 29.7001 140.4C29.1001 131.7 27.3001 129.9 18.6001 129.3C16.8001 129.2 9.6001 129.1 7.1001 129C9.6001 128.9 16.8001 128.8 18.6001 128.7C27.3001 128.1 29.1001 126.3 29.7001 117.6C29.8001 115.8 29.9001 103.6 30.0001 101.1C30.1001 103.6 30.2001 115.8 30.3001 117.6C30.9001 126.3 32.7001 128.1 41.4001 128.7C43.2001 128.8 50.3001 128.9 52.9001 129Z" fill="#434343" fill-opacity="0.8"/>
</g>
<g clip-path="url(#clip2_1_1279)">
<path d="M352.9 504C350.4 504.1 343.2 504.2 341.4 504.3C332.7 504.9 330.9 506.7 330.3 515.4C330.2 517.2 330.1 529.4 330 531.9C329.9 529.4 329.8 517.2 329.7 515.4C329.1 506.7 327.3 504.9 318.6 504.3C316.8 504.2 309.6 504.1 307.1 504C309.6 503.9 316.8 503.8 318.6 503.7C327.3 503.1 329.1 501.3 329.7 492.6C329.8 490.8 329.9 478.6 330 476.1C330.1 478.6 330.2 490.8 330.3 492.6C330.9 501.3 332.7 503.1 341.4 503.7C343.2 503.8 350.3 503.9 352.9 504Z" fill="#434343" fill-opacity="0.8"/>
</g>
<g clip-path="url(#clip3_1_1279)">
<path d="M87.9001 84C85.4001 84.1 78.2001 84.2 76.4001 84.3C67.7001 84.9 65.9001 86.7 65.3001 95.4C65.2001 97.2 65.1001 109.4 65.0001 111.9C64.9001 109.4 64.8001 97.2 64.7001 95.4C64.1001 86.7 62.3001 84.9 53.6001 84.3C51.8001 84.2 44.6001 84.1 42.1001 84C44.6001 83.9 51.8001 83.8 53.6001 83.7C62.3001 83.1 64.1001 81.3 64.7001 72.6C64.8001 70.8 64.9001 58.6 65.0001 56.1C65.1001 58.6 65.2001 70.8 65.3001 72.6C65.9001 81.3 67.7001 83.1 76.4001 83.7C78.2001 83.8 85.3001 83.9 87.9001 84Z" fill="#434343" fill-opacity="0.4"/>
</g>
<g clip-path="url(#clip4_1_1279)">
<path d="M317.9 556C315.4 556.1 308.2 556.2 306.4 556.3C297.7 556.9 295.9 558.7 295.3 567.4C295.2 569.2 295.1 581.4 295 583.9C294.9 581.4 294.8 569.2 294.7 567.4C294.1 558.7 292.3 556.9 283.6 556.3C281.8 556.2 274.6 556.1 272.1 556C274.6 555.9 281.8 555.8 283.6 555.7C292.3 555.1 294.1 553.3 294.7 544.6C294.8 542.8 294.9 530.6 295 528.1C295.1 530.6 295.2 542.8 295.3 544.6C295.9 553.3 297.7 555.1 306.4 555.7C308.2 555.8 315.3 555.9 317.9 556Z" fill="#434343" fill-opacity="0.4"/>
</g>
<path d="M61.915 209.8C63.745 210.19 65.215 211.105 66.325 212.545C67.435 213.955 67.99 215.575 67.99 217.405C67.99 220.045 67.06 222.145 65.2 223.705C63.37 225.235 60.805 226 57.505 226H42.79V194.41H57.01C60.22 194.41 62.725 195.145 64.525 196.615C66.355 198.085 67.27 200.08 67.27 202.6C67.27 204.46 66.775 206.005 65.785 207.235C64.825 208.465 63.535 209.32 61.915 209.8ZM50.485 207.19H55.525C56.785 207.19 57.745 206.92 58.405 206.38C59.095 205.81 59.44 204.985 59.44 203.905C59.44 202.825 59.095 202 58.405 201.43C57.745 200.86 56.785 200.575 55.525 200.575H50.485V207.19ZM56.155 219.79C57.445 219.79 58.435 219.505 59.125 218.935C59.845 218.335 60.205 217.48 60.205 216.37C60.205 215.26 59.83 214.39 59.08 213.76C58.36 213.13 57.355 212.815 56.065 212.815H50.485V219.79H56.155ZM77.2231 198.28C75.8731 198.28 74.7631 197.89 73.8931 197.11C73.0531 196.3 72.6331 195.31 72.6331 194.14C72.6331 192.94 73.0531 191.95 73.8931 191.17C74.7631 190.36 75.8731 189.955 77.2231 189.955C78.5431 189.955 79.6231 190.36 80.4631 191.17C81.3331 191.95 81.7681 192.94 81.7681 194.14C81.7681 195.31 81.3331 196.3 80.4631 197.11C79.6231 197.89 78.5431 198.28 77.2231 198.28ZM81.0481 200.89V226H73.3531V200.89H81.0481ZM94.7246 219.655H105.615V226H86.1296V219.88L96.5696 207.235H86.2196V200.89H105.39V207.01L94.7246 219.655ZM134.419 213.04C134.419 213.76 134.374 214.51 134.284 215.29H116.869C116.989 216.85 117.484 218.05 118.354 218.89C119.254 219.7 120.349 220.105 121.639 220.105C123.559 220.105 124.894 219.295 125.644 217.675H133.834C133.414 219.325 132.649 220.81 131.539 222.13C130.459 223.45 129.094 224.485 127.444 225.235C125.794 225.985 123.949 226.36 121.909 226.36C119.449 226.36 117.259 225.835 115.339 224.785C113.419 223.735 111.919 222.235 110.839 220.285C109.759 218.335 109.219 216.055 109.219 213.445C109.219 210.835 109.744 208.555 110.794 206.605C111.874 204.655 113.374 203.155 115.294 202.105C117.214 201.055 119.419 200.53 121.909 200.53C124.339 200.53 126.499 201.04 128.389 202.06C130.279 203.08 131.749 204.535 132.799 206.425C133.879 208.315 134.419 210.52 134.419 213.04ZM126.544 211.015C126.544 209.695 126.094 208.645 125.194 207.865C124.294 207.085 123.169 206.695 121.819 206.695C120.529 206.695 119.434 207.07 118.534 207.82C117.664 208.57 117.124 209.635 116.914 211.015H126.544ZM50.35 240.41V259.31C50.35 261.2 50.815 262.655 51.745 263.675C52.675 264.695 54.04 265.205 55.84 265.205C57.64 265.205 59.02 264.695 59.98 263.675C60.94 262.655 61.42 261.2 61.42 259.31V240.41H69.115V259.265C69.115 262.085 68.515 264.47 67.315 266.42C66.115 268.37 64.495 269.84 62.455 270.83C60.445 271.82 58.195 272.315 55.705 272.315C53.215 272.315 50.98 271.835 49 270.875C47.05 269.885 45.505 268.415 44.365 266.465C43.225 264.485 42.655 262.085 42.655 259.265V240.41H50.35ZM83.1135 238.7V272H75.4185V238.7H83.1135ZM88.06 259.4C88.06 256.82 88.54 254.555 89.5 252.605C90.49 250.655 91.825 249.155 93.505 248.105C95.185 247.055 97.06 246.53 99.13 246.53C100.9 246.53 102.445 246.89 103.765 247.61C105.115 248.33 106.15 249.275 106.87 250.445V246.89H114.565V272H106.87V268.445C106.12 269.615 105.07 270.56 103.72 271.28C102.4 272 100.855 272.36 99.085 272.36C97.045 272.36 95.185 271.835 93.505 270.785C91.825 269.705 90.49 268.19 89.5 266.24C88.54 264.26 88.06 261.98 88.06 259.4ZM106.87 259.445C106.87 257.525 106.33 256.01 105.25 254.9C104.2 253.79 102.91 253.235 101.38 253.235C99.85 253.235 98.545 253.79 97.465 254.9C96.415 255.98 95.89 257.48 95.89 259.4C95.89 261.32 96.415 262.85 97.465 263.99C98.545 265.1 99.85 265.655 101.38 265.655C102.91 265.655 104.2 265.1 105.25 263.99C106.33 262.88 106.87 261.365 106.87 259.445ZM133.722 273.845C135.282 273.845 136.647 274.265 137.817 275.105C138.987 275.975 139.572 277.265 139.572 278.975C139.572 280.685 138.957 281.975 137.727 282.845C136.497 283.745 135.027 284.195 133.317 284.195H126.387V279.965H132.282C132.882 279.965 133.332 279.875 133.632 279.695C133.932 279.515 134.082 279.215 134.082 278.795C134.082 278.375 133.932 278.075 133.632 277.895C133.332 277.745 132.882 277.67 132.282 277.67H129.087V272.225C126.357 271.865 124.137 270.92 122.427 269.39C120.747 267.83 119.832 265.955 119.682 263.765H127.287C127.377 264.635 127.782 265.34 128.502 265.88C129.222 266.42 130.107 266.69 131.157 266.69C132.117 266.69 132.852 266.51 133.362 266.15C133.902 265.76 134.172 265.265 134.172 264.665C134.172 263.945 133.797 263.42 133.047 263.09C132.297 262.73 131.082 262.34 129.402 261.92C127.602 261.5 126.102 261.065 124.902 260.615C123.702 260.135 122.667 259.4 121.797 258.41C120.927 257.39 120.492 256.025 120.492 254.315C120.492 252.875 120.882 251.57 121.662 250.4C122.472 249.2 123.642 248.255 125.172 247.565C126.732 246.875 128.577 246.53 130.707 246.53C133.857 246.53 136.332 247.31 138.132 248.87C139.962 250.43 141.012 252.5 141.282 255.08H134.172C134.052 254.21 133.662 253.52 133.002 253.01C132.372 252.5 131.532 252.245 130.482 252.245C129.582 252.245 128.892 252.425 128.412 252.785C127.932 253.115 127.692 253.58 127.692 254.18C127.692 254.9 128.067 255.44 128.817 255.8C129.597 256.16 130.797 256.52 132.417 256.88C134.277 257.36 135.792 257.84 136.962 258.32C138.132 258.77 139.152 259.52 140.022 260.57C140.922 261.59 141.387 262.97 141.417 264.71C141.417 266.63 140.727 268.265 139.347 269.615C137.997 270.935 136.122 271.79 133.722 272.18V273.845ZM155.305 246.89V272H147.61V246.89H155.305ZM177.683 246.62C180.623 246.62 182.963 247.58 184.703 249.5C186.473 251.39 187.358 254 187.358 257.33V272H179.708V258.365C179.708 256.685 179.273 255.38 178.403 254.45C177.533 253.52 176.363 253.055 174.893 253.055C173.423 253.055 172.253 253.52 171.383 254.45C170.513 255.38 170.078 256.685 170.078 258.365V272H162.383V246.89H170.078V250.22C170.858 249.11 171.908 248.24 173.228 247.61C174.548 246.95 176.033 246.62 177.683 246.62Z" fill="#434343"/>
<path d="M41.8 323.612V332H40.96V323.612H41.8ZM41.368 322.916C41.216 322.916 41.084 322.864 40.972 322.76C40.868 322.648 40.816 322.516 40.816 322.364C40.816 322.212 40.868 322.084 40.972 321.98C41.084 321.868 41.216 321.812 41.368 321.812C41.52 321.812 41.648 321.868 41.752 321.98C41.864 322.084 41.92 322.212 41.92 322.364C41.92 322.516 41.864 322.648 41.752 322.76C41.648 322.864 41.52 322.916 41.368 322.916ZM43.3182 328.712C43.3182 328.04 43.4542 327.452 43.7262 326.948C43.9982 326.436 44.3702 326.044 44.8422 325.772C45.3222 325.492 45.8622 325.352 46.4622 325.352C47.0382 325.352 47.5582 325.492 48.0222 325.772C48.4862 326.052 48.8262 326.416 49.0422 326.864V323.12H49.8822V332H49.0422V330.536C48.8422 330.992 48.5142 331.368 48.0582 331.664C47.6022 331.952 47.0662 332.096 46.4502 332.096C45.8502 332.096 45.3102 331.956 44.8302 331.676C44.3582 331.396 43.9862 331 43.7142 330.488C43.4502 329.976 43.3182 329.384 43.3182 328.712ZM49.0422 328.724C49.0422 328.196 48.9342 327.732 48.7182 327.332C48.5022 326.932 48.2062 326.624 47.8302 326.408C47.4622 326.192 47.0542 326.084 46.6062 326.084C46.1422 326.084 45.7262 326.188 45.3582 326.396C44.9902 326.604 44.6982 326.908 44.4822 327.308C44.2742 327.7 44.1702 328.168 44.1702 328.712C44.1702 329.248 44.2742 329.72 44.4822 330.128C44.6982 330.528 44.9902 330.836 45.3582 331.052C45.7262 331.26 46.1422 331.364 46.6062 331.364C47.0542 331.364 47.4622 331.256 47.8302 331.04C48.2062 330.824 48.5022 330.516 48.7182 330.116C48.9342 329.716 49.0422 329.252 49.0422 328.724ZM51.4158 328.712C51.4158 328.04 51.5478 327.452 51.8118 326.948C52.0838 326.436 52.4558 326.044 52.9278 325.772C53.4078 325.492 53.9478 325.352 54.5478 325.352C55.1718 325.352 55.7078 325.496 56.1558 325.784C56.6118 326.072 56.9398 326.44 57.1398 326.888V325.448H57.9798V332H57.1398V330.548C56.9318 330.996 56.5998 331.368 56.1438 331.664C55.6958 331.952 55.1598 332.096 54.5358 332.096C53.9438 332.096 53.4078 331.956 52.9278 331.676C52.4558 331.396 52.0838 331 51.8118 330.488C51.5478 329.976 51.4158 329.384 51.4158 328.712ZM57.1398 328.724C57.1398 328.196 57.0318 327.732 56.8158 327.332C56.5998 326.932 56.3038 326.624 55.9278 326.408C55.5598 326.192 55.1518 326.084 54.7038 326.084C54.2398 326.084 53.8238 326.188 53.4558 326.396C53.0878 326.604 52.7958 326.908 52.5798 327.308C52.3718 327.7 52.2678 328.168 52.2678 328.712C52.2678 329.248 52.3718 329.72 52.5798 330.128C52.7958 330.528 53.0878 330.836 53.4558 331.052C53.8238 331.26 54.2398 331.364 54.7038 331.364C55.1518 331.364 55.5598 331.256 55.9278 331.04C56.3038 330.824 56.5998 330.516 56.8158 330.116C57.0318 329.716 57.1398 329.252 57.1398 328.724ZM60.7375 326.612C60.9215 326.204 61.2015 325.888 61.5775 325.664C61.9615 325.44 62.4295 325.328 62.9815 325.328V326.204H62.7535C62.1455 326.204 61.6575 326.368 61.2895 326.696C60.9215 327.024 60.7375 327.572 60.7375 328.34V332H59.8975V325.448H60.7375V326.612ZM64.6652 324.212C64.4972 324.212 64.3532 324.152 64.2332 324.032C64.1132 323.912 64.0532 323.764 64.0532 323.588C64.0532 323.412 64.1132 323.268 64.2332 323.156C64.3532 323.036 64.4972 322.976 64.6652 322.976C64.8332 322.976 64.9772 323.036 65.0972 323.156C65.2172 323.268 65.2772 323.412 65.2772 323.588C65.2772 323.764 65.2172 323.912 65.0972 324.032C64.9772 324.152 64.8332 324.212 64.6652 324.212ZM65.0852 325.448V332H64.2452V325.448H65.0852ZM71.1203 323.612V332H70.2803V323.612H71.1203ZM70.6883 322.916C70.5363 322.916 70.4043 322.864 70.2923 322.76C70.1883 322.648 70.1363 322.516 70.1363 322.364C70.1363 322.212 70.1883 322.084 70.2923 321.98C70.4043 321.868 70.5363 321.812 70.6883 321.812C70.8403 321.812 70.9683 321.868 71.0723 321.98C71.1843 322.084 71.2403 322.212 71.2403 322.364C71.2403 322.516 71.1843 322.648 71.0723 322.76C70.9683 322.864 70.8403 322.916 70.6883 322.916ZM77.5585 330.26C77.5585 330.764 77.3665 331.188 76.9825 331.532C76.5985 331.876 76.0945 332.064 75.4705 332.096V332.804C75.9425 332.788 76.3145 332.876 76.5865 333.068C76.8665 333.268 77.0065 333.552 77.0065 333.92C77.0065 334.28 76.8785 334.564 76.6225 334.772C76.3665 334.988 76.0265 335.096 75.6025 335.096H74.4025V334.532H75.4345C75.7305 334.532 75.9465 334.48 76.0825 334.376C76.2265 334.28 76.2985 334.128 76.2985 333.92C76.2985 333.536 76.0105 333.344 75.4345 333.344H74.8825V332.072C74.2425 332.008 73.7185 331.808 73.3105 331.472C72.9105 331.136 72.6865 330.696 72.6385 330.152H73.5025C73.5425 330.52 73.7145 330.82 74.0185 331.052C74.3305 331.276 74.7465 331.388 75.2665 331.388C75.7225 331.388 76.0785 331.28 76.3345 331.064C76.5985 330.848 76.7305 330.58 76.7305 330.26C76.7305 330.036 76.6585 329.852 76.5145 329.708C76.3705 329.564 76.1865 329.452 75.9625 329.372C75.7465 329.284 75.4505 329.192 75.0745 329.096C74.5865 328.968 74.1905 328.84 73.8865 328.712C73.5825 328.584 73.3225 328.396 73.1065 328.148C72.8985 327.892 72.7945 327.552 72.7945 327.128C72.7945 326.808 72.8905 326.512 73.0825 326.24C73.2745 325.968 73.5465 325.752 73.8985 325.592C74.2505 325.432 74.6505 325.352 75.0985 325.352C75.8025 325.352 76.3705 325.532 76.8025 325.892C77.2345 326.244 77.4665 326.732 77.4985 327.356H76.6585C76.6345 326.972 76.4825 326.664 76.2025 326.432C75.9305 326.192 75.5545 326.072 75.0745 326.072C74.6505 326.072 74.3065 326.172 74.0425 326.372C73.7785 326.572 73.6465 326.82 73.6465 327.116C73.6465 327.372 73.7225 327.584 73.8745 327.752C74.0345 327.912 74.2305 328.04 74.4625 328.136C74.6945 328.224 75.0065 328.324 75.3985 328.436C75.8705 328.564 76.2465 328.688 76.5265 328.808C76.8065 328.928 77.0465 329.104 77.2465 329.336C77.4465 329.568 77.5505 329.876 77.5585 330.26ZM79.9797 323.12V332H79.1397V323.12H79.9797ZM87.8099 328.388C87.8099 328.676 87.8019 328.896 87.7859 329.048H82.3499C82.3739 329.544 82.4939 329.968 82.7099 330.32C82.9259 330.672 83.2099 330.94 83.5619 331.124C83.9139 331.3 84.2979 331.388 84.7139 331.388C85.2579 331.388 85.7139 331.256 86.0819 330.992C86.4579 330.728 86.7059 330.372 86.8259 329.924H87.7139C87.5539 330.564 87.2099 331.088 86.6819 331.496C86.1619 331.896 85.5059 332.096 84.7139 332.096C84.0979 332.096 83.5459 331.96 83.0579 331.688C82.5699 331.408 82.1859 331.016 81.9059 330.512C81.6339 330 81.4979 329.404 81.4979 328.724C81.4979 328.044 81.6339 327.448 81.9059 326.936C82.1779 326.424 82.5579 326.032 83.0459 325.76C83.5339 325.488 84.0899 325.352 84.7139 325.352C85.3379 325.352 85.8819 325.488 86.3459 325.76C86.8179 326.032 87.1779 326.4 87.4259 326.864C87.6819 327.32 87.8099 327.828 87.8099 328.388ZM86.9579 328.364C86.9659 327.876 86.8659 327.46 86.6579 327.116C86.4579 326.772 86.1819 326.512 85.8299 326.336C85.4779 326.16 85.0939 326.072 84.6779 326.072C84.0539 326.072 83.5219 326.272 83.0819 326.672C82.6419 327.072 82.3979 327.636 82.3499 328.364H86.9579ZM90.1867 326.612C90.3707 326.204 90.6507 325.888 91.0267 325.664C91.4107 325.44 91.8787 325.328 92.4307 325.328V326.204H92.2027C91.5947 326.204 91.1067 326.368 90.7387 326.696C90.3707 327.024 90.1867 327.572 90.1867 328.34V332H89.3467V325.448H90.1867V326.612ZM105.183 323.72V332H104.343V325.388L101.391 332H100.779L97.8273 325.412V332H96.9873V323.72H97.8753L101.079 330.896L104.283 323.72H105.183ZM113.017 328.388C113.017 328.676 113.009 328.896 112.993 329.048H107.557C107.581 329.544 107.701 329.968 107.917 330.32C108.133 330.672 108.417 330.94 108.769 331.124C109.121 331.3 109.505 331.388 109.921 331.388C110.465 331.388 110.921 331.256 111.289 330.992C111.665 330.728 111.913 330.372 112.033 329.924H112.921C112.761 330.564 112.417 331.088 111.889 331.496C111.369 331.896 110.713 332.096 109.921 332.096C109.305 332.096 108.753 331.96 108.265 331.688C107.777 331.408 107.393 331.016 107.113 330.512C106.841 330 106.705 329.404 106.705 328.724C106.705 328.044 106.841 327.448 107.113 326.936C107.385 326.424 107.765 326.032 108.253 325.76C108.741 325.488 109.297 325.352 109.921 325.352C110.545 325.352 111.089 325.488 111.553 325.76C112.025 326.032 112.385 326.4 112.633 326.864C112.889 327.32 113.017 327.828 113.017 328.388ZM112.165 328.364C112.173 327.876 112.073 327.46 111.865 327.116C111.665 326.772 111.389 326.512 111.037 326.336C110.685 326.16 110.301 326.072 109.885 326.072C109.261 326.072 108.729 326.272 108.289 326.672C107.849 327.072 107.605 327.636 107.557 328.364H112.165ZM115.394 326.612C115.578 326.204 115.858 325.888 116.234 325.664C116.618 325.44 117.086 325.328 117.638 325.328V326.204H117.41C116.802 326.204 116.314 326.368 115.946 326.696C115.578 327.024 115.394 327.572 115.394 328.34V332H114.554V325.448H115.394V326.612ZM122.441 332L119.741 329.06V332H118.901V323.12H119.741V328.376L122.381 325.448H123.557L120.449 328.712L123.581 332H122.441ZM130.595 328.388C130.595 328.676 130.587 328.896 130.571 329.048H125.135C125.159 329.544 125.279 329.968 125.495 330.32C125.711 330.672 125.995 330.94 126.347 331.124C126.699 331.3 127.083 331.388 127.499 331.388C128.043 331.388 128.499 331.256 128.867 330.992C129.243 330.728 129.491 330.372 129.611 329.924H130.499C130.339 330.564 129.995 331.088 129.467 331.496C128.947 331.896 128.291 332.096 127.499 332.096C126.883 332.096 126.331 331.96 125.843 331.688C125.355 331.408 124.971 331.016 124.691 330.512C124.419 330 124.283 329.404 124.283 328.724C124.283 328.044 124.419 327.448 124.691 326.936C124.963 326.424 125.343 326.032 125.831 325.76C126.319 325.488 126.875 325.352 127.499 325.352C128.123 325.352 128.667 325.488 129.131 325.76C129.603 326.032 129.963 326.4 130.211 326.864C130.467 327.32 130.595 327.828 130.595 328.388ZM129.743 328.364C129.751 327.876 129.651 327.46 129.443 327.116C129.243 326.772 128.967 326.512 128.615 326.336C128.263 326.16 127.879 326.072 127.463 326.072C126.839 326.072 126.307 326.272 125.867 326.672C125.427 327.072 125.183 327.636 125.135 328.364H129.743ZM132.576 331.304H136.008V332H131.616V331.304L134.988 326.144H131.676V325.448H135.948V326.144L132.576 331.304ZM144.49 332.084C143.714 332.084 143.01 331.904 142.378 331.544C141.746 331.176 141.246 330.668 140.878 330.02C140.518 329.364 140.338 328.624 140.338 327.8C140.338 326.976 140.518 326.24 140.878 325.592C141.246 324.936 141.746 324.428 142.378 324.068C143.01 323.7 143.714 323.516 144.49 323.516C145.274 323.516 145.982 323.7 146.614 324.068C147.246 324.428 147.742 324.936 148.102 325.592C148.462 326.24 148.642 326.976 148.642 327.8C148.642 328.624 148.462 329.364 148.102 330.02C147.742 330.668 147.246 331.176 146.614 331.544C145.982 331.904 145.274 332.084 144.49 332.084ZM144.49 331.352C145.114 331.352 145.674 331.208 146.17 330.92C146.666 330.632 147.058 330.22 147.346 329.684C147.634 329.14 147.778 328.512 147.778 327.8C147.778 327.088 147.634 326.464 147.346 325.928C147.058 325.392 146.666 324.98 146.17 324.692C145.674 324.404 145.114 324.26 144.49 324.26C143.866 324.26 143.306 324.404 142.81 324.692C142.314 324.98 141.922 325.392 141.634 325.928C141.346 326.464 141.202 327.088 141.202 327.8C141.202 328.512 141.346 329.14 141.634 329.684C141.922 330.22 142.314 330.632 142.81 330.92C143.306 331.208 143.866 331.352 144.49 331.352ZM152.759 326.156H151.235V332H150.395V326.156H149.483V325.448H150.395V324.992C150.395 324.28 150.575 323.756 150.935 323.42C151.303 323.084 151.895 322.916 152.711 322.916V323.636C152.167 323.636 151.783 323.74 151.559 323.948C151.343 324.156 151.235 324.504 151.235 324.992V325.448H152.759V326.156ZM154.501 324.212C154.333 324.212 154.189 324.152 154.069 324.032C153.949 323.912 153.889 323.764 153.889 323.588C153.889 323.412 153.949 323.268 154.069 323.156C154.189 323.036 154.333 322.976 154.501 322.976C154.669 322.976 154.813 323.036 154.933 323.156C155.053 323.268 155.113 323.412 155.113 323.588C155.113 323.764 155.053 323.912 154.933 324.032C154.813 324.152 154.669 324.212 154.501 324.212ZM154.921 325.448V332H154.081V325.448H154.921ZM159.079 332.096C158.327 332.096 157.711 331.924 157.231 331.58C156.759 331.228 156.495 330.752 156.439 330.152H157.303C157.343 330.52 157.515 330.82 157.819 331.052C158.131 331.276 158.547 331.388 159.067 331.388C159.523 331.388 159.879 331.28 160.135 331.064C160.399 330.848 160.531 330.58 160.531 330.26C160.531 330.036 160.459 329.852 160.315 329.708C160.171 329.564 159.987 329.452 159.763 329.372C159.547 329.284 159.251 329.192 158.875 329.096C158.387 328.968 157.991 328.84 157.687 328.712C157.383 328.584 157.123 328.396 156.907 328.148C156.699 327.892 156.595 327.552 156.595 327.128C156.595 326.808 156.691 326.512 156.883 326.24C157.075 325.968 157.347 325.752 157.699 325.592C158.051 325.432 158.451 325.352 158.899 325.352C159.603 325.352 160.171 325.532 160.603 325.892C161.035 326.244 161.267 326.732 161.299 327.356H160.459C160.435 326.972 160.283 326.664 160.003 326.432C159.731 326.192 159.355 326.072 158.875 326.072C158.451 326.072 158.107 326.172 157.843 326.372C157.579 326.572 157.447 326.82 157.447 327.116C157.447 327.372 157.523 327.584 157.675 327.752C157.835 327.912 158.031 328.04 158.263 328.136C158.495 328.224 158.807 328.324 159.199 328.436C159.671 328.564 160.047 328.688 160.327 328.808C160.607 328.928 160.847 329.104 161.047 329.336C161.247 329.568 161.351 329.876 161.359 330.26C161.359 330.612 161.263 330.928 161.071 331.208C160.879 331.48 160.611 331.696 160.267 331.856C159.923 332.016 159.527 332.096 159.079 332.096ZM168.717 323.612C169.645 323.612 170.441 323.78 171.105 324.116C171.769 324.452 172.277 324.936 172.629 325.568C172.981 326.2 173.157 326.952 173.157 327.824C173.157 328.688 172.981 329.436 172.629 330.068C172.277 330.692 171.769 331.172 171.105 331.508C170.441 331.836 169.645 332 168.717 332H166.233V323.612H168.717ZM168.717 331.304C169.885 331.304 170.773 331 171.381 330.392C171.997 329.776 172.305 328.92 172.305 327.824C172.305 326.72 171.997 325.86 171.381 325.244C170.773 324.62 169.885 324.308 168.717 324.308H167.073V331.304H168.717ZM174.322 328.712C174.322 328.04 174.454 327.452 174.718 326.948C174.99 326.436 175.362 326.044 175.834 325.772C176.314 325.492 176.854 325.352 177.454 325.352C178.078 325.352 178.614 325.496 179.062 325.784C179.518 326.072 179.846 326.44 180.046 326.888V325.448H180.886V332H180.046V330.548C179.838 330.996 179.506 331.368 179.05 331.664C178.602 331.952 178.066 332.096 177.442 332.096C176.85 332.096 176.314 331.956 175.834 331.676C175.362 331.396 174.99 331 174.718 330.488C174.454 329.976 174.322 329.384 174.322 328.712ZM180.046 328.724C180.046 328.196 179.938 327.732 179.722 327.332C179.506 326.932 179.21 326.624 178.834 326.408C178.466 326.192 178.058 326.084 177.61 326.084C177.146 326.084 176.73 326.188 176.362 326.396C175.994 326.604 175.702 326.908 175.486 327.308C175.278 327.7 175.174 328.168 175.174 328.712C175.174 329.248 175.278 329.72 175.486 330.128C175.702 330.528 175.994 330.836 176.362 331.052C176.73 331.26 177.146 331.364 177.61 331.364C178.058 331.364 178.466 331.256 178.834 331.04C179.21 330.824 179.506 330.516 179.722 330.116C179.938 329.716 180.046 329.252 180.046 328.724ZM185.924 325.328C186.42 325.328 186.864 325.432 187.256 325.64C187.656 325.848 187.968 326.168 188.192 326.6C188.424 327.024 188.54 327.544 188.54 328.16V332H187.712V328.256C187.712 327.544 187.532 327 187.172 326.624C186.82 326.248 186.336 326.06 185.72 326.06C185.088 326.06 184.584 326.26 184.208 326.66C183.832 327.06 183.644 327.648 183.644 328.424V332H182.804V323.12H183.644V326.564C183.852 326.172 184.156 325.868 184.556 325.652C184.964 325.436 185.42 325.328 185.924 325.328ZM190.818 324.212C190.65 324.212 190.506 324.152 190.386 324.032C190.266 323.912 190.206 323.764 190.206 323.588C190.206 323.412 190.266 323.268 190.386 323.156C190.506 323.036 190.65 322.976 190.818 322.976C190.986 322.976 191.13 323.036 191.25 323.156C191.37 323.268 191.43 323.412 191.43 323.588C191.43 323.764 191.37 323.912 191.25 324.032C191.13 324.152 190.986 324.212 190.818 324.212ZM191.238 325.448V332H190.398V325.448H191.238ZM193.98 323.12V332H193.14V323.12H193.98ZM196.302 324.212C196.134 324.212 195.99 324.152 195.87 324.032C195.75 323.912 195.69 323.764 195.69 323.588C195.69 323.412 195.75 323.268 195.87 323.156C195.99 323.036 196.134 322.976 196.302 322.976C196.47 322.976 196.614 323.036 196.734 323.156C196.854 323.268 196.914 323.412 196.914 323.588C196.914 323.764 196.854 323.912 196.734 324.032C196.614 324.152 196.47 324.212 196.302 324.212ZM196.722 325.448V332H195.882V325.448H196.722ZM198.768 332.06C198.592 332.06 198.444 332 198.324 331.88C198.212 331.76 198.156 331.612 198.156 331.436C198.156 331.26 198.212 331.116 198.324 331.004C198.444 330.884 198.592 330.824 198.768 330.824C198.936 330.824 199.076 330.884 199.188 331.004C199.308 331.116 199.368 331.26 199.368 331.436C199.368 331.612 199.308 331.76 199.188 331.88C199.076 332 198.936 332.06 198.768 332.06ZM198.768 326.84C198.592 326.84 198.444 326.78 198.324 326.66C198.212 326.54 198.156 326.392 198.156 326.216C198.156 326.04 198.212 325.896 198.324 325.784C198.444 325.664 198.592 325.604 198.768 325.604C198.936 325.604 199.076 325.664 199.188 325.784C199.308 325.896 199.368 326.04 199.368 326.216C199.368 326.392 199.308 326.54 199.188 326.66C199.076 326.78 198.936 326.84 198.768 326.84ZM40.216 341.436V339.228H43.912V348H41.452V341.436H40.216ZM49.2726 341.748C49.2166 341.476 49.1246 341.276 48.9966 341.148C48.8686 341.02 48.6806 340.956 48.4326 340.956C48.0566 340.956 47.7926 341.132 47.6406 341.484C47.4966 341.836 47.4206 342.388 47.4126 343.14C47.5726 342.892 47.8046 342.696 48.1086 342.552C48.4126 342.408 48.7486 342.336 49.1166 342.336C49.8926 342.336 50.5126 342.576 50.9766 343.056C51.4486 343.536 51.6846 344.224 51.6846 345.12C51.6846 345.712 51.5606 346.232 51.3126 346.68C51.0726 347.12 50.7206 347.46 50.2566 347.7C49.8006 347.94 49.2606 348.06 48.6366 348.06C47.3966 348.06 46.5326 347.676 46.0446 346.908C45.5646 346.132 45.3246 345.036 45.3246 343.62C45.3246 342.052 45.5806 340.9 46.0926 340.164C46.6046 339.428 47.4286 339.06 48.5646 339.06C49.4846 339.06 50.1806 339.32 50.6526 339.84C51.1326 340.352 51.4006 340.988 51.4566 341.748H49.2726ZM48.5406 344.16C48.2606 344.16 48.0286 344.24 47.8446 344.4C47.6686 344.56 47.5806 344.788 47.5806 345.084C47.5806 345.396 47.6646 345.636 47.8326 345.804C48.0006 345.972 48.2406 346.056 48.5526 346.056C48.8406 346.056 49.0646 345.976 49.2246 345.816C49.3926 345.648 49.4766 345.412 49.4766 345.108C49.4766 344.812 49.3926 344.58 49.2246 344.412C49.0646 344.244 48.8366 344.16 48.5406 344.16ZM52.8698 346.56V344.616L56.5538 339.36H59.1338V344.52H60.0578V346.56H59.1338V348H56.7578V346.56H52.8698ZM56.9378 342.012L55.2818 344.52H56.9378V342.012ZM61.1667 346.56V344.616L64.8507 339.36H67.4307V344.52H68.3547V346.56H67.4307V348H65.0547V346.56H61.1667ZM65.2347 342.012L63.5787 344.52H65.2347V342.012ZM45.82 378.008H42.004L41.272 380H40.384L43.444 371.72H44.392L47.44 380H46.552L45.82 378.008ZM45.568 377.312L43.912 372.776L42.256 377.312H45.568ZM54.1881 373.448L50.3001 383.084H49.4241L50.6961 379.964L48.0081 373.448H48.9321L51.1641 379.04L53.3241 373.448H54.1881ZM59.8632 378.26C59.8632 378.764 59.6712 379.188 59.2872 379.532C58.9032 379.876 58.3992 380.064 57.7752 380.096V380.804C58.2472 380.788 58.6192 380.876 58.8912 381.068C59.1712 381.268 59.3112 381.552 59.3112 381.92C59.3112 382.28 59.1832 382.564 58.9272 382.772C58.6712 382.988 58.3312 383.096 57.9072 383.096H56.7072V382.532H57.7392C58.0352 382.532 58.2512 382.48 58.3872 382.376C58.5312 382.28 58.6032 382.128 58.6032 381.92C58.6032 381.536 58.3152 381.344 57.7392 381.344H57.1872V380.072C56.5472 380.008 56.0232 379.808 55.6152 379.472C55.2152 379.136 54.9912 378.696 54.9432 378.152H55.8072C55.8472 378.52 56.0192 378.82 56.3232 379.052C56.6352 379.276 57.0512 379.388 57.5712 379.388C58.0272 379.388 58.3832 379.28 58.6392 379.064C58.9032 378.848 59.0352 378.58 59.0352 378.26C59.0352 378.036 58.9632 377.852 58.8192 377.708C58.6752 377.564 58.4912 377.452 58.2672 377.372C58.0512 377.284 57.7552 377.192 57.3792 377.096C56.8912 376.968 56.4952 376.84 56.1912 376.712C55.8872 376.584 55.6272 376.396 55.4112 376.148C55.2032 375.892 55.0992 375.552 55.0992 375.128C55.0992 374.808 55.1952 374.512 55.3872 374.24C55.5792 373.968 55.8512 373.752 56.2032 373.592C56.5552 373.432 56.9552 373.352 57.4032 373.352C58.1072 373.352 58.6752 373.532 59.1072 373.892C59.5392 374.244 59.7712 374.732 59.8032 375.356H58.9632C58.9392 374.972 58.7872 374.664 58.5072 374.432C58.2352 374.192 57.8592 374.072 57.3792 374.072C56.9552 374.072 56.6112 374.172 56.3472 374.372C56.0832 374.572 55.9512 374.82 55.9512 375.116C55.9512 375.372 56.0272 375.584 56.1792 375.752C56.3392 375.912 56.5352 376.04 56.7672 376.136C56.9992 376.224 57.3112 376.324 57.7032 376.436C58.1752 376.564 58.5512 376.688 58.8312 376.808C59.1112 376.928 59.3512 377.104 59.5512 377.336C59.7512 377.568 59.8552 377.876 59.8632 378.26ZM67.3724 376.388C67.3724 376.676 67.3644 376.896 67.3484 377.048H61.9124C61.9364 377.544 62.0564 377.968 62.2724 378.32C62.4884 378.672 62.7724 378.94 63.1244 379.124C63.4764 379.3 63.8604 379.388 64.2764 379.388C64.8204 379.388 65.2764 379.256 65.6444 378.992C66.0204 378.728 66.2684 378.372 66.3884 377.924H67.2764C67.1164 378.564 66.7724 379.088 66.2444 379.496C65.7244 379.896 65.0684 380.096 64.2764 380.096C63.6604 380.096 63.1084 379.96 62.6204 379.688C62.1324 379.408 61.7484 379.016 61.4684 378.512C61.1964 378 61.0604 377.404 61.0604 376.724C61.0604 376.044 61.1964 375.448 61.4684 374.936C61.7404 374.424 62.1204 374.032 62.6084 373.76C63.0964 373.488 63.6524 373.352 64.2764 373.352C64.9004 373.352 65.4444 373.488 65.9084 373.76C66.3804 374.032 66.7404 374.4 66.9884 374.864C67.2444 375.32 67.3724 375.828 67.3724 376.388ZM66.5204 376.364C66.5284 375.876 66.4284 375.46 66.2204 375.116C66.0204 374.772 65.7444 374.512 65.3924 374.336C65.0404 374.16 64.6564 374.072 64.2404 374.072C63.6164 374.072 63.0844 374.272 62.6444 374.672C62.2044 375.072 61.9604 375.636 61.9124 376.364H66.5204ZM77.7462 371.612L75.0582 376.736V380H74.2182V376.736L71.5062 371.612H72.4542L74.6382 375.968L76.8102 371.612H77.7462ZM84.6516 373.448V380H83.8116V378.848C83.6196 379.256 83.3236 379.568 82.9236 379.784C82.5236 380 82.0756 380.108 81.5796 380.108C80.7956 380.108 80.1556 379.868 79.6596 379.388C79.1636 378.9 78.9156 378.196 78.9156 377.276V373.448H79.7436V377.18C79.7436 377.892 79.9196 378.436 80.2716 378.812C80.6316 379.188 81.1196 379.376 81.7356 379.376C82.3676 379.376 82.8716 379.176 83.2476 378.776C83.6236 378.376 83.8116 377.788 83.8116 377.012V373.448H84.6516ZM80.9076 372.524C80.7556 372.524 80.6236 372.472 80.5116 372.368C80.4076 372.256 80.3556 372.124 80.3556 371.972C80.3556 371.82 80.4076 371.692 80.5116 371.588C80.6236 371.476 80.7556 371.42 80.9076 371.42C81.0596 371.42 81.1876 371.476 81.2916 371.588C81.4036 371.692 81.4596 371.82 81.4596 371.972C81.4596 372.124 81.4036 372.256 81.2916 372.368C81.1876 372.472 81.0596 372.524 80.9076 372.524ZM82.7556 372.524C82.6036 372.524 82.4716 372.472 82.3596 372.368C82.2556 372.256 82.2036 372.124 82.2036 371.972C82.2036 371.82 82.2556 371.692 82.3596 371.588C82.4716 371.476 82.6036 371.42 82.7556 371.42C82.9076 371.42 83.0356 371.476 83.1396 371.588C83.2436 371.692 83.2956 371.82 83.2956 371.972C83.2956 372.124 83.2436 372.256 83.1396 372.368C83.0356 372.472 82.9076 372.524 82.7556 372.524ZM90.1094 380L87.4094 377.06V380H86.5694V371.12H87.4094V376.376L90.0494 373.448H91.2254L88.1174 376.712L91.2494 380H90.1094ZM94.591 380.096C93.839 380.096 93.223 379.924 92.743 379.58C92.271 379.228 92.007 378.752 91.951 378.152H92.815C92.855 378.52 93.027 378.82 93.331 379.052C93.643 379.276 94.059 379.388 94.579 379.388C95.035 379.388 95.391 379.28 95.647 379.064C95.911 378.848 96.043 378.58 96.043 378.26C96.043 378.036 95.971 377.852 95.827 377.708C95.683 377.564 95.499 377.452 95.275 377.372C95.059 377.284 94.763 377.192 94.387 377.096C93.899 376.968 93.503 376.84 93.199 376.712C92.895 376.584 92.635 376.396 92.419 376.148C92.211 375.892 92.107 375.552 92.107 375.128C92.107 374.808 92.203 374.512 92.395 374.24C92.587 373.968 92.859 373.752 93.211 373.592C93.563 373.432 93.963 373.352 94.411 373.352C95.115 373.352 95.683 373.532 96.115 373.892C96.547 374.244 96.779 374.732 96.811 375.356H95.971C95.947 374.972 95.795 374.664 95.515 374.432C95.243 374.192 94.867 374.072 94.387 374.072C93.963 374.072 93.619 374.172 93.355 374.372C93.091 374.572 92.959 374.82 92.959 375.116C92.959 375.372 93.035 375.584 93.187 375.752C93.347 375.912 93.543 376.04 93.775 376.136C94.007 376.224 94.319 376.324 94.711 376.436C95.183 376.564 95.559 376.688 95.839 376.808C96.119 376.928 96.359 377.104 96.559 377.336C96.759 377.568 96.863 377.876 96.871 378.26C96.871 378.612 96.775 378.928 96.583 379.208C96.391 379.48 96.123 379.696 95.779 379.856C95.435 380.016 95.039 380.096 94.591 380.096ZM104.38 376.388C104.38 376.676 104.372 376.896 104.356 377.048H98.9202C98.9442 377.544 99.0642 377.968 99.2802 378.32C99.4962 378.672 99.7802 378.94 100.132 379.124C100.484 379.3 100.868 379.388 101.284 379.388C101.828 379.388 102.284 379.256 102.652 378.992C103.028 378.728 103.276 378.372 103.396 377.924H104.284C104.124 378.564 103.78 379.088 103.252 379.496C102.732 379.896 102.076 380.096 101.284 380.096C100.668 380.096 100.116 379.96 99.6282 379.688C99.1402 379.408 98.7562 379.016 98.4762 378.512C98.2042 378 98.0682 377.404 98.0682 376.724C98.0682 376.044 98.2042 375.448 98.4762 374.936C98.7482 374.424 99.1282 374.032 99.6162 373.76C100.104 373.488 100.66 373.352 101.284 373.352C101.908 373.352 102.452 373.488 102.916 373.76C103.388 374.032 103.748 374.4 103.996 374.864C104.252 375.32 104.38 375.828 104.38 376.388ZM103.528 376.364C103.536 375.876 103.436 375.46 103.228 375.116C103.028 374.772 102.752 374.512 102.4 374.336C102.048 374.16 101.664 374.072 101.248 374.072C100.624 374.072 100.092 374.272 99.6522 374.672C99.2122 375.072 98.9682 375.636 98.9202 376.364H103.528ZM109.457 380L106.757 377.06V380H105.917V371.12H106.757V376.376L109.397 373.448H110.573L107.465 376.712L110.597 380H109.457ZM111.299 376.712C111.299 376.04 111.435 375.452 111.707 374.948C111.979 374.436 112.351 374.044 112.823 373.772C113.303 373.492 113.843 373.352 114.443 373.352C115.019 373.352 115.539 373.492 116.003 373.772C116.467 374.052 116.807 374.416 117.023 374.864V371.12H117.863V380H117.023V378.536C116.823 378.992 116.495 379.368 116.039 379.664C115.583 379.952 115.047 380.096 114.431 380.096C113.831 380.096 113.291 379.956 112.811 379.676C112.339 379.396 111.967 379 111.695 378.488C111.431 377.976 111.299 377.384 111.299 376.712ZM117.023 376.724C117.023 376.196 116.915 375.732 116.699 375.332C116.483 374.932 116.187 374.624 115.811 374.408C115.443 374.192 115.035 374.084 114.587 374.084C114.123 374.084 113.707 374.188 113.339 374.396C112.971 374.604 112.679 374.908 112.463 375.308C112.255 375.7 112.151 376.168 112.151 376.712C112.151 377.248 112.255 377.72 112.463 378.128C112.679 378.528 112.971 378.836 113.339 379.052C113.707 379.26 114.123 379.364 114.587 379.364C115.035 379.364 115.443 379.256 115.811 379.04C116.187 378.824 116.483 378.516 116.699 378.116C116.915 377.716 117.023 377.252 117.023 376.724ZM119.396 376.712C119.396 376.04 119.528 375.452 119.792 374.948C120.064 374.436 120.436 374.044 120.908 373.772C121.388 373.492 121.928 373.352 122.528 373.352C123.152 373.352 123.688 373.496 124.136 373.784C124.592 374.072 124.92 374.44 125.12 374.888V373.448H125.96V380H125.12V378.548C124.912 378.996 124.58 379.368 124.124 379.664C123.676 379.952 123.14 380.096 122.516 380.096C121.924 380.096 121.388 379.956 120.908 379.676C120.436 379.396 120.064 379 119.792 378.488C119.528 377.976 119.396 377.384 119.396 376.712ZM125.12 376.724C125.12 376.196 125.012 375.732 124.796 375.332C124.58 374.932 124.284 374.624 123.908 374.408C123.54 374.192 123.132 374.084 122.684 374.084C122.22 374.084 121.804 374.188 121.436 374.396C121.068 374.604 120.776 374.908 120.56 375.308C120.352 375.7 120.248 376.168 120.248 376.712C120.248 377.248 120.352 377.72 120.56 378.128C120.776 378.528 121.068 378.836 121.436 379.052C121.804 379.26 122.22 379.364 122.684 379.364C123.132 379.364 123.54 379.256 123.908 379.04C124.284 378.824 124.58 378.516 124.796 378.116C125.012 377.716 125.12 377.252 125.12 376.724ZM130.626 373.352C131.242 373.352 131.778 373.496 132.234 373.784C132.69 374.072 133.018 374.436 133.218 374.876V373.448H134.058V380.168C134.058 380.768 133.926 381.3 133.662 381.764C133.406 382.228 133.046 382.584 132.582 382.832C132.118 383.088 131.59 383.216 130.998 383.216C130.158 383.216 129.458 383.016 128.898 382.616C128.346 382.216 128.002 381.672 127.866 380.984H128.694C128.838 381.44 129.11 381.804 129.51 382.076C129.918 382.348 130.414 382.484 130.998 382.484C131.422 382.484 131.802 382.392 132.138 382.208C132.474 382.032 132.738 381.768 132.93 381.416C133.122 381.064 133.218 380.648 133.218 380.168V378.548C133.01 378.996 132.678 379.368 132.222 379.664C131.774 379.952 131.242 380.096 130.626 380.096C130.026 380.096 129.486 379.956 129.006 379.676C128.534 379.396 128.162 379 127.89 378.488C127.626 377.976 127.494 377.384 127.494 376.712C127.494 376.04 127.626 375.452 127.89 374.948C128.162 374.436 128.534 374.044 129.006 373.772C129.486 373.492 130.026 373.352 130.626 373.352ZM133.218 376.724C133.218 376.196 133.11 375.732 132.894 375.332C132.678 374.932 132.382 374.624 132.006 374.408C131.638 374.192 131.23 374.084 130.782 374.084C130.318 374.084 129.902 374.188 129.534 374.396C129.166 374.604 128.874 374.908 128.658 375.308C128.45 375.7 128.346 376.168 128.346 376.712C128.346 377.248 128.45 377.72 128.658 378.128C128.874 378.528 129.166 378.836 129.534 379.052C129.902 379.26 130.318 379.364 130.782 379.364C131.23 379.364 131.638 379.256 132.006 379.04C132.382 378.824 132.678 378.516 132.894 378.116C133.11 377.716 133.218 377.252 133.218 376.724ZM132.618 371.252C132.618 371.676 132.474 372.028 132.186 372.308C131.906 372.588 131.506 372.728 130.986 372.728C130.466 372.728 130.066 372.588 129.786 372.308C129.506 372.028 129.366 371.676 129.366 371.252V371.096H129.894C129.894 371.736 130.258 372.056 130.986 372.056C131.714 372.056 132.078 371.736 132.078 371.096H132.618V371.252ZM141.753 371.612C142.681 371.612 143.477 371.78 144.141 372.116C144.805 372.452 145.313 372.936 145.665 373.568C146.017 374.2 146.193 374.952 146.193 375.824C146.193 376.688 146.017 377.436 145.665 378.068C145.313 378.692 144.805 379.172 144.141 379.508C143.477 379.836 142.681 380 141.753 380H139.269V371.612H141.753ZM141.753 379.304C142.921 379.304 143.809 379 144.417 378.392C145.033 377.776 145.341 376.92 145.341 375.824C145.341 374.72 145.033 373.86 144.417 373.244C143.809 372.62 142.921 372.308 141.753 372.308H140.109V379.304H141.753ZM147.357 376.712C147.357 376.04 147.489 375.452 147.753 374.948C148.025 374.436 148.397 374.044 148.869 373.772C149.349 373.492 149.889 373.352 150.489 373.352C151.113 373.352 151.649 373.496 152.097 373.784C152.553 374.072 152.881 374.44 153.081 374.888V373.448H153.921V380H153.081V378.548C152.873 378.996 152.541 379.368 152.085 379.664C151.637 379.952 151.101 380.096 150.477 380.096C149.885 380.096 149.349 379.956 148.869 379.676C148.397 379.396 148.025 379 147.753 378.488C147.489 377.976 147.357 377.384 147.357 376.712ZM153.081 376.724C153.081 376.196 152.973 375.732 152.757 375.332C152.541 374.932 152.245 374.624 151.869 374.408C151.501 374.192 151.093 374.084 150.645 374.084C150.181 374.084 149.765 374.188 149.397 374.396C149.029 374.604 148.737 374.908 148.521 375.308C148.313 375.7 148.209 376.168 148.209 376.712C148.209 377.248 148.313 377.72 148.521 378.128C148.737 378.528 149.029 378.836 149.397 379.052C149.765 379.26 150.181 379.364 150.645 379.364C151.093 379.364 151.501 379.256 151.869 379.04C152.245 378.824 152.541 378.516 152.757 378.116C152.973 377.716 153.081 377.252 153.081 376.724ZM158.959 373.328C159.455 373.328 159.899 373.432 160.291 373.64C160.691 373.848 161.003 374.168 161.227 374.6C161.459 375.024 161.575 375.544 161.575 376.16V380H160.747V376.256C160.747 375.544 160.567 375 160.207 374.624C159.855 374.248 159.371 374.06 158.755 374.06C158.123 374.06 157.619 374.26 157.243 374.66C156.867 375.06 156.679 375.648 156.679 376.424V380H155.839V371.12H156.679V374.564C156.887 374.172 157.191 373.868 157.591 373.652C157.999 373.436 158.455 373.328 158.959 373.328ZM163.853 372.212C163.685 372.212 163.541 372.152 163.421 372.032C163.301 371.912 163.241 371.764 163.241 371.588C163.241 371.412 163.301 371.268 163.421 371.156C163.541 371.036 163.685 370.976 163.853 370.976C164.021 370.976 164.165 371.036 164.285 371.156C164.405 371.268 164.465 371.412 164.465 371.588C164.465 371.764 164.405 371.912 164.285 372.032C164.165 372.152 164.021 372.212 163.853 372.212ZM164.273 373.448V380H163.433V373.448H164.273ZM167.015 371.12V380H166.175V371.12H167.015ZM169.337 372.212C169.169 372.212 169.025 372.152 168.905 372.032C168.785 371.912 168.725 371.764 168.725 371.588C168.725 371.412 168.785 371.268 168.905 371.156C169.025 371.036 169.169 370.976 169.337 370.976C169.505 370.976 169.649 371.036 169.769 371.156C169.889 371.268 169.949 371.412 169.949 371.588C169.949 371.764 169.889 371.912 169.769 372.032C169.649 372.152 169.505 372.212 169.337 372.212ZM169.757 373.448V380H168.917V373.448H169.757ZM171.803 380.06C171.627 380.06 171.479 380 171.359 379.88C171.247 379.76 171.191 379.612 171.191 379.436C171.191 379.26 171.247 379.116 171.359 379.004C171.479 378.884 171.627 378.824 171.803 378.824C171.971 378.824 172.111 378.884 172.223 379.004C172.343 379.116 172.403 379.26 172.403 379.436C172.403 379.612 172.343 379.76 172.223 379.88C172.111 380 171.971 380.06 171.803 380.06ZM171.803 374.84C171.627 374.84 171.479 374.78 171.359 374.66C171.247 374.54 171.191 374.392 171.191 374.216C171.191 374.04 171.247 373.896 171.359 373.784C171.479 373.664 171.627 373.604 171.803 373.604C171.971 373.604 172.111 373.664 172.223 373.784C172.343 373.896 172.403 374.04 172.403 374.216C172.403 374.392 172.343 374.54 172.223 374.66C172.111 374.78 171.971 374.84 171.803 374.84ZM40.216 389.436V387.228H43.912V396H41.452V389.436H40.216ZM49.2726 389.748C49.2166 389.476 49.1246 389.276 48.9966 389.148C48.8686 389.02 48.6806 388.956 48.4326 388.956C48.0566 388.956 47.7926 389.132 47.6406 389.484C47.4966 389.836 47.4206 390.388 47.4126 391.14C47.5726 390.892 47.8046 390.696 48.1086 390.552C48.4126 390.408 48.7486 390.336 49.1166 390.336C49.8926 390.336 50.5126 390.576 50.9766 391.056C51.4486 391.536 51.6846 392.224 51.6846 393.12C51.6846 393.712 51.5606 394.232 51.3126 394.68C51.0726 395.12 50.7206 395.46 50.2566 395.7C49.8006 395.94 49.2606 396.06 48.6366 396.06C47.3966 396.06 46.5326 395.676 46.0446 394.908C45.5646 394.132 45.3246 393.036 45.3246 391.62C45.3246 390.052 45.5806 388.9 46.0926 388.164C46.6046 387.428 47.4286 387.06 48.5646 387.06C49.4846 387.06 50.1806 387.32 50.6526 387.84C51.1326 388.352 51.4006 388.988 51.4566 389.748H49.2726ZM48.5406 392.16C48.2606 392.16 48.0286 392.24 47.8446 392.4C47.6686 392.56 47.5806 392.788 47.5806 393.084C47.5806 393.396 47.6646 393.636 47.8326 393.804C48.0006 393.972 48.2406 394.056 48.5526 394.056C48.8406 394.056 49.0646 393.976 49.2246 393.816C49.3926 393.648 49.4766 393.412 49.4766 393.108C49.4766 392.812 49.3926 392.58 49.2246 392.412C49.0646 392.244 48.8366 392.16 48.5406 392.16ZM52.7258 391.488C52.7258 390.112 53.0058 389.028 53.5658 388.236C54.1258 387.444 55.0058 387.048 56.2058 387.048C57.4058 387.048 58.2858 387.444 58.8458 388.236C59.4138 389.028 59.6978 390.112 59.6978 391.488C59.6978 392.88 59.4178 393.972 58.8578 394.764C58.2978 395.556 57.4138 395.952 56.2058 395.952C54.9978 395.952 54.1138 395.556 53.5538 394.764C53.0018 393.972 52.7258 392.88 52.7258 391.488ZM57.3698 391.488C57.3698 390.768 57.2938 390.22 57.1418 389.844C56.9898 389.46 56.6778 389.268 56.2058 389.268C55.7338 389.268 55.4218 389.46 55.2698 389.844C55.1178 390.22 55.0418 390.768 55.0418 391.488C55.0418 392.224 55.1138 392.784 55.2578 393.168C55.4098 393.544 55.7258 393.732 56.2058 393.732C56.6858 393.732 56.9978 393.544 57.1418 393.168C57.2938 392.784 57.3698 392.224 57.3698 391.488ZM63.0485 393.348C63.1445 393.892 63.4405 394.164 63.9365 394.164C64.2965 394.164 64.5405 393.996 64.6685 393.66C64.8045 393.316 64.8725 392.768 64.8725 392.016C64.7125 392.248 64.4885 392.432 64.2005 392.568C63.9125 392.704 63.5885 392.772 63.2285 392.772C62.4605 392.772 61.8365 392.532 61.3565 392.052C60.8765 391.572 60.6365 390.88 60.6365 389.976C60.6365 389.384 60.7605 388.868 61.0085 388.428C61.2565 387.98 61.6085 387.636 62.0645 387.396C62.5285 387.156 63.0685 387.036 63.6845 387.036C64.9085 387.036 65.7605 387.408 66.2405 388.152C66.7285 388.888 66.9725 389.96 66.9725 391.368C66.9725 392.944 66.7365 394.12 66.2645 394.896C65.8005 395.672 65.0005 396.06 63.8645 396.06C63.2485 396.06 62.7165 395.936 62.2685 395.688C61.8285 395.432 61.4885 395.1 61.2485 394.692C61.0165 394.276 60.8845 393.828 60.8525 393.348H63.0485ZM63.7925 390.948C64.0725 390.948 64.2925 390.868 64.4525 390.708C64.6125 390.54 64.6925 390.316 64.6925 390.036C64.6925 389.716 64.6085 389.476 64.4405 389.316C64.2805 389.156 64.0565 389.076 63.7685 389.076C63.4805 389.076 63.2525 389.16 63.0845 389.328C62.9245 389.488 62.8445 389.72 62.8445 390.024C62.8445 390.304 62.9245 390.528 63.0845 390.696C63.2525 390.864 63.4885 390.948 63.7925 390.948Z" fill="#434343" fill-opacity="0.8"/>
<circle cx="179.941" cy="42.9413" r="27" fill="white" stroke="white" stroke-width="6"/>
<rect x="170.25" y="28.25" width="19.5" height="29.5" rx="3.75" stroke="#434343" stroke-opacity="0.8" stroke-width="0.5"/>
<rect x="173.25" y="31.25" width="13.5" height="19.5" rx="0.75" stroke="#434343" stroke-opacity="0.8" stroke-width="0.5"/>
<circle cx="180" cy="54" r="1.75" stroke="#434343" stroke-opacity="0.8" stroke-width="0.5"/>
<path fill-rule="evenodd" clip-rule="evenodd" d="M179.941 66.4414C192.92 66.4414 203.441 55.9201 203.441 42.9414C203.441 29.9627 192.92 19.4414 179.941 19.4414C166.963 19.4414 156.441 29.9627 156.441 42.9414C156.441 55.9201 166.963 66.4414 179.941 66.4414ZM179.941 66.9414C193.196 66.9414 203.941 56.1962 203.941 42.9414C203.941 29.6866 193.196 18.9414 179.941 18.9414C166.687 18.9414 155.941 29.6866 155.941 42.9414C155.941 56.1962 166.687 66.9414 179.941 66.9414Z" fill="#434343" fill-opacity="0.8"/>
</g>
<defs>
<clipPath id="clip0_1_1279">
<rect width="360" height="640" rx="20" fill="white"/>
</clipPath>
<clipPath id="clip1_1_1279">
<rect width="86" height="70" fill="white" transform="matrix(0 -1 1 0 -5 172)"/>
</clipPath>
<clipPath id="clip2_1_1279">
<rect width="86" height="70" fill="white" transform="matrix(0 -1 1 0 295 547)"/>
</clipPath>
<clipPath id="clip3_1_1279">
<rect width="86" height="70" fill="white" transform="matrix(0 -1 1 0 30 127)"/>
</clipPath>
<clipPath id="clip4_1_1279">
<rect width="86" height="70" fill="white" transform="matrix(0 -1 1 0 260 599)"/>
</clipPath>
</defs>
</svg>
